Open Sans-Bold Condensed.ufo
<glyph name="exclam" format="1">
  <advance width="555"/>
  <unicode hex="0021"/>
  <note>
exclam
</note>
  <outline>
    <contour>
      <point x="167.6" y="470.6" type="line"/>
      <point x="118.6" y="1462" type="line"/>
      <point x="438.2" y="1462" type="line"/>
      <point x="387.1" y="470.6" type="line"/>
    </contour>
    <contour>
      <point x="276.1" y="-27.2" type="qcurve" smooth="yes"/>
      <point x="194.575" y="-27.2"/>
      <point x="111.3" y="59.500000000000014"/>
      <point x="111.3" y="136.9" type="qcurve" smooth="yes"/>
      <point x="111.3" y="214.82500000000005"/>
      <point x="194.05" y="300.6"/>
      <point x="276.1" y="300.6" type="qcurve" smooth="yes"/>
      <point x="358.225" y="300.6"/>
      <point x="442.3" y="216.09999999999997"/>
      <point x="442.3" y="136.9" type="qcurve" smooth="yes"/>
      <point x="442.3" y="59.425"/>
      <point x="354.54999999999995" y="-27.2"/>
    </contour>
  </outline>
</glyph>
<glyph name="dollar" format="1">
  <advance width="948"/>
  <unicode hex="0024"/>
  <note>
dollar
</note>
  <outline>
    <contour>
      <point x="413.9" y="-119" type="line"/>
      <point x="413.9" y="85.9" type="line"/>
      <point x="350.5000000000001" y="88.0"/>
      <point x="232.6333333333333" y="107.96666666666667"/>
      <point x="123.70000000000002" y="143.79999999999995"/>
      <point x="73.7" y="169.7" type="qcurve"/>
      <point x="73.7" y="415.5" type="line"/>
      <point x="154.325" y="368.70000000000005"/>
      <point x="332.45000000000005" y="308.79999999999995"/>
      <point x="413.9" y="304.6" type="qcurve"/>
      <point x="413.9" y="643.2" type="line"/>
      <point x="379.0" y="659.6" type="line" smooth="yes"/>
      <point x="270.47499999999997" y="709.625"/>
      <point x="140.225" y="814.3500000000001"/>
      <point x="108.8" y="876.9" type="qcurve" smooth="yes"/>
      <point x="73.9" y="946.5575510204081"/>
      <point x="73.9" y="1042.0" type="qcurve" smooth="yes"/>
      <point x="73.9" y="1194.5500000000002"/>
      <point x="251.975" y="1376.9750000000004"/>
      <point x="413.9" y="1395.2" type="qcurve"/>
      <point x="413.9" y="1556" type="line"/>
      <point x="529.5" y="1556" type="line"/>
      <point x="529.5" y="1397.1" type="line"/>
      <point x="607.125" y="1392.225"/>
      <point x="761.8500000000001" y="1349.3750000000002"/>
      <point x="837.9" y="1310.9" type="qcurve"/>
      <point x="758.2" y="1097.5" type="line"/>
      <point x="629.3587999052969" y="1160.0413526714076"/>
      <point x="529.5" y="1169.2" type="qcurve"/>
      <point x="529.5" y="852.3" type="line"/>
      <point x="560.9" y="838.0" type="line" smooth="yes"/>
      <point x="667.35" y="790.3499999999999"/>
      <point x="806.1583333333333" y="691.1916666666667"/>
      <point x="874.0" y="557.1999999999999"/>
      <point x="874.0" y="457.3" type="qcurve" smooth="yes"/>
      <point x="874.0" y="298.07499999999993"/>
      <point x="695.0999999999999" y="107.30000000000001"/>
      <point x="529.5" y="90.5" type="qcurve"/>
      <point x="529.5" y="-119" type="line"/>
    </contour>
    <contour>
      <point x="529.5" y="311.2" type="line"/>
      <point x="586.0500000000001" y="321.55000000000007"/>
      <point x="639.5" y="392.42499999999995"/>
      <point x="639.5" y="457.6" type="qcurve" smooth="yes"/>
      <point x="639.5" y="496.67499999999995"/>
      <point x="599.4749999999999" y="554.9499999999998"/>
      <point x="529.5" y="589.9" type="qcurve"/>
    </contour>
    <contour>
      <point x="413.9" y="907" type="qcurve"/>
      <point x="413.9" y="1168.8" type="line"/>
      <point x="361.475" y="1160.475"/>
      <point x="309.5" y="1098.175"/>
      <point x="309.5" y="1045.9" type="qcurve" smooth="yes"/>
      <point x="309.5" y="993.175"/>
      <point x="355.775" y="931.1500000000001"/>
    </contour>
  </outline>
</glyph>
<glyph name="percent" format="1">
  <advance width="1554"/>
  <unicode hex="0025"/>
  <note>
percent
</note>
  <outline>
    <contour>
      <point x="373" y="0" type="line"/>
      <point x="974" y="1462" type="line"/>
      <point x="1183" y="1462" type="line"/>
      <point x="579" y="0" type="line"/>
    </contour>
    <contour>
      <point x="355.0" y="565.0" type="qcurve" smooth="yes"/>
      <point x="269.5" y="565.0"/>
      <point x="156.35416666666666" y="633.3020833333334"/>
      <point x="90.64583333333333" y="757.1979166666666"/>
      <point x="63.0" y="925.25"/>
      <point x="63.0" y="1025.0" type="qcurve" smooth="yes"/>
      <point x="63.0" y="1159.0"/>
      <point x="113.99999999999999" y="1365.6666666666665"/>
      <point x="239.0" y="1483.0"/>
      <point x="350.0" y="1483.0" type="qcurve" smooth="yes"/>
      <point x="465.5" y="1483.0"/>
      <point x="595.2499999999999" y="1365.25"/>
      <point x="648.0" y="1158.5"/>
      <point x="648.0" y="1025.0" type="qcurve" smooth="yes"/>
      <point x="648.0" y="893.5"/>
      <point x="592.75" y="685.4166666666665"/>
      <point x="464.5" y="565.0"/>
    </contour>
    <contour>
      <point x="355.0" y="758.0" type="qcurve" smooth="yes"/>
      <point x="374.5" y="758.0"/>
      <point x="406.5" y="788.25"/>
      <point x="417.0" y="822.0" type="qcurve" smooth="yes"/>
      <point x="435.0" y="885.0"/>
      <point x="435.0" y="1024.0" type="qcurve" smooth="yes"/>
      <point x="435.0" y="1091.5"/>
      <point x="426.0" y="1195.5"/>
      <point x="417.0" y="1227.0" type="qcurve" smooth="yes"/>
      <point x="397.95348837209303" y="1290.0"/>
      <point x="354.0" y="1290.0" type="qcurve" smooth="yes"/>
      <point x="313.9" y="1290.0"/>
      <point x="295.0" y="1227.0" type="qcurve" smooth="yes"/>
      <point x="284.5" y="1189.5"/>
      <point x="277.0" y="1084.75"/>
      <point x="277.0" y="1024.0" type="qcurve" smooth="yes"/>
      <point x="277.0" y="881.5"/>
      <point x="294.0" y="822.0" type="qcurve" smooth="yes"/>
      <point x="303.75" y="787.5"/>
      <point x="336.25" y="758.0"/>
    </contour>
    <contour>
      <point x="1195.0" y="-18.0" type="qcurve" smooth="yes"/>
      <point x="1112.125" y="-18.0"/>
      <point x="1001.2552083333334" y="49.40625"/>
      <point x="935.9947916666666" y="171.09375"/>
      <point x="908.0" y="335.25"/>
      <point x="908.0" y="432.0" type="qcurve" smooth="yes"/>
      <point x="908.0" y="567.0"/>
      <point x="959.75" y="778.0"/>
      <point x="1086.5" y="899.0"/>
      <point x="1199.0" y="899.0" type="qcurve" smooth="yes"/>
      <point x="1310.5" y="899.0"/>
      <point x="1438.4166666666665" y="778.9999999999999"/>
      <point x="1492.0" y="573.0"/>
      <point x="1492.0" y="444.0" type="qcurve" smooth="yes"/>
      <point x="1492.0" y="309.5"/>
      <point x="1438.0833333333333" y="100.91666666666666"/>
      <point x="1308.5" y="-18.0"/>
    </contour>
    <contour>
      <point x="1199.0" y="174.0" type="qcurve" smooth="yes"/>
      <point x="1240.5" y="174.0"/>
      <point x="1260.0" y="237.0" type="qcurve" smooth="yes"/>
      <point x="1279.0" y="301.3076923076923"/>
      <point x="1279.0" y="444.0" type="qcurve" smooth="yes"/>
      <point x="1279.0" y="510.0"/>
      <point x="1270.0" y="611.25"/>
      <point x="1261.0" y="642.0" type="qcurve" smooth="yes"/>
      <point x="1252.0" y="670.5"/>
      <point x="1220.75" y="705.0"/>
      <point x="1199.0" y="705.0" type="qcurve" smooth="yes"/>
      <point x="1157.1463414634147" y="705.0"/>
      <point x="1139.0" y="643.0" type="qcurve" smooth="yes"/>
      <point x="1121.0" y="580.0"/>
      <point x="1121.0" y="439.0" type="qcurve" smooth="yes"/>
      <point x="1121.0" y="370.0"/>
      <point x="1129.25" y="269.5"/>
      <point x="1139.0" y="238.0" type="qcurve" smooth="yes"/>
      <point x="1156.860465116279" y="174.0"/>
    </contour>
  </outline>
</glyph>
<glyph name="ampersand" format="1">
  <advance width="1190"/>
  <unicode hex="0026"/>
  <note>
ampersand
</note>
  <outline>
    <contour>
      <point x="465.0" y="-20.0" type="qcurve" smooth="yes"/>
      <point x="336.5" y="-20.0"/>
      <point x="154.91666666666666" y="79.08333333333333"/>
      <point x="59.0" y="260.5"/>
      <point x="59.0" y="384.0" type="qcurve" smooth="yes"/>
      <point x="59.0" y="477.0"/>
      <point x="117.74999999999999" y="628.5"/>
      <point x="227.5" y="754.0"/>
      <point x="304" y="808" type="qcurve"/>
      <point x="303.0" y="810.0" type="line"/>
      <point x="252.0" y="888.5"/>
      <point x="197.5" y="998.4166666666665"/>
      <point x="177.0" y="1090.0"/>
      <point x="177.0" y="1141.0" type="qcurve" smooth="yes"/>
      <point x="177.0" y="1244.5"/>
      <point x="265.08333333333326" y="1398.2499999999998"/>
      <point x="423.5" y="1483.0"/>
      <point x="529.0" y="1483.0" type="qcurve" smooth="yes"/>
      <point x="682.0" y="1483.0"/>
      <point x="861.0" y="1308.75"/>
      <point x="861.0" y="1164.0" type="qcurve" smooth="yes"/>
      <point x="861.0" y="1090.5"/>
      <point x="815.6666666666665" y="960.0000000000001"/>
      <point x="711.0" y="833.5"/>
      <point x="622" y="766" type="qcurve"/>
      <point x="826.0" y="479.0" type="line"/>
      <point x="859.0" y="541.25"/>
      <point x="900.0" y="693.0"/>
      <point x="912" y="768" type="qcurve"/>
      <point x="1144.0" y="768.0" type="line"/>
      <point x="1131.5" y="675.0"/>
      <point x="1086.0" y="501.4999999999999"/>
      <point x="1020.5" y="342.0"/>
      <point x="978" y="270" type="qcurve"/>
      <point x="1172" y="0" type="line"/>
      <point x="873" y="0" type="line"/>
      <point x="802.0" y="102.0" type="line"/>
      <point x="756.5" y="61.5"/>
      <point x="651.4166666666666" y="7.25"/>
      <point x="532.0" y="-20.0"/>
    </contour>
    <contour>
      <point x="497.0" y="217.0" type="qcurve" smooth="yes"/>
      <point x="541.25" y="217.0"/>
      <point x="630.0" y="254.25"/>
      <point x="669" y="291" type="qcurve"/>
      <point x="428.0" y="637.0" type="line"/>
      <point x="395.5" y="607.0"/>
      <point x="351.41666666666663" y="539.0833333333333"/>
      <point x="329.0" y="459.5"/>
      <point x="329.0" y="412.0" type="qcurve" smooth="yes"/>
      <point x="329.0" y="322.0"/>
      <point x="418.25" y="217.0"/>
    </contour>
    <contour>
      <point x="506.0" y="933.0" type="qcurve"/>
      <point x="567.5" y="981.0"/>
      <point x="615.0" y="1068.75"/>
      <point x="615.0" y="1131.0" type="qcurve" smooth="yes"/>
      <point x="615.0" y="1197.75"/>
      <point x="562.5" y="1257.0"/>
      <point x="522.0" y="1257.0" type="qcurve" smooth="yes"/>
      <point x="480.0" y="1257.0"/>
      <point x="425.0" y="1192.25"/>
      <point x="425.0" y="1130.0" type="qcurve" smooth="yes"/>
      <point x="425.0" y="1093.0"/>
      <point x="445.08333333333326" y="1025.6666666666665"/>
      <point x="481.5" y="963.0"/>
    </contour>
  </outline>
</glyph>
<glyph name="parenleft" format="1">
  <advance width="666"/>
  <unicode hex="0028"/>
  <note>
parenleft
</note>
  <outline>
    <contour>
      <point x="375.1" y="-324" type="line"/>
      <point x="227.65" y="-153.07500000000002"/>
      <point x="73.9" y="299.32500000000005"/>
      <point x="73.9" y="561.0" type="qcurve" smooth="yes"/>
      <point x="73.9" y="826.0500000000001"/>
      <point x="228.85000000000002" y="1287.3249999999998"/>
      <point x="375.1" y="1462" type="qcurve"/>
      <point x="610.5" y="1462.0" type="line"/>
      <point x="469.94999999999993" y="1269.7749999999999"/>
      <point x="326.6" y="807.0500000000001"/>
      <point x="326.6" y="563.0" type="qcurve" smooth="yes"/>
      <point x="326.6" y="315.79999999999995"/>
      <point x="476.42500000000007" y="-143.85000000000002"/>
      <point x="608.5" y="-324" type="qcurve"/>
    </contour>
  </outline>
</glyph>
<glyph name="asterisk" format="1">
  <advance width="952"/>
  <unicode hex="002A"/>
  <note>
asterisk
</note>
  <outline>
    <contour>
      <point x="356" y="736.3" type="line"/>
      <point x="152" y="846.3" type="line"/>
      <point x="334.6" y="1092.2" type="line"/>
      <point x="52.7" y="1113.6" type="line"/>
      <point x="90" y="1335.4" type="line"/>
      <point x="393.2" y="1248.9" type="line"/>
      <point x="356.4" y="1556" type="line"/>
      <point x="593.6" y="1556" type="line"/>
      <point x="557.2" y="1248.9" type="line"/>
      <point x="868" y="1334.6" type="line"/>
      <point x="901.6" y="1110" type="line"/>
      <point x="615.8" y="1092.2" type="line"/>
      <point x="801.2" y="846.3" type="line"/>
      <point x="602" y="736.9" type="line"/>
      <point x="473" y="996.3" type="line"/>
    </contour>
  </outline>
</glyph>
<glyph name="comma" format="1">
  <advance width="553"/>
  <unicode hex="002C"/>
  <outline>
    <contour>
      <point x="51.4" y="-264" type="line"/>
      <point x="83.125" y="-130.72500000000002"/>
      <point x="134.1" y="120.675"/>
      <point x="152.1" y="237.9" type="qcurve"/>
      <point x="416.2" y="237.9" type="line"/>
      <point x="430.2" y="214.9" type="line"/>
      <point x="404.025" y="113.425"/>
      <point x="316.55000000000007" y="-125.39999999999998"/>
      <point x="253.7" y="-264" type="qcurve"/>
    </contour>
  </outline>
</glyph>
<glyph name="period" format="1">
  <advance width="553"/>
  <unicode hex="002E"/>
  <outline>
    <contour>
      <point x="276.1" y="-27.2" type="qcurve" smooth="yes"/>
      <point x="195.10000000000002" y="-27.2"/>
      <point x="110.6" y="59.500000000000014"/>
      <point x="110.6" y="136.9" type="qcurve" smooth="yes"/>
      <point x="110.6" y="214.82500000000005"/>
      <point x="194.575" y="300.6"/>
      <point x="276.1" y="300.6" type="qcurve" smooth="yes"/>
      <point x="357.7" y="300.6"/>
      <point x="442.3" y="216.09999999999997"/>
      <point x="442.3" y="136.9" type="qcurve" smooth="yes"/>
      <point x="442.3" y="59.425"/>
      <point x="355.075" y="-27.2"/>
    </contour>
  </outline>
</glyph>
<glyph name="zero" format="1">
  <advance width="948"/>
  <unicode hex="0030"/>
  <outline>
    <contour>
      <point x="474.5" y="-20.0" type="qcurve" smooth="yes"/>
      <point x="384.5" y="-20.0"/>
      <point x="242.45000000000005" y="41.20000000000002"/>
      <point x="193.4" y="112.9" type="qcurve" smooth="yes"/>
      <point x="127.32499999999999" y="204.32500000000005"/>
      <point x="74.0" y="525.7500000000001"/>
      <point x="74.0" y="730.2" type="qcurve" smooth="yes"/>
      <point x="74.0" y="971.7"/>
      <point x="147.2" y="1300.75"/>
      <point x="226.7" y="1384.3" type="qcurve" smooth="yes"/>
      <point x="274.325" y="1437.925"/>
      <point x="400.7" y="1485.1"/>
      <point x="478.7" y="1485.1" type="qcurve" smooth="yes"/>
      <point x="550.9250000000001" y="1485.1"/>
      <point x="683.8749999999999" y="1437.4250000000002"/>
      <point x="731.8" y="1379.6" type="qcurve"/>
      <point x="808.3749999999999" y="1298.15"/>
      <point x="873.9" y="961.375"/>
      <point x="873.9" y="730.9" type="qcurve" smooth="yes"/>
      <point x="873.9" y="511.525"/>
      <point x="815.2750000000001" y="200.625"/>
      <point x="749.8" y="112.2" type="qcurve" smooth="yes"/>
      <point x="699.85" y="41.625000000000014"/>
      <point x="561.5749999999999" y="-20.0"/>
    </contour>
    <contour>
      <point x="473.8" y="210.5" type="qcurve" smooth="yes"/>
      <point x="496.82499999999993" y="210.5"/>
      <point x="537.025" y="233.04999999999998"/>
      <point x="551.2" y="257.5" type="qcurve" smooth="yes"/>
      <point x="573.1500000000001" y="292.85"/>
      <point x="595.4916666666667" y="449.8666666666667"/>
      <point x="603.2" y="671.75"/>
      <point x="603.2" y="804.4" type="qcurve" smooth="yes"/>
      <point x="603.2" y="913.8249999999998"/>
      <point x="588.9999999999999" y="1092.3999999999999"/>
      <point x="574.3" y="1142.5" type="qcurve" smooth="yes"/>
      <point x="547.6" y="1253.2"/>
      <point x="471.7" y="1253.2" type="qcurve" smooth="yes"/>
      <point x="437.5" y="1253.2"/>
      <point x="387.375" y="1202.3"/>
      <point x="373.2" y="1144.4" type="qcurve" smooth="yes"/>
      <point x="359.55000000000007" y="1089.65"/>
      <point x="346.1" y="882.125"/>
      <point x="346.1" y="729.5" type="qcurve" smooth="yes"/>
      <point x="346.1" y="424.11758241758235"/>
      <point x="373.2" y="318.1" type="qcurve" smooth="yes"/>
      <point x="400.8309782608696" y="210.5"/>
    </contour>
  </outline>
</glyph>
<glyph name="one" format="1">
  <advance width="948"/>
  <unicode hex="0031"/>
  <outline>
    <contour>
      <point x="460.8" y="0" type="line"/>
      <point x="460.8" y="857.3" type="line" smooth="yes"/>
      <point x="460.8" y="927.2750000000001"/>
      <point x="468.2" y="1089.2250000000004"/>
      <point x="475.1" y="1180.2" type="qcurve"/>
      <point x="464.075" y="1164.375"/>
      <point x="441.25" y="1137.6"/>
      <point x="424.0" y="1119.3" type="qcurve" smooth="yes"/>
      <point x="399.32500000000005" y="1092.375"/>
      <point x="324.2" y="1011.4"/>
      <point x="250.7" y="936.7" type="qcurve"/>
      <point x="97.5" y="1101.9" type="line"/>
      <point x="487.3" y="1462" type="line"/>
      <point x="729.7" y="1462" type="line"/>
      <point x="729.7" y="0" type="line"/>
    </contour>
  </outline>
</glyph>
<glyph name="two" format="1">
  <advance width="948"/>
  <unicode hex="0032"/>
  <outline>
    <contour>
      <point x="74" y="0" type="line"/>
      <point x="74" y="202.6" type="line"/>
      <point x="334.0" y="570.9" type="line" smooth="yes"/>
      <point x="386.125" y="645.2250000000001"/>
      <point x="461.15" y="759.7"/>
      <point x="481.1" y="797.2" type="qcurve" smooth="yes"/>
      <point x="525.0500000000001" y="876.55"/>
      <point x="559.5" y="1009.4999999999998"/>
      <point x="559.5" y="1088.1" type="qcurve" smooth="yes"/>
      <point x="559.5" y="1158.075"/>
      <point x="484.4" y="1245.3"/>
      <point x="427.7" y="1245.3" type="qcurve" smooth="yes"/>
      <point x="370.25" y="1245.3"/>
      <point x="279.25" y="1188.45"/>
      <point x="212.8" y="1115.7" type="qcurve"/>
      <point x="61.1" y="1276.1" type="line"/>
      <point x="132.1" y="1356.0499999999997"/>
      <point x="257.275" y="1446.1750000000002"/>
      <point x="382.94999999999993" y="1483.0"/>
      <point x="454.7" y="1483.0" type="qcurve" smooth="yes"/>
      <point x="570.6" y="1483.0"/>
      <point x="737.3833333333333" y="1388.1833333333334"/>
      <point x="826.9" y="1213.5"/>
      <point x="826.9" y="1093.7" type="qcurve" smooth="yes"/>
      <point x="826.9" y="1003.9249999999998"/>
      <point x="792.8500000000001" y="859.175"/>
      <point x="754.9" y="781.4" type="qcurve" smooth="yes"/>
      <point x="736.0749999999998" y="742.775"/>
      <point x="691.025" y="664.75"/>
      <point x="662.9" y="624.1" type="qcurve" smooth="yes"/>
      <point x="642.125" y="593.125"/>
      <point x="493.25" y="394.79999999999995"/>
      <point x="378.5" y="249.9" type="qcurve"/>
      <point x="378.5" y="241.9" type="line"/>
      <point x="858.5" y="241.9" type="line"/>
      <point x="858.5" y="0" type="line"/>
    </contour>
  </outline>
</glyph>
<glyph name="three" format="1">
  <advance width="948"/>
  <unicode hex="0033"/>
  <outline>
    <contour>
      <point x="389.4" y="-20.0" type="qcurve" smooth="yes"/>
      <point x="292.275" y="-20.0"/>
      <point x="128.55" y="15.149999999999999"/>
      <point x="63" y="49.8" type="qcurve"/>
      <point x="63.0" y="292.9" type="line"/>
      <point x="128.625" y="252.99999999999994"/>
      <point x="282.375" y="207.3"/>
      <point x="353.7" y="207.3" type="qcurve" smooth="yes"/>
      <point x="470.17500000000007" y="207.3"/>
      <point x="587.9" y="313.5"/>
      <point x="587.9" y="430.5" type="qcurve" smooth="yes"/>
      <point x="587.9" y="506.625"/>
      <point x="523.25" y="605.8249999999998"/>
      <point x="458.9" y="628.4" type="qcurve" smooth="yes"/>
      <point x="403.36499999999984" y="648.7"/>
      <point x="319" y="648.7" type="qcurve" smooth="yes"/>
      <point x="236.6" y="648.7" type="line"/>
      <point x="236.6" y="852.7" type="line"/>
      <point x="315.9" y="852.7" type="line" smooth="yes"/>
      <point x="434.175" y="852.7"/>
      <point x="560.9" y="963.725"/>
      <point x="560.9" y="1074.8" type="qcurve" smooth="yes"/>
      <point x="560.9" y="1162.25"/>
      <point x="480.275" y="1250.8"/>
      <point x="406.1" y="1250.8" type="qcurve" smooth="yes"/>
      <point x="350.225" y="1250.8"/>
      <point x="239.72499999999997" y="1202.8749999999998"/>
      <point x="186.7" y="1155.1" type="qcurve"/>
      <point x="62.7" y="1335.3" type="line"/>
      <point x="136.95" y="1409.3999999999996"/>
      <point x="323.8" y="1483.0"/>
      <point x="436.3" y="1483.0" type="qcurve" smooth="yes"/>
      <point x="621.25" y="1483.0"/>
      <point x="829.0" y="1295.975"/>
      <point x="829.0" y="1132.1" type="qcurve" smooth="yes"/>
      <point x="829.0" y="994.325"/>
      <point x="692.3500000000001" y="808.225"/>
      <point x="568.9" y="772.3" type="qcurve"/>
      <point x="568.9" y="764.3" type="line"/>
      <point x="707.125" y="742.55"/>
      <point x="858.3" y="570.0249999999999"/>
      <point x="858.3" y="421.6" type="qcurve" smooth="yes"/>
      <point x="858.3" y="220.29999999999995"/>
      <point x="607.125" y="-20.0"/>
    </contour>
  </outline>
</glyph>
<glyph name="four" format="1">
  <advance width="948"/>
  <unicode hex="0034"/>
  <outline>
    <contour>
      <point x="514.4" y="0" type="line"/>
      <point x="514.4" y="306.8" type="line"/>
      <point x="37" y="306.8" type="line"/>
      <point x="37" y="528" type="line"/>
      <point x="478.9" y="1461.5" type="line"/>
      <point x="770" y="1461.5" type="line"/>
      <point x="770" y="531.9" type="line"/>
      <point x="917.6" y="531.9" type="line"/>
      <point x="917.6" y="306.8" type="line"/>
      <point x="770" y="306.8" type="line"/>
      <point x="770" y="0" type="line"/>
    </contour>
    <contour>
      <point x="266.5" y="531.9" type="line"/>
      <point x="514.4" y="531.9" type="line"/>
      <point x="514.4" y="840.3" type="line" smooth="yes"/>
      <point x="514.4" y="873.45"/>
      <point x="518.3583333333333" y="972.2833333333333"/>
      <point x="523.75" y="1071.6499999999996"/>
      <point x="525.9" y="1105.6" type="qcurve"/>
      <point x="517.8" y="1105.6" type="line"/>
      <point x="500.625" y="1051.525"/>
      <point x="462.20000000000005" y="953.3"/>
      <point x="442.4" y="909.2" type="qcurve" smooth="yes"/>
    </contour>
  </outline>
</glyph>
<glyph name="five" format="1">
  <advance width="948"/>
  <unicode hex="0035"/>
  <outline>
    <contour>
      <point x="400.8" y="-20.0" type="qcurve" smooth="yes"/>
      <point x="304.94999999999993" y="-20.0"/>
      <point x="149.075" y="16.525"/>
      <point x="89.6" y="53.2" type="qcurve"/>
      <point x="89.6" y="307.4" type="line"/>
      <point x="123.65" y="282.5999999999999"/>
      <point x="220.625" y="239.48333333333335"/>
      <point x="325.3" y="212.9"/>
      <point x="370.9" y="212.9" type="qcurve" smooth="yes"/>
      <point x="477.925" y="212.9"/>
      <point x="585.7" y="337.7"/>
      <point x="585.7" y="463.1" type="qcurve" smooth="yes"/>
      <point x="585.7" y="579.0500000000002"/>
      <point x="481.3" y="696.3"/>
      <point x="376.9" y="696.3" type="qcurve" smooth="yes"/>
      <point x="292.82443438914004" y="696.3"/>
      <point x="201.4" y="663.5" type="qcurve"/>
      <point x="113.9" y="729.3" type="line"/>
      <point x="158.3" y="1462" type="line"/>
      <point x="782.1" y="1462" type="line"/>
      <point x="782.1" y="1219.6" type="line"/>
      <point x="390.5" y="1219.6" type="line"/>
      <point x="371.3" y="903.7" type="line"/>
      <point x="398.975" y="909.2500000000001"/>
      <point x="463.22499999999997" y="915.3"/>
      <point x="500.5" y="915.3" type="qcurve" smooth="yes"/>
      <point x="610.35" y="915.2999999999997"/>
      <point x="771.7916666666667" y="811.5083333333332"/>
      <point x="860.0" y="618.7500000000001"/>
      <point x="860.0" y="485.3" type="qcurve" smooth="yes"/>
      <point x="860.0" y="325.2"/>
      <point x="750.5250000000001" y="99.23333333333332"/>
      <point x="544.95" y="-20.0"/>
    </contour>
  </outline>
</glyph>
<glyph name="six" format="1">
  <advance width="948"/>
  <unicode hex="0036"/>
  <outline>
    <contour>
      <point x="471.7" y="-20.0" type="qcurve" smooth="yes"/>
      <point x="269.80000000000007" y="-20.0"/>
      <point x="74.1" y="312.35"/>
      <point x="74.1" y="637.7" type="qcurve" smooth="yes"/>
      <point x="74.1" y="878.675"/>
      <point x="171.47500000000002" y="1250.5500000000002"/>
      <point x="278.2" y="1353.6" type="qcurve" smooth="yes"/>
      <point x="408.80649350649367" y="1480.9"/>
      <point x="632.5" y="1480.9" type="qcurve" smooth="yes"/>
      <point x="682.8249999999999" y="1480.9"/>
      <point x="771.5000000000001" y="1470.3750000000002"/>
      <point x="795.2" y="1464.9" type="qcurve"/>
      <point x="795.2" y="1239.4" type="line"/>
      <point x="725.8046728971957" y="1255.3"/>
      <point x="660.2" y="1255.3" type="qcurve" smooth="yes"/>
      <point x="544.0999999999999" y="1255.3"/>
      <point x="395.375" y="1151.625"/>
      <point x="361.7" y="1056.0" type="qcurve" smooth="yes"/>
      <point x="323.0778861322243" y="959.8118456905207"/>
      <point x="314.5" y="776" type="qcurve"/>
      <point x="326.0" y="776.0" type="line"/>
      <point x="398.74999999999994" y="944.3"/>
      <point x="564.8" y="944.3" type="qcurve" smooth="yes"/>
      <point x="711.05" y="944.3"/>
      <point x="873.9" y="701.325"/>
      <point x="873.9" y="491.7" type="qcurve" smooth="yes"/>
      <point x="873.9" y="248.55000000000004"/>
      <point x="657.8499999999999" y="-20.0"/>
    </contour>
    <contour>
      <point x="474.4" y="209.1" type="qcurve" smooth="yes"/>
      <point x="537.4254310344828" y="209.1"/>
      <point x="571.9" y="275.2" type="qcurve" smooth="yes"/>
      <point x="608.0" y="341.1347107438015"/>
      <point x="608.0" y="472.0" type="qcurve" smooth="yes"/>
      <point x="608.0" y="592.5250000000001"/>
      <point x="544.0" y="724.9"/>
      <point x="480.1" y="724.9" type="qcurve" smooth="yes"/>
      <point x="416.2159151193634" y="724.9"/>
      <point x="380.2" y="662.9" type="qcurve" smooth="yes"/>
      <point x="362.95" y="634.625"/>
      <point x="343.1" y="554.575"/>
      <point x="343.1" y="523.3" type="qcurve" smooth="yes"/>
      <point x="343.1" y="438.475"/>
      <point x="361.4" y="315.17500000000007"/>
      <point x="379.4" y="287.2" type="qcurve"/>
      <point x="409.98787276341955" y="209.1"/>
    </contour>
  </outline>
</glyph>
<glyph name="eight" format="1">
  <advance width="948"/>
  <unicode hex="0038"/>
  <outline>
    <contour>
      <point x="468.9" y="-20.0" type="qcurve" smooth="yes"/>
      <point x="348.55000000000007" y="-20.0"/>
      <point x="170.1583333333333" y="70.47500000000002"/>
      <point x="72.0" y="243.85000000000002"/>
      <point x="72.0" y="368.2" type="qcurve" smooth="yes"/>
      <point x="72.0" y="496.82500000000005"/>
      <point x="178.45" y="689.0250000000001"/>
      <point x="291.1" y="762.0" type="qcurve"/>
      <point x="187.45" y="844.0500000000001"/>
      <point x="97.6" y="1014.9499999999999"/>
      <point x="97.6" y="1115.0" type="qcurve" smooth="yes"/>
      <point x="97.59999999999997" y="1228.7999999999997"/>
      <point x="194.79166666666666" y="1392.7833333333333"/>
      <point x="365.7499999999999" y="1480.9000000000005"/>
      <point x="476.4" y="1480.9" type="qcurve" smooth="yes"/>
      <point x="645.9" y="1480.9"/>
      <point x="849.9" y="1286.7749999999999"/>
      <point x="849.9" y="1119.0" type="qcurve" smooth="yes"/>
      <point x="849.9" y="1017.1499999999999"/>
      <point x="755.1000000000001" y="849.875"/>
      <point x="641.4" y="773.9" type="qcurve"/>
      <point x="754.125" y="693.425"/>
      <point x="877.4" y="506.57499999999993"/>
      <point x="877.4" y="382.3" type="qcurve" smooth="yes"/>
      <point x="877.4" y="261.35"/>
      <point x="778.6916666666666" y="80.35833333333335"/>
      <point x="595.5500000000001" y="-20.0"/>
    </contour>
    <contour>
      <point x="474.2" y="193.2" type="qcurve" smooth="yes"/>
      <point x="544.25" y="193.2"/>
      <point x="617.6" y="296.72499999999997"/>
      <point x="617.6" y="388.0" type="qcurve" smooth="yes"/>
      <point x="617.6" y="432.70000000000005"/>
      <point x="587.25" y="512.4833333333333"/>
      <point x="519.1" y="596.1999999999999"/>
      <point x="462.4" y="646.8" type="qcurve"/>
      <point x="395.20000000000005" y="596.6249999999999"/>
      <point x="330.1" y="473.975"/>
      <point x="330.1" y="380.9" type="qcurve" smooth="yes"/>
      <point x="330.1" y="297.425"/>
      <point x="401.375" y="193.2"/>
    </contour>
    <contour>
      <point x="475.1" y="890.3" type="qcurve"/>
      <point x="541.325" y="941.9000000000001"/>
      <point x="589.3" y="1043.9500000000003"/>
      <point x="589.3" y="1106.8" type="qcurve" smooth="yes"/>
      <point x="589.3" y="1189.0"/>
      <point x="532.275" y="1269.8"/>
      <point x="473.7" y="1269.8" type="qcurve" smooth="yes"/>
      <point x="416.7" y="1269.8"/>
      <point x="358.2" y="1188.825"/>
      <point x="358.2" y="1108.2" type="qcurve" smooth="yes"/>
      <point x="358.2" y="1065.25"/>
      <point x="378.23333333333323" y="994.0416666666665"/>
      <point x="428.9999999999999" y="927.0000000000002"/>
    </contour>
  </outline>
</glyph>
<glyph name="nine" format="1">
  <advance width="948"/>
  <unicode hex="0039"/>
  <outline>
    <contour>
      <point x="290.8" y="-20.0" type="qcurve" smooth="yes"/>
      <point x="255.62500000000003" y="-20.0"/>
      <point x="174.40000000000003" y="-12.024999999999999"/>
      <point x="147.1" y="-4.3" type="qcurve"/>
      <point x="147.1" y="225.4" type="line"/>
      <point x="183.77500000000003" y="213.4"/>
      <point x="243.87500000000003" y="203.5"/>
      <point x="281.3" y="203.5" type="qcurve" smooth="yes"/>
      <point x="441.2750000000001" y="203.5"/>
      <point x="615.025" y="438.275"/>
      <point x="623.2" y="683.9" type="qcurve"/>
      <point x="614.5" y="683.9" type="line"/>
      <point x="580.75" y="604.4750000000001"/>
      <point x="464.67499999999995" y="515.6"/>
      <point x="378.5" y="515.6" type="qcurve" smooth="yes"/>
      <point x="233.375" y="515.6"/>
      <point x="68.0" y="759.25"/>
      <point x="68.0" y="968.5" type="qcurve" smooth="yes"/>
      <point x="68.0" y="1128.6999999999998"/>
      <point x="165.6916666666666" y="1358.1999999999998"/>
      <point x="344.75" y="1480.9000000000005"/>
      <point x="466.8" y="1480.9" type="qcurve" smooth="yes"/>
      <point x="609.75" y="1480.9"/>
      <point x="799.3000000000001" y="1295.95"/>
      <point x="839.5" y="1111.6" type="qcurve" smooth="yes"/>
      <point x="853.1500000000001" y="1046.65"/>
      <point x="867.8" y="893.9750000000001"/>
      <point x="867.8" y="806.9" type="qcurve" smooth="yes"/>
      <point x="867.8" y="532.7"/>
      <point x="740.0749999999999" y="169.45000000000002"/>
      <point x="614.0" y="77.5" type="qcurve" smooth="yes"/>
      <point x="484.69999999999993" y="-20.0"/>
    </contour>
    <contour>
      <point x="455.5" y="734.3" type="qcurve" smooth="yes"/>
      <point x="495.625" y="734.3"/>
      <point x="555.7249999999999" y="789.725"/>
      <point x="573.5" y="829.1" type="qcurve" smooth="yes"/>
      <point x="586.0999999999999" y="856.9250000000002"/>
      <point x="599.5" y="912.6250000000001"/>
      <point x="599.5" y="933.7" type="qcurve" smooth="yes"/>
      <point x="599.5" y="1045.825"/>
      <point x="564.7" y="1172.3249999999998"/>
      <point x="535.6" y="1209.9" type="qcurve" smooth="yes"/>
      <point x="521.575" y="1227.525"/>
      <point x="488.7249999999999" y="1249.0"/>
      <point x="465.7" y="1249.0" type="qcurve" smooth="yes"/>
      <point x="436.5999999999999" y="1249.0"/>
      <point x="384.5" y="1215.0"/>
      <point x="369.5" y="1183.8" type="qcurve"/>
      <point x="351.34999999999997" y="1152.675"/>
      <point x="333.9" y="1043.6749999999997"/>
      <point x="333.9" y="987.2" type="qcurve" smooth="yes"/>
      <point x="333.9" y="865.6250000000001"/>
      <point x="395.27500000000003" y="734.3"/>
    </contour>
  </outline>
</glyph>
<glyph name="semicolon" format="1">
  <advance width="553"/>
  <unicode hex="003B"/>
  <note>
semicolon
</note>
  <outline>
    <contour>
      <point x="51.4" y="-264" type="line"/>
      <point x="72.55" y="-175.14999999999998"/>
      <point x="109.37499999999999" y="-4.133333333333319"/>
      <point x="140.1" y="159.74999999999997"/>
      <point x="152.1" y="237.9" type="qcurve"/>
      <point x="416.2" y="237.9" type="line"/>
      <point x="430.2" y="214.9" type="line"/>
      <point x="404.025" y="113.425"/>
      <point x="316.55000000000007" y="-125.39999999999998"/>
      <point x="253.7" y="-264" type="qcurve"/>
    </contour>
    <contour>
      <point x="276.1" y="808.9" type="qcurve" smooth="yes"/>
      <point x="195.10000000000002" y="808.9"/>
      <point x="110.6" y="895.2"/>
      <point x="110.6" y="972.6" type="qcurve" smooth="yes"/>
      <point x="110.6" y="1051.0500000000002"/>
      <point x="194.575" y="1137.4"/>
      <point x="276.1" y="1137.4" type="qcurve" smooth="yes"/>
      <point x="357.62500000000006" y="1137.4"/>
      <point x="442.3" y="1051.575"/>
      <point x="442.3" y="972.6" type="qcurve" smooth="yes"/>
      <point x="442.3" y="895.125"/>
      <point x="355.075" y="808.9"/>
    </contour>
  </outline>
</glyph>
<glyph name="question" format="1">
  <advance width="782"/>
  <unicode hex="003F"/>
  <note>
question
</note>
  <outline>
    <contour>
      <point x="219.4" y="470.6" type="line"/>
      <point x="219.4" y="541.2" type="line" smooth="yes"/>
      <point x="219.4" y="588.85"/>
      <point x="237.575" y="685.3999999999999"/>
      <point x="284.45000000000005" y="783.95"/>
      <point x="327.5" y="834.6" type="qcurve" smooth="yes"/>
      <point x="337.40000000000003" y="847.0500000000002"/>
      <point x="358.6" y="871.125"/>
      <point x="369.4" y="882.9" type="qcurve" smooth="yes"/>
      <point x="417.29999999999995" y="932.9500000000002"/>
      <point x="460.26666666666665" y="1006.7333333333333"/>
      <point x="471.3" y="1076.05"/>
      <point x="471.3" y="1119.4" type="qcurve" smooth="yes"/>
      <point x="471.3" y="1174.7500000000002"/>
      <point x="407.70000000000005" y="1253.0"/>
      <point x="351.0" y="1253.0" type="qcurve" smooth="yes"/>
      <point x="290.84999999999997" y="1253.0"/>
      <point x="178.725" y="1214.45"/>
      <point x="119.1" y="1176.2" type="qcurve"/>
      <point x="24.5" y="1376.1" type="line"/>
      <point x="103.92500000000001" y="1429.1249999999998"/>
      <point x="277.675" y="1483.0"/>
      <point x="374.8" y="1483.0" type="qcurve" smooth="yes"/>
      <point x="483.70000000000005" y="1483.0"/>
      <point x="642.55" y="1398.1833333333334"/>
      <point x="728.7999999999997" y="1250.5"/>
      <point x="728.8" y="1156.2" type="qcurve" smooth="yes"/>
      <point x="728.8" y="1096.3485"/>
      <point x="718.1250000000001" y="997.225"/>
      <point x="698.7" y="949.6" type="qcurve" smooth="yes"/>
      <point x="680.4" y="905.0500000000002"/>
      <point x="613.575" y="810.225"/>
      <point x="558.6" y="752.1" type="qcurve" smooth="yes"/>
      <point x="525.6750000000002" y="716.625"/>
      <point x="484.67500000000007" y="660.9250000000002"/>
      <point x="473.2" y="634.6" type="qcurve" smooth="yes"/>
      <point x="461.275" y="608.875"/>
      <point x="454.4" y="560.625"/>
      <point x="454.4" y="532.5" type="qcurve" smooth="yes"/>
      <point x="454.4" y="470.6" type="line"/>
    </contour>
    <contour>
      <point x="338.7" y="-27.2" type="qcurve" smooth="yes"/>
      <point x="258.45" y="-27.2"/>
      <point x="172.8" y="58.275000000000006"/>
      <point x="172.8" y="136.2" type="qcurve" smooth="yes"/>
      <point x="172.8" y="215.175"/>
      <point x="256.35" y="300.6"/>
      <point x="338.7" y="300.6" type="qcurve" smooth="yes"/>
      <point x="420.30000000000007" y="300.6"/>
      <point x="503.5" y="213.825"/>
      <point x="503.5" y="136.2" type="qcurve" smooth="yes"/>
      <point x="503.5" y="61.349999999999994"/>
      <point x="418.2" y="-27.2"/>
    </contour>
  </outline>
</glyph>
<glyph name="at" format="1">
  <advance width="1485"/>
  <unicode hex="0040"/>
  <note>
at
</note>
  <outline>
    <contour>
      <point x="738.0" y="-168.1" type="qcurve" smooth="yes"/>
      <point x="523.2" y="-168.1"/>
      <point x="226.94999999999993" y="25.51666666666666"/>
      <point x="73.9" y="370.19999999999993"/>
      <point x="73.9" y="596.8" type="qcurve" smooth="yes"/>
      <point x="73.9" y="780.0250000000001"/>
      <point x="170.0526041666667" y="1099.6312499999997"/>
      <point x="354.97239583333345" y="1341.5187500000004"/>
      <point x="622.0124999999998" y="1477.9"/>
      <point x="792.9" y="1477.9" type="qcurve" smooth="yes"/>
      <point x="998.35" y="1477.9000000000005"/>
      <point x="1273.0083333333332" y="1296.3416666666667"/>
      <point x="1410.7" y="970.1500000000001"/>
      <point x="1410.7" y="753.2" type="qcurve" smooth="yes"/>
      <point x="1410.7" y="504.8750000000001"/>
      <point x="1245.875" y="231.0"/>
      <point x="1104.5" y="231.0" type="qcurve" smooth="yes"/>
      <point x="1023.3500000000001" y="231.0"/>
      <point x="924.2" y="311.175"/>
      <point x="908.3" y="370.8" type="qcurve"/>
      <point x="901.4" y="370.8" type="line"/>
      <point x="862.1000000000001" y="307.425"/>
      <point x="763.6750000000002" y="231.0"/>
      <point x="685.6" y="231.0" type="qcurve" smooth="yes"/>
      <point x="570.5500000000002" y="231.0"/>
      <point x="429.9" y="414.59999999999997"/>
      <point x="429.9" y="598.5" type="qcurve" smooth="yes"/>
      <point x="429.9" y="820.0500000000001"/>
      <point x="620.325" y="1093.9"/>
      <point x="798.3" y="1093.9" type="qcurve" smooth="yes"/>
      <point x="849.3749999999999" y="1093.9"/>
      <point x="981.1" y="1072.6750000000002"/>
      <point x="1049.8" y="1051.6" type="qcurve"/>
      <point x="1027.7" y="585.1" type="line"/>
      <point x="1027.7" y="575.875"/>
      <point x="1027.7" y="556.425"/>
      <point x="1027.7" y="547.2" type="qcurve" smooth="yes"/>
      <point x="1027.7" y="466.10000000000014"/>
      <point x="1046.3" y="434.0" type="qcurve" smooth="yes"/>
      <point x="1064.0772511848343" y="403.0"/>
      <point x="1098.9" y="403.0" type="qcurve" smooth="yes"/>
      <point x="1142.0500000000002" y="403.0"/>
      <point x="1189.2583333333334" y="514.8666666666666"/>
      <point x="1207.7" y="675.8000000000001"/>
      <point x="1207.7" y="749.4" type="qcurve" smooth="yes"/>
      <point x="1207.7" y="909.7499999999998"/>
      <point x="1121.7583333333332" y="1157.275"/>
      <point x="937.85" y="1297.9"/>
      <point x="790.9" y="1297.9" type="qcurve" smooth="yes"/>
      <point x="664.6374999999998" y="1297.9"/>
      <point x="473.2651041666668" y="1186.3114583333333"/>
      <point x="344.40989583333334" y="992.7385416666668"/>
      <point x="279.3" y="743.8249999999999"/>
      <point x="279.3" y="606.5" type="qcurve" smooth="yes"/>
      <point x="279.3" y="325.92499999999995"/>
      <point x="522.0249999999999" y="12.4"/>
      <point x="742.6" y="12.4" type="qcurve" smooth="yes"/>
      <point x="918.180944350759" y="12.4"/>
      <point x="1104.1" y="102.4" type="qcurve"/>
      <point x="1104.1" y="-80.5" type="line"/>
      <point x="938.783076923077" y="-168.1"/>
    </contour>
    <contour>
      <point x="726.7" y="403.0" type="qcurve" smooth="yes"/>
      <point x="752.8750000000001" y="403.0"/>
      <point x="787.9250000000002" y="440.72499999999997"/>
      <point x="799.1" y="472.0" type="qcurve" smooth="yes"/>
      <point x="810.2749999999999" y="503.27500000000003"/>
      <point x="827.7249999999999" y="608.925"/>
      <point x="831.7" y="682.8" type="qcurve" smooth="yes"/>
      <point x="844.2" y="911.5" type="line"/>
      <point x="818.55" y="922.3"/>
      <point x="782.7" y="922.3" type="qcurve" smooth="yes"/>
      <point x="724.4867549668874" y="922.3"/>
      <point x="686.5" y="850.3" type="qcurve" smooth="yes"/>
      <point x="663.625" y="808.975"/>
      <point x="637.4" y="684.9999999999999"/>
      <point x="637.4" y="604.3" type="qcurve" smooth="yes"/>
      <point x="637.4" y="506.8418750000001"/>
      <point x="660.5" y="455.3" type="qcurve" smooth="yes"/>
      <point x="682.7918032786886" y="403.0"/>
    </contour>
  </outline>
</glyph>
<glyph name="A" format="1">
  <advance width="1094"/>
  <unicode hex="0041"/>
  <outline>
    <contour>
      <point x="1093.7" y="0" type="line"/>
      <point x="821.5" y="0" type="line"/>
      <point x="737.3" y="369.7" type="line"/>
      <point x="356.4" y="369.7" type="line"/>
      <point x="271.4" y="0" type="line"/>
      <point x="0" y="0" type="line"/>
      <point x="362.5" y="1468.3" type="line"/>
      <point x="730.9" y="1468.3" type="line"/>
    </contour>
    <contour>
      <point x="410.4" y="609.4" type="qcurve"/>
      <point x="685.6" y="609.4" type="line"/>
      <point x="607.7" y="950.0" type="line" smooth="yes"/>
      <point x="605.06" y="962.4200000000001"/>
      <point x="591.9287999999999" y="1028.1249000000003"/>
      <point x="575.356" y="1112.9170000000001"/>
      <point x="559.3352000000001" y="1197.0731"/>
      <point x="547.8600000000001" y="1260.87"/>
      <point x="546.6" y="1271.7" type="qcurve"/>
      <point x="533.1750000000002" y="1186.7250000000004"/>
      <point x="518.9" y="1103.9250000000002"/>
      <point x="514.4" y="1083.0" type="qcurve" smooth="yes"/>
      <point x="498.65" y="1005.8249999999999"/>
      <point x="449.24999999999994" y="781.0749999999998"/>
    </contour>
    <contour>
      <point x="547" y="0" type="move" name="bottom"/>
    </contour>
    <contour>
      <point x="1015.5" y="10" type="move" name="ogonek"/>
    </contour>
    <contour>
      <point x="547" y="1462" type="move" name="top"/>
    </contour>
  </outline>
</glyph>
<glyph name="B" format="1">
  <advance width="1038"/>
  <unicode hex="0042"/>
  <outline>
    <contour>
      <point x="128.5" y="0" type="line"/>
      <point x="128.5" y="1462" type="line"/>
      <point x="502.3" y="1462.0" type="line" smooth="yes"/>
      <point x="729.6999999999999" y="1462.0"/>
      <point x="938.4" y="1284.8749999999998"/>
      <point x="938.4" y="1091.6" type="qcurve" smooth="yes"/>
      <point x="938.4" y="965.675"/>
      <point x="828.4000000000001" y="794.1750000000002"/>
      <point x="733.3" y="776.1" type="qcurve"/>
      <point x="733.3" y="766.0" type="line"/>
      <point x="856.975" y="735.0250000000001"/>
      <point x="967.0" y="564.8"/>
      <point x="967.0" y="424.4" type="qcurve" smooth="yes"/>
      <point x="967.0" y="226.02499999999998"/>
      <point x="754.5999999999999" y="0.0"/>
      <point x="569.5" y="0" type="qcurve" smooth="yes"/>
    </contour>
    <contour>
      <point x="385.4" y="1227.1" type="line"/>
      <point x="385.4" y="874" type="line"/>
      <point x="509.9" y="874.0" type="line" smooth="yes"/>
      <point x="596.2250000000001" y="874.0"/>
      <point x="665.9" y="966.45"/>
      <point x="665.9" y="1057.2" type="qcurve" smooth="yes"/>
      <point x="665.9" y="1147.875"/>
      <point x="586.3499999999999" y="1227.1"/>
      <point x="499.5" y="1227.1" type="qcurve" smooth="yes"/>
    </contour>
    <contour>
      <point x="518" y="646.8" type="qcurve" smooth="yes"/>
      <point x="385.4" y="646.8" type="line"/>
      <point x="385.4" y="237.7" type="line"/>
      <point x="521.5" y="237.7" type="line" smooth="yes"/>
      <point x="690.0" y="237.7"/>
      <point x="690.0" y="450.9" type="qcurve" smooth="yes"/>
      <point x="690.0" y="548.8500000000001"/>
      <point x="604.7750000000001" y="646.8"/>
    </contour>
    <contour>
      <point x="519.1" y="0" type="move" name="bottom"/>
    </contour>
    <contour>
      <point x="519.1" y="1462" type="move" name="top"/>
    </contour>
  </outline>
</glyph>
<glyph name="C" format="1">
  <advance width="948"/>
  <unicode hex="0043"/>
  <outline>
    <contour>
      <point x="616.4" y="1245.4" type="qcurve" smooth="yes"/>
      <point x="497.6000000000001" y="1245.4"/>
      <point x="361.4" y="973.0500000000002"/>
      <point x="361.4" y="717.6" type="qcurve" smooth="yes"/>
      <point x="361.4" y="574.875"/>
      <point x="410.80000000000007" y="357.45"/>
      <point x="461.2" y="296.1" type="qcurve" smooth="yes"/>
      <point x="522.7779960707269" y="218.9"/>
      <point x="628.2" y="218.9" type="qcurve" smooth="yes"/>
      <point x="689.925" y="218.9"/>
      <point x="812.7" y="259.94999999999993"/>
      <point x="869.7" y="292.8" type="qcurve"/>
      <point x="869.7" y="50.9" type="line"/>
      <point x="816.525" y="14.75"/>
      <point x="675.075" y="-20.0"/>
      <point x="598.2" y="-20.0" type="qcurve" smooth="yes"/>
      <point x="434.25" y="-20.0"/>
      <point x="197.7" y="159.3"/>
      <point x="138.6" y="338.7" type="qcurve" smooth="yes"/>
      <point x="84.4" y="502.9607242339833"/>
      <point x="84.4" y="728.0" type="qcurve" smooth="yes"/>
      <point x="84.4" y="1084.5500000000002"/>
      <point x="356.42499999999995" y="1482.9"/>
      <point x="601.6" y="1482.9" type="qcurve" smooth="yes"/>
      <point x="678.85" y="1482.9"/>
      <point x="826.125" y="1438.875"/>
      <point x="910.5" y="1384.5" type="qcurve"/>
      <point x="820.7" y="1162.7" type="line"/>
      <point x="788.15" y="1186.025"/>
      <point x="677.0" y="1245.4"/>
    </contour>
    <contour>
      <point x="420.9" y="0" type="move" name="bottom"/>
    </contour>
    <contour>
      <point x="350.2" y="1462" type="move" name="top"/>
    </contour>
  </outline>
</glyph>
<glyph name="D" format="1">
  <advance width="1143"/>
  <unicode hex="0044"/>
  <outline>
    <contour>
      <point x="1059.3" y="745.0" type="qcurve" smooth="yes"/>
      <point x="1059.3" y="382.75"/>
      <point x="764.325" y="0.0"/>
      <point x="487.2" y="0" type="qcurve" smooth="yes"/>
      <point x="128.5" y="0" type="line"/>
      <point x="128.5" y="1462" type="line"/>
      <point x="520.5" y="1462.0" type="line" smooth="yes"/>
      <point x="690.25" y="1462.0"/>
      <point x="931.3583333333332" y="1291.9166666666665"/>
      <point x="1059.3" y="971.0999999999999"/>
    </contour>
    <contour>
      <point x="779.9" y="736.9" type="qcurve" smooth="yes"/>
      <point x="779.9" y="982.375"/>
      <point x="645.4250000000001" y="1227.1"/>
      <point x="510.2" y="1227.1" type="qcurve" smooth="yes"/>
      <point x="400.8" y="1227.1" type="line"/>
      <point x="400.8" y="237.7" type="line"/>
      <point x="488.9" y="237.7" type="line" smooth="yes"/>
      <point x="638.2250000000001" y="237.7"/>
      <point x="779.9" y="487.37499999999994"/>
    </contour>
    <contour>
      <point x="572.2" y="0" type="move" name="bottom"/>
    </contour>
    <contour>
      <point x="572.2" y="731" type="move" name="center"/>
    </contour>
    <contour>
      <point x="572.2" y="1462" type="move" name="top"/>
    </contour>
  </outline>
</glyph>
<glyph name="E" format="1">
  <advance width="872"/>
  <unicode hex="0045"/>
  <outline>
    <contour>
      <point x="788" y="238.2" type="line"/>
      <point x="788" y="0" type="line"/>
      <point x="128.5" y="0" type="line"/>
      <point x="128.5" y="1462" type="line"/>
      <point x="788" y="1462" type="line"/>
      <point x="788" y="1226.6" type="line"/>
      <point x="400.8" y="1226.6" type="line"/>
      <point x="400.8" y="878.8" type="line"/>
      <point x="760.5" y="878.8" type="line"/>
      <point x="760.5" y="642.7" type="line"/>
      <point x="400.8" y="642.7" type="line"/>
      <point x="400.8" y="238.2" type="line"/>
    </contour>
    <contour>
      <point x="436" y="0" type="move" name="bottom"/>
    </contour>
    <contour>
      <point x="783.9" y="10" type="move" name="ogonek"/>
    </contour>
    <contour>
      <point x="436" y="1462" type="move" name="top"/>
    </contour>
    <contour>
      <point x="20" y="1462" type="move" name="topleft"/>
    </contour>
  </outline>
</glyph>
<glyph name="F" format="1">
  <advance width="838"/>
  <unicode hex="0046"/>
  <outline>
    <contour>
      <point x="399.4" y="585.8" type="line"/>
      <point x="399.4" y="0" type="line"/>
      <point x="128.5" y="0" type="line"/>
      <point x="128.5" y="1462" type="line"/>
      <point x="783.7" y="1462" type="line"/>
      <point x="783.7" y="1226.6" type="line"/>
      <point x="399.4" y="1226.6" type="line"/>
      <point x="399.4" y="821.5" type="line"/>
      <point x="757.6" y="821.5" type="line"/>
      <point x="757.6" y="585.8" type="line"/>
    </contour>
    <contour>
      <point x="418.9" y="0" type="move" name="bottom"/>
    </contour>
    <contour>
      <point x="418.9" y="1462" type="move" name="top"/>
    </contour>
  </outline>
</glyph>
<glyph name="G" format="1">
  <advance width="1112"/>
  <unicode hex="0047"/>
  <outline>
    <contour>
      <point x="625.9" y="-20.0" type="qcurve" smooth="yes"/>
      <point x="361.975" y="-20.0"/>
      <point x="84.4" y="364.15"/>
      <point x="84.4" y="712.6" type="qcurve" smooth="yes"/>
      <point x="84.4" y="971.6499999999999"/>
      <point x="238.75000000000006" y="1323.3999999999999"/>
      <point x="382.6" y="1408.0" type="qcurve" smooth="yes"/>
      <point x="444.54999999999995" y="1445.1999999999998"/>
      <point x="593.475" y="1483.0"/>
      <point x="678.6" y="1483.0" type="qcurve" smooth="yes"/>
      <point x="770.7749999999999" y="1483.0"/>
      <point x="936.125" y="1438.525"/>
      <point x="1015.4" y="1393.9" type="qcurve"/>
      <point x="929.9" y="1170.7" type="line"/>
      <point x="805.8063917525775" y="1243.3"/>
      <point x="698.2" y="1243.3" type="qcurve" smooth="yes"/>
      <point x="594.5999999999999" y="1243.3"/>
      <point x="443.76666666666665" y="1121.5666666666666"/>
      <point x="362.0" y="880.5"/>
      <point x="362.0" y="701.5" type="qcurve" smooth="yes"/>
      <point x="362.0" y="483.32499999999993"/>
      <point x="493.27500000000003" y="218.9"/>
      <point x="619.5" y="218.9" type="qcurve" smooth="yes"/>
      <point x="650.9250000000001" y="218.9"/>
      <point x="718.35" y="227.35"/>
      <point x="752.1" y="235.6" type="qcurve"/>
      <point x="752.1" y="571.6" type="line"/>
      <point x="571" y="571.6" type="line"/>
      <point x="571" y="811.2" type="line"/>
      <point x="1017.7" y="811.2" type="line"/>
      <point x="1017.7" y="61.8" type="line"/>
      <point x="921.8499999999999" y="20.1"/>
      <point x="715.375" y="-20.0"/>
    </contour>
    <contour>
      <point x="579.2" y="0" type="move" name="bottom"/>
    </contour>
    <contour>
      <point x="683.5" y="1462" type="move" name="top"/>
    </contour>
  </outline>
</glyph>
<glyph name="K" format="1">
  <advance width="1040"/>
  <unicode hex="004B"/>
  <outline>
    <contour>
      <point x="698.1" y="829.5" type="line"/>
      <point x="1040.6" y="0" type="line"/>
      <point x="750" y="0" type="line"/>
      <point x="510.3" y="625.4" type="line"/>
      <point x="400.8" y="515.6" type="line"/>
      <point x="400.8" y="0" type="line"/>
      <point x="128.5" y="0" type="line"/>
      <point x="128.5" y="1462" type="line"/>
      <point x="400.8" y="1462" type="line"/>
      <point x="400.8" y="737.7" type="line"/>
      <point x="425.0250000000001" y="791.775"/>
      <point x="473.1" y="901.0999999999999"/>
      <point x="495.9" y="956" type="qcurve"/>
      <point x="745.3" y="1462" type="line"/>
      <point x="1036.4" y="1462" type="line"/>
    </contour>
    <contour>
      <point x="520.1" y="0" type="move" name="bottom"/>
    </contour>
    <contour>
      <point x="520.1" y="1462" type="move" name="top"/>
    </contour>
  </outline>
</glyph>
<glyph name="M" format="1">
  <advance width="1606"/>
  <unicode hex="004D"/>
  <outline>
    <contour>
      <point x="128.5" y="0" type="line"/>
      <point x="128.5" y="1462" type="line"/>
      <point x="547.2" y="1462" type="line"/>
      <point x="742.2" y="567.3" type="line" smooth="yes"/>
      <point x="756.075" y="503.0250000000001"/>
      <point x="783.5249999999999" y="376.5"/>
      <point x="797.1" y="313.2" type="qcurve"/>
      <point x="805.1" y="313.2" type="line"/>
      <point x="818.225" y="372.0"/>
      <point x="846.2750000000001" y="498.3750000000001"/>
      <point x="861.5" y="566.7" type="qcurve" smooth="yes"/>
      <point x="1055.6" y="1462" type="line"/>
      <point x="1475.8" y="1462" type="line"/>
      <point x="1475.8" y="0" type="line"/>
      <point x="1221.7" y="0" type="line"/>
      <point x="1221.7" y="979.3" type="line" smooth="yes"/>
      <point x="1221.7" y="1019.4"/>
      <point x="1226.0" y="1105.2583333333334"/>
      <point x="1234.5000000000002" y="1196.35"/>
      <point x="1240.8" y="1244.3" type="qcurve"/>
      <point x="1230" y="1244.3" type="line"/>
      <point x="952.2" y="0" type="line"/>
      <point x="651.5" y="0" type="line"/>
      <point x="373.1" y="1244.9" type="line"/>
      <point x="362.3" y="1244.9" type="line"/>
      <point x="371.75" y="1172.975"/>
      <point x="381.4" y="1040.95"/>
      <point x="381.4" y="981.7" type="qcurve" smooth="yes"/>
      <point x="381.4" y="0" type="line"/>
    </contour>
    <contour>
      <point x="802.3" y="0" type="move" name="bottom"/>
    </contour>
    <contour>
      <point x="802.3" y="1462" type="move" name="top"/>
    </contour>
  </outline>
</glyph>
<glyph name="O" format="1">
  <advance width="1219"/>
  <unicode hex="004F"/>
  <outline>
    <contour>
      <point x="1134.6" y="733.0" type="qcurve" smooth="yes"/>
      <point x="1134.6" y="370.0"/>
      <point x="862.7500000000001" y="-20.0"/>
      <point x="609.7" y="-20.0" type="qcurve" smooth="yes"/>
      <point x="355.45000000000005" y="-20.0"/>
      <point x="84.4" y="368.54999999999995"/>
      <point x="84.4" y="735.0" type="qcurve" smooth="yes"/>
      <point x="84.4" y="1097.775"/>
      <point x="356.70000000000005" y="1485.1"/>
      <point x="612.0" y="1485.1" type="qcurve" smooth="yes"/>
      <point x="864.8249999999999" y="1485.1"/>
      <point x="1134.6" y="1095.85"/>
    </contour>
    <contour>
      <point x="361.4" y="733.0" type="qcurve" smooth="yes"/>
      <point x="361.4" y="482.875"/>
      <point x="487.82500000000005" y="221.0"/>
      <point x="609.7" y="221.0" type="qcurve" smooth="yes"/>
      <point x="856.9" y="221.0"/>
      <point x="856.9" y="733.0" type="qcurve" smooth="yes"/>
      <point x="856.9" y="1244.8"/>
      <point x="612.0" y="1244.8" type="qcurve" smooth="yes"/>
      <point x="488.55000000000007" y="1244.8"/>
      <point x="361.4" y="984.6999999999999"/>
    </contour>
    <contour>
      <point x="610" y="0" type="move" name="bottom"/>
    </contour>
    <contour>
      <point x="610" y="731" type="move" name="center"/>
    </contour>
    <contour>
      <point x="1097.3" y="10" type="move" name="ogonek"/>
    </contour>
    <contour>
      <point x="610" y="1462" type="move" name="top"/>
    </contour>
    <contour>
      <point x="166" y="1462" type="move" name="topleft"/>
    </contour>
    <contour>
      <point x="1199" y="1462" type="move" name="topright"/>
    </contour>
  </outline>
</glyph>
<glyph name="Q" format="1">
  <advance width="1219"/>
  <unicode hex="0051"/>
  <outline>
    <contour>
      <point x="826.8" y="-348" type="line"/>
      <point x="632.4" y="-18.8" type="line"/>
      <point x="628.05" y="-19.475"/>
      <point x="619.6500000000001" y="-20.0"/>
      <point x="615.3" y="-20.0" type="qcurve" smooth="yes"/>
      <point x="442.65" y="-19.65"/>
      <point x="205.97499999999997" y="154.67499999999998"/>
      <point x="84.4" y="489.30000000000007"/>
      <point x="84.4" y="730.1" type="qcurve" smooth="yes"/>
      <point x="84.4" y="974.4000000000001"/>
      <point x="205.49166666666662" y="1311.183333333333"/>
      <point x="440.75" y="1485.0999999999995"/>
      <point x="612.0" y="1485.1" type="qcurve" smooth="yes"/>
      <point x="780.2" y="1485.0999999999995"/>
      <point x="1013.4666666666666" y="1310.4583333333333"/>
      <point x="1134.6" y="975.2499999999999"/>
      <point x="1134.6" y="734.4" type="qcurve" smooth="yes"/>
      <point x="1134.6" y="481.7250000000001"/>
      <point x="1001.3999999999999" y="135.60000000000002"/>
      <point x="871.8" y="51.3" type="qcurve"/>
      <point x="1140.8" y="-348" type="line"/>
    </contour>
    <contour>
      <point x="611.8" y="221.0" type="qcurve" smooth="yes"/>
      <point x="733.3749999999999" y="221.0"/>
      <point x="856.9" y="478.12499999999994"/>
      <point x="856.9" y="734.4" type="qcurve" smooth="yes"/>
      <point x="856.9" y="988.8"/>
      <point x="734.275" y="1244.8"/>
      <point x="612.7" y="1244.8" type="qcurve" smooth="yes"/>
      <point x="488.7249999999999" y="1244.8"/>
      <point x="361.4" y="985.4"/>
      <point x="361.4" y="733.7" type="qcurve" smooth="yes"/>
      <point x="361.4" y="482.525"/>
      <point x="488.35" y="221.0"/>
    </contour>
    <contour>
      <point x="610" y="0" type="move" name="bottom"/>
    </contour>
    <contour>
      <point x="610" y="1462" type="move" name="top"/>
    </contour>
  </outline>
</glyph>
<glyph name="S" format="1">
  <advance width="846"/>
  <unicode hex="0053"/>
  <outline>
    <contour>
      <point x="384.5" y="-20.0" type="qcurve" smooth="yes"/>
      <point x="329.54999999999995" y="-20.0"/>
      <point x="216.44166666666666" y="-3.5583333333333327"/>
      <point x="111.10000000000001" y="29.65"/>
      <point x="67.8" y="54.8" type="qcurve"/>
      <point x="67.8" y="323.9" type="line"/>
      <point x="146.85000000000002" y="272.37499999999994"/>
      <point x="299.6" y="216.8"/>
      <point x="365.6" y="216.8" type="qcurve" smooth="yes"/>
      <point x="445.7" y="216.8"/>
      <point x="525.7" y="300.675"/>
      <point x="525.7" y="373.8" type="qcurve" smooth="yes"/>
      <point x="525.7" y="434.85"/>
      <point x="471.62500000000006" y="529.3416666666665"/>
      <point x="380.05" y="608.0"/>
      <point x="323.8" y="645.3" type="qcurve" smooth="yes"/>
      <point x="261.925" y="685.95"/>
      <point x="143.70000000000002" y="795.675"/>
      <point x="106.8" y="902.7" type="qcurve" smooth="yes"/>
      <point x="79.8" y="981.45"/>
      <point x="79.8" y="1071.3" type="qcurve" smooth="yes"/>
      <point x="79.8" y="1265.0249999999996"/>
      <point x="284.45000000000005" y="1483.0"/>
      <point x="468.5" y="1483.0" type="qcurve" smooth="yes"/>
      <point x="550.1750000000001" y="1483.0"/>
      <point x="713.325" y="1434.9"/>
      <point x="788.1" y="1388.7" type="qcurve"/>
      <point x="698.3" y="1171.5" type="line"/>
      <point x="677.75" y="1183.5"/>
      <point x="609.9166666666666" y="1217.35"/>
      <point x="529.9499999999999" y="1243.2"/>
      <point x="491.2" y="1243.2" type="qcurve" smooth="yes"/>
      <point x="418.9" y="1243.2"/>
      <point x="348.3" y="1156.525"/>
      <point x="348.3" y="1084.6" type="qcurve" smooth="yes"/>
      <point x="348.3" y="1047.4"/>
      <point x="367.37499999999994" y="986.1750000000002"/>
      <point x="384.4" y="960.6" type="qcurve" smooth="yes"/>
      <point x="411.55" y="918.825"/>
      <point x="492.925" y="856.15"/>
      <point x="538.9" y="826.9" type="qcurve" smooth="yes"/>
      <point x="611.2" y="778.5999999999999"/>
      <point x="727.3" y="669.0833333333333"/>
      <point x="795.2000000000003" y="513.3"/>
      <point x="795.2" y="395.6" type="qcurve"/>
      <point x="795.2000000000003" y="264.90000000000003"/>
      <point x="703.7666666666667" y="78.88333333333333"/>
      <point x="521.2" y="-20.0"/>
    </contour>
    <contour>
      <point x="423.2" y="0" type="move" name="bottom"/>
    </contour>
    <contour>
      <point x="423.2" y="1462" type="move" name="top"/>
    </contour>
  </outline>
</glyph>
<glyph name="T" format="1">
  <advance width="885"/>
  <unicode hex="0054"/>
  <outline>
    <contour>
      <point x="578" y="1223.1" type="line"/>
      <point x="578" y="0" type="line"/>
      <point x="307.1" y="0" type="line"/>
      <point x="307.1" y="1223.1" type="line"/>
      <point x="27.3" y="1223.1" type="line"/>
      <point x="27.3" y="1462" type="line"/>
      <point x="857.8" y="1462" type="line"/>
      <point x="857.8" y="1223.1" type="line"/>
    </contour>
    <contour>
      <point x="438.6" y="0" type="move" name="bottom"/>
    </contour>
    <contour>
      <point x="442.8" y="731" type="move" name="center"/>
    </contour>
    <contour>
      <point x="442.8" y="1462" type="move" name="top"/>
    </contour>
  </outline>
</glyph>
<glyph name="U" format="1">
  <advance width="1151"/>
  <unicode hex="0055"/>
  <outline>
    <contour>
      <point x="568.8" y="-20.0" type="qcurve" smooth="yes"/>
      <point x="351.375" y="-20.0"/>
      <point x="123.2" y="253.25"/>
      <point x="123.2" y="519.8" type="qcurve" smooth="yes"/>
      <point x="123.2" y="1462" type="line"/>
      <point x="393" y="1462" type="line"/>
      <point x="393.0" y="500.1" type="line" smooth="yes"/>
      <point x="393.0" y="360.225"/>
      <point x="485.8" y="221.0"/>
      <point x="577.9" y="221.0" type="qcurve" smooth="yes"/>
      <point x="664.0" y="221.0"/>
      <point x="757.6" y="362.87500000000006"/>
      <point x="757.6" y="493.6" type="qcurve" smooth="yes"/>
      <point x="757.6" y="1462" type="line"/>
      <point x="1027.8" y="1462" type="line"/>
      <point x="1027.8" y="516.3" type="line" smooth="yes"/>
      <point x="1027.8" y="255.14999999999998"/>
      <point x="791.9999999999999" y="-20.0"/>
    </contour>
    <contour>
      <point x="576" y="0" type="move" name="bottom"/>
    </contour>
    <contour>
      <point x="1035.6" y="10" type="move" name="ogonek"/>
    </contour>
    <contour>
      <point x="576" y="1462" type="move" name="top"/>
    </contour>
    <contour>
      <point x="1131.3" y="1462" type="move" name="topright"/>
    </contour>
  </outline>
</glyph>
<glyph name="V" format="1">
  <advance width="1032"/>
  <unicode hex="0056"/>
  <outline>
    <contour>
      <point x="341.9" y="0" type="line"/>
      <point x="0" y="1462" type="line"/>
      <point x="274.2" y="1462" type="line"/>
      <point x="465.3" y="569.1" type="line" smooth="yes"/>
      <point x="475.5" y="523.8"/>
      <point x="505.525" y="333.975"/>
      <point x="516.1" y="242.1" type="qcurve"/>
      <point x="525.9250000000002" y="326.1"/>
      <point x="553.475" y="491.025"/>
      <point x="569.3" y="569.4" type="qcurve" smooth="yes"/>
      <point x="757.5" y="1462" type="line"/>
      <point x="1032.1" y="1462" type="line"/>
      <point x="688.2" y="0" type="line"/>
    </contour>
    <contour>
      <point x="515.5" y="0" type="move" name="bottom"/>
    </contour>
    <contour>
      <point x="515.5" y="1462" type="move" name="top"/>
    </contour>
  </outline>
</glyph>
<glyph name="W" format="1">
  <advance width="1622"/>
  <unicode hex="0057"/>
  <outline>
    <contour>
      <point x="282.7" y="0" type="line"/>
      <point x="18.4" y="1462" type="line"/>
      <point x="285.2" y="1462" type="line"/>
      <point x="416.3" y="636.3" type="line" smooth="yes"/>
      <point x="423.84999999999997" y="593.15"/>
      <point x="442.19999999999993" y="461.025"/>
      <point x="460.15000000000003" y="313.6"/>
      <point x="467.1" y="247.5" type="qcurve"/>
      <point x="474.30000000000007" y="323.58750000000003"/>
      <point x="486.32864583333327" y="437.9046875"/>
      <point x="497.24635416666666" y="525.7703124999999"/>
      <point x="508.1875" y="597.4499999999998"/>
      <point x="514.3" y="630.9" type="qcurve" smooth="yes"/>
      <point x="669.6" y="1462" type="line"/>
      <point x="952.1" y="1462" type="line"/>
      <point x="1106.4" y="630.7" type="line" smooth="yes"/>
      <point x="1119.2" y="561.55"/>
      <point x="1136.475" y="447.6083333333333"/>
      <point x="1149.8500000000001" y="326.3"/>
      <point x="1156.8" y="246.1" type="qcurve"/>
      <point x="1168.9500000000003" y="349.225"/>
      <point x="1195.875" y="556.425"/>
      <point x="1207.5" y="636.3" type="qcurve" smooth="yes"/>
      <point x="1335.1" y="1462" type="line"/>
      <point x="1604.5" y="1462" type="line"/>
      <point x="1341.1" y="0" type="line"/>
      <point x="1000.9" y="0" type="line"/>
      <point x="857.0" y="765.7" type="line" smooth="yes"/>
      <point x="848.3499999999999" y="813.2000000000002"/>
      <point x="830.2333333333333" y="931.5999999999999"/>
      <point x="815.0499999999998" y="1065.8"/>
      <point x="810.8" y="1137.0" type="qcurve"/>
      <point x="799.475" y="1035.8249999999998"/>
      <point x="775.4" y="840.325"/>
      <point x="761.9" y="762.1" type="qcurve" smooth="yes"/>
      <point x="623.4" y="0" type="line"/>
    </contour>
    <contour>
      <point x="810.7" y="0" type="move" name="bottom"/>
    </contour>
    <contour>
      <point x="810.7" y="1462" type="move" name="top"/>
    </contour>
  </outline>
</glyph>
<glyph name="X" format="1">
  <advance width="969"/>
  <unicode hex="0058"/>
  <outline>
    <contour>
      <point x="634.8" y="747.7" type="line"/>
      <point x="969.1" y="0" type="line"/>
      <point x="686.5" y="0" type="line"/>
      <point x="476.6" y="524.3" type="line"/>
      <point x="282.8" y="0" type="line"/>
      <point x="-0.3" y="0" type="line"/>
      <point x="334.4" y="759.2" type="line"/>
      <point x="25.2" y="1462" type="line"/>
      <point x="299" y="1462" type="line"/>
      <point x="492.2" y="981.4" type="line"/>
      <point x="659.1" y="1462" type="line"/>
      <point x="944.6" y="1462" type="line"/>
    </contour>
    <contour>
      <point x="485.4" y="0" type="move" name="bottom"/>
    </contour>
    <contour>
      <point x="485.4" y="1462" type="move" name="top"/>
    </contour>
  </outline>
</glyph>
<glyph name="Z" format="1">
  <advance width="877"/>
  <unicode hex="005A"/>
  <outline>
    <contour>
      <point x="834.4" y="238.2" type="line"/>
      <point x="834.4" y="0" type="line"/>
      <point x="43" y="0" type="line"/>
      <point x="43" y="189.5" type="line"/>
      <point x="510.4" y="1224.6" type="line"/>
      <point x="56.7" y="1224.6" type="line"/>
      <point x="56.7" y="1462" type="line"/>
      <point x="819.6" y="1462" type="line"/>
      <point x="819.6" y="1271.9" type="line"/>
      <point x="351.8" y="238.2" type="line"/>
    </contour>
    <contour>
      <point x="439.6" y="0" type="move" name="bottom"/>
    </contour>
    <contour>
      <point x="439.6" y="1462" type="move" name="top"/>
    </contour>
  </outline>
</glyph>
<glyph name="bracketleft" format="1">
  <advance width="649"/>
  <unicode hex="005B"/>
  <note>
bracketleft
</note>
  <outline>
    <contour>
      <point x="132.7" y="-324" type="line"/>
      <point x="132.7" y="1462" type="line"/>
      <point x="602.5" y="1462" type="line"/>
      <point x="602.5" y="1263.5" type="line"/>
      <point x="379.3" y="1263.5" type="line"/>
      <point x="379.3" y="-124.5" type="line"/>
      <point x="602.5" y="-124.5" type="line"/>
      <point x="602.5" y="-324" type="line"/>
    </contour>
  </outline>
</glyph>
<glyph name="a" format="1">
  <advance width="956"/>
  <unicode hex="0061"/>
  <outline>
    <contour>
      <point x="854.4" y="0" type="line"/>
      <point x="659.5" y="0" type="line"/>
      <point x="606.2" y="152" type="line"/>
      <point x="600.1" y="152.0" type="line"/>
      <point x="543.7749999999999" y="55.25"/>
      <point x="413.79999999999995" y="-20.0"/>
      <point x="334.0" y="-20.0" type="qcurve" smooth="yes"/>
      <point x="195.70000000000002" y="-20.0"/>
      <point x="54.9" y="162.89999999999998"/>
      <point x="54.9" y="322.5" type="qcurve" smooth="yes"/>
      <point x="54.9" y="500.84999999999997"/>
      <point x="244.05" y="675.2249999999999"/>
      <point x="440.4" y="684" type="qcurve" smooth="yes"/>
      <point x="587.5" y="690.7" type="line"/>
      <point x="587.5" y="769.5" type="line" smooth="yes"/>
      <point x="587.5" y="926.1"/>
      <point x="452.9" y="926.1" type="qcurve" smooth="yes"/>
      <point x="352.919540229885" y="926.1"/>
      <point x="223.7" y="848.3" type="qcurve"/>
      <point x="130.9" y="1031.1" type="line"/>
      <point x="212.875" y="1084.2"/>
      <point x="395.075" y="1137.5"/>
      <point x="486.2" y="1137.5" type="qcurve" smooth="yes"/>
      <point x="669.275" y="1137.5"/>
      <point x="854.4" y="933.5"/>
      <point x="854.4" y="748.1" type="qcurve" smooth="yes"/>
    </contour>
    <contour>
      <point x="428.5" y="188.4" type="qcurve" smooth="yes"/>
      <point x="500.57500000000005" y="188.4"/>
      <point x="587.5" y="319.125"/>
      <point x="587.5" y="427.8" type="qcurve" smooth="yes"/>
      <point x="587.5" y="521.9" type="line"/>
      <point x="506.0" y="518.0" type="line" smooth="yes"/>
      <point x="329.9" y="509.7147134302823"/>
      <point x="329.9" y="327.5" type="qcurve" smooth="yes"/>
      <point x="329.9" y="188.4"/>
    </contour>
    <contour>
      <point x="478.1" y="0" type="move" name="bottom"/>
    </contour>
    <contour>
      <point x="897.9" y="10" type="move" name="ogonek"/>
    </contour>
    <contour>
      <point x="478.1" y="1114.4" type="move" name="top"/>
    </contour>
  </outline>
</glyph>
<glyph name="c" format="1">
  <advance width="760"/>
  <unicode hex="0063"/>
  <outline>
    <contour>
      <point x="480.0" y="-20.0" type="qcurve" smooth="yes"/>
      <point x="282.07500000000005" y="-20.0"/>
      <point x="73.6" y="269.375"/>
      <point x="73.6" y="561.5" type="qcurve" smooth="yes"/>
      <point x="73.6" y="851.3000000000001"/>
      <point x="276.725" y="1135.4"/>
      <point x="469.4" y="1135.4" type="qcurve" smooth="yes"/>
      <point x="617.186075949367" y="1135.4"/>
      <point x="729.1" y="1064.1" type="qcurve"/>
      <point x="652.9" y="857.6" type="line"/>
      <point x="611.8" y="882.8000000000002"/>
      <point x="538.225" y="906.8"/>
      <point x="506.8" y="906.8" type="qcurve" smooth="yes"/>
      <point x="461.19999999999993" y="906.8"/>
      <point x="402.54999999999995" y="861.95"/>
      <point x="384.1" y="819.2" type="qcurve" smooth="yes"/>
      <point x="364.9" y="774.1250000000001"/>
      <point x="346.2" y="640.1499999999999"/>
      <point x="346.2" y="555.1" type="qcurve" smooth="yes"/>
      <point x="346.2" y="465.54999999999995"/>
      <point x="366.075" y="335.675"/>
      <point x="383.7" y="294.8" type="qcurve" smooth="yes"/>
      <point x="402.67500000000007" y="250.925"/>
      <point x="461.425" y="208.8"/>
      <point x="508.9" y="208.8" type="qcurve" smooth="yes"/>
      <point x="552.025" y="208.8"/>
      <point x="659.2749999999999" y="243.425"/>
      <point x="712.6" y="278.6" type="qcurve"/>
      <point x="712.6" y="44.6" type="line"/>
      <point x="659.6499999999999" y="12.95"/>
      <point x="545.6999999999999" y="-20.0"/>
    </contour>
    <contour>
      <point x="440" y="0" type="move" name="bottom"/>
    </contour>
    <contour>
      <point x="380.3" y="1114.4" type="move" name="top"/>
    </contour>
  </outline>
</glyph>
<glyph name="d" format="1">
  <advance width="1016"/>
  <unicode hex="0064"/>
  <outline>
    <contour>
      <point x="409.3" y="-20.0" type="qcurve" smooth="yes"/>
      <point x="304.15" y="-20.0"/>
      <point x="153.875" y="116.33333333333333"/>
      <point x="73.7" y="375.0"/>
      <point x="73.7" y="558.5" type="qcurve" smooth="yes"/>
      <point x="73.7" y="827.1500000000001"/>
      <point x="247.35" y="1135.4"/>
      <point x="405.3" y="1135.4" type="qcurve" smooth="yes"/>
      <point x="479.625" y="1135.4"/>
      <point x="590.75" y="1054.8000000000002"/>
      <point x="635" y="971.1" type="qcurve"/>
      <point x="650.7" y="971.1" type="line"/>
      <point x="644.7" y="1046.25"/>
      <point x="639.2249999999999" y="1145.3999999999996"/>
      <point x="639" y="1183.8" type="qcurve" smooth="yes"/>
      <point x="639" y="1556" type="line"/>
      <point x="904.8" y="1556" type="line"/>
      <point x="904.8" y="0" type="line"/>
      <point x="707.1" y="0" type="line"/>
      <point x="662" y="144.3" type="line"/>
      <point x="653.0" y="144.3" type="line"/>
      <point x="607.6999999999999" y="55.275000000000006"/>
      <point x="479.57499999999993" y="-20.0"/>
    </contour>
    <contour>
      <point x="493.0" y="205.1" type="qcurve" smooth="yes"/>
      <point x="553.45" y="205.1"/>
      <point x="614.9750000000001" y="294.2583333333334"/>
      <point x="636.2" y="437.04999999999995"/>
      <point x="636.2" y="517.5" type="qcurve" smooth="yes"/>
      <point x="636.2" y="552.9" type="line" smooth="yes"/>
      <point x="636.2" y="644.6499999999999"/>
      <point x="618.4916666666668" y="805.2583333333334"/>
      <point x="556.35" y="904.7000000000003"/>
      <point x="489.7" y="904.7" type="qcurve" smooth="yes"/>
      <point x="430.19999999999993" y="904.7000000000003"/>
      <point x="369.1166666666667" y="801.8333333333334"/>
      <point x="347.7" y="638.9000000000001"/>
      <point x="347.7" y="548.8" type="qcurve" smooth="yes"/>
      <point x="347.7" y="461.94999999999993"/>
      <point x="369.5999999999999" y="304.57499999999993"/>
      <point x="432.1" y="205.1"/>
    </contour>
    <contour>
      <point x="508.6" y="0" type="move" name="bottom"/>
    </contour>
    <contour>
      <point x="508.6" y="557" type="move" name="center"/>
    </contour>
    <contour>
      <point x="508.6" y="1114.4" type="move" name="top"/>
    </contour>
    <contour>
      <point x="996.2" y="1114.4" type="move" name="topright"/>
    </contour>
  </outline>
</glyph>
<glyph name="e" format="1">
  <advance width="942"/>
  <unicode hex="0065"/>
  <outline>
    <contour>
      <point x="523.7" y="-20.0" type="qcurve" smooth="yes"/>
      <point x="314.675" y="-20.0"/>
      <point x="73.6" y="276.75"/>
      <point x="73.6" y="549.0" type="qcurve" smooth="yes"/>
      <point x="73.6" y="733.1"/>
      <point x="172.02499999999998" y="995.6166666666668"/>
      <point x="356.95" y="1135.4"/>
      <point x="486.7" y="1135.4" type="qcurve" smooth="yes"/>
      <point x="668.95" y="1135.4"/>
      <point x="879.2" y="870.7750000000001"/>
      <point x="879.2" y="631" type="qcurve" smooth="yes"/>
      <point x="879.2" y="489.1" type="line"/>
      <point x="344.2" y="489.1" type="line"/>
      <point x="346.9749999999999" y="339.775"/>
      <point x="462.90000000000003" y="194.6"/>
      <point x="565.5" y="194.6" type="qcurve" smooth="yes"/>
      <point x="608.95" y="194.6"/>
      <point x="696.4499999999998" y="212.9083333333333"/>
      <point x="785.3499999999999" y="249.24999999999997"/>
      <point x="830.9" y="276.3" type="qcurve"/>
      <point x="830.9" y="56.9" type="line"/>
      <point x="767.0749999999998" y="19.4"/>
      <point x="612.95" y="-20.0"/>
    </contour>
    <contour>
      <point x="348.3" y="682.2" type="qcurve"/>
      <point x="618.3" y="682.2" type="line"/>
      <point x="615.675" y="804.2249999999999"/>
      <point x="545.875" y="930.4"/>
      <point x="484.9" y="930.4" type="qcurve" smooth="yes"/>
      <point x="428.12499999999994" y="930.4"/>
      <point x="353.85" y="809.175"/>
    </contour>
    <contour>
      <point x="507.7" y="0" type="move" name="bottom"/>
    </contour>
    <contour>
      <point x="760.3" y="25.8" type="move" name="ogonek"/>
    </contour>
    <contour>
      <point x="470.6" y="1114.4" type="move" name="top"/>
    </contour>
  </outline>
</glyph>
<glyph name="f" format="1">
  <advance width="612"/>
  <unicode hex="0066"/>
  <outline>
    <contour>
      <point x="158" y="0" type="line"/>
      <point x="158" y="903" type="line"/>
      <point x="29.1" y="903" type="line"/>
      <point x="29.1" y="1035.4" type="line"/>
      <point x="158" y="1116.3" type="line"/>
      <point x="158.0" y="1200.4" type="line" smooth="yes"/>
      <point x="158.0" y="1383.775"/>
      <point x="310.32499999999993" y="1567.0"/>
      <point x="477.8" y="1567.0" type="qcurve" smooth="yes"/>
      <point x="537.725" y="1567.0"/>
      <point x="635.4499999999998" y="1544.4249999999997"/>
      <point x="683.9" y="1521.7" type="qcurve"/>
      <point x="613.8" y="1318.9" type="line"/>
      <point x="583.35" y="1333.7500000000002"/>
      <point x="528.5250000000001" y="1343.9"/>
      <point x="490.5" y="1343.9" type="qcurve" smooth="yes"/>
      <point x="471.67499999999995" y="1343.9"/>
      <point x="450.825" y="1326.05"/>
      <point x="444.6" y="1304.9" type="qcurve"/>
      <point x="434.4" y="1289.975"/>
      <point x="424.2" y="1230.425"/>
      <point x="424.2" y="1196.3" type="qcurve" smooth="yes"/>
      <point x="424.2" y="1114.4" type="line"/>
      <point x="608.2" y="1114.4" type="line"/>
      <point x="608.2" y="903" type="line"/>
      <point x="424.2" y="903" type="line"/>
      <point x="424.2" y="0" type="line"/>
    </contour>
    <contour>
      <point x="306.1" y="0" type="move" name="bottom"/>
    </contour>
    <contour>
      <point x="306.1" y="1114.4" type="move" name="top"/>
    </contour>
  </outline>
</glyph>
<glyph name="g" format="1">
  <advance width="936"/>
  <unicode hex="0067"/>
  <outline>
    <contour>
      <point x="597.8" y="1111.6" type="qcurve"/>
      <point x="914.6" y="1111.6" type="line"/>
      <point x="914.6" y="955.7" type="line"/>
      <point x="782.7" y="926.1" type="line"/>
      <point x="801.15" y="890.7749999999999"/>
      <point x="820.6" y="803.2749999999999"/>
      <point x="820.6" y="750.1" type="qcurve" smooth="yes"/>
      <point x="820.6" y="572.4250000000002"/>
      <point x="628.425" y="373.0"/>
      <point x="456.3" y="373.0" type="qcurve" smooth="yes"/>
      <point x="431.925" y="373.0"/>
      <point x="395.07499999999993" y="377.00000000000006"/>
      <point x="383.3" y="380.6" type="qcurve"/>
      <point x="361.55" y="363.65"/>
      <point x="329.3" y="322.0"/>
      <point x="329.3" y="291.7" type="qcurve" smooth="yes"/>
      <point x="329.3" y="267.85"/>
      <point x="356.0999999999999" y="236.625"/>
      <point x="409.89999999999986" y="221.30000000000007"/>
      <point x="450.4" y="221.3" type="qcurve" smooth="yes"/>
      <point x="612.2" y="221.3" type="line" smooth="yes"/>
      <point x="753.275" y="221.3"/>
      <point x="906.7" y="67.9"/>
      <point x="906.7" y="-85.4" type="qcurve" smooth="yes"/>
      <point x="906.7" y="-280.1"/>
      <point x="646.9749999999999" y="-492.0"/>
      <point x="403.0" y="-492.0" type="qcurve" smooth="yes"/>
      <point x="217.67499999999998" y="-492.0"/>
      <point x="17.5" y="-331.17499999999995"/>
      <point x="17.5" y="-182.0" type="qcurve" smooth="yes"/>
      <point x="17.5" y="-88.92500000000001"/>
      <point x="130.95000000000002" y="51.875"/>
      <point x="232.5" y="83.9" type="qcurve"/>
      <point x="181.72500000000002" y="103.55"/>
      <point x="116.6" y="188.275"/>
      <point x="116.6" y="244.9" type="qcurve" smooth="yes"/>
      <point x="116.6" y="306.775"/>
      <point x="177.92499999999995" y="385.5250000000001"/>
      <point x="231.1" y="430.3" type="qcurve"/>
      <point x="162.02500000000003" y="472.225"/>
      <point x="82.0" y="646.7749999999999"/>
      <point x="82.0" y="752.6" type="qcurve" smooth="yes"/>
      <point x="82.0" y="935.3000000000002"/>
      <point x="273.57499999999993" y="1135.4"/>
      <point x="452.3" y="1135.4" type="qcurve" smooth="yes"/>
      <point x="474.8" y="1135.4"/>
      <point x="530.8833333333333" y="1128.1666666666667"/>
      <point x="582.3" y="1117.1999999999998"/>
    </contour>
    <contour>
      <point x="259.9" y="-162.1" type="qcurve" smooth="yes"/>
      <point x="259.9" y="-228.1"/>
      <point x="343.2750000000001" y="-299.2"/>
      <point x="420.3" y="-299.2" type="qcurve" smooth="yes"/>
      <point x="500.70000000000005" y="-299.2"/>
      <point x="607.9499999999999" y="-257.875"/>
      <point x="661.6" y="-180.65000000000003"/>
      <point x="661.6" y="-126.8" type="qcurve" smooth="yes"/>
      <point x="661.6" y="-85.1"/>
      <point x="634.4166666666667" y="-34.7"/>
      <point x="567.5" y="-12.1"/>
      <point x="507.9" y="-12.1" type="qcurve" smooth="yes"/>
      <point x="379.1" y="-12.1" type="line" smooth="yes"/>
      <point x="324.95" y="-12.1"/>
      <point x="259.9" y="-93.1"/>
    </contour>
    <contour>
      <point x="342.0" y="750.6" type="qcurve" smooth="yes"/>
      <point x="342.0" y="651.975"/>
      <point x="397.825" y="552.7"/>
      <point x="453.1" y="552.7" type="qcurve" smooth="yes"/>
      <point x="507.025" y="552.7"/>
      <point x="561.3" y="652.3750000000001"/>
      <point x="561.3" y="752.2" type="qcurve" smooth="yes"/>
      <point x="561.3" y="854.1250000000001"/>
      <point x="506.875" y="956.6"/>
      <point x="453.1" y="956.6" type="qcurve" smooth="yes"/>
      <point x="397.6" y="956.6"/>
      <point x="342.0" y="852.75"/>
    </contour>
    <contour>
      <point x="468.3" y="0" type="move" name="bottom"/>
    </contour>
    <contour>
      <point x="471.8" y="1114.4" type="move" name="top"/>
    </contour>
  </outline>
</glyph>
<glyph name="h" format="1">
  <advance width="1038"/>
  <unicode hex="0068"/>
  <outline>
    <contour>
      <point x="112.8" y="0" type="line"/>
      <point x="112.8" y="1556" type="line"/>
      <point x="379.3" y="1556" type="line"/>
      <point x="379.3" y="1209.9" type="line" smooth="yes"/>
      <point x="379.3" y="1175.925"/>
      <point x="372.82500000000005" y="1057.25"/>
      <point x="366.9" y="971" type="qcurve"/>
      <point x="380.5" y="971.0" type="line"/>
      <point x="420.625" y="1053.5"/>
      <point x="544.6000000000001" y="1135.4"/>
      <point x="625.9" y="1135.4" type="qcurve" smooth="yes"/>
      <point x="781.4499999999998" y="1135.4"/>
      <point x="936.2" y="925.375"/>
      <point x="936.2" y="727" type="qcurve" smooth="yes"/>
      <point x="936.2" y="0" type="line"/>
      <point x="667.9" y="0" type="line"/>
      <point x="667.9" y="664.7" type="line" smooth="yes"/>
      <point x="667.9" y="785.7500000000001"/>
      <point x="607.0749999999999" y="908.8"/>
      <point x="545.5" y="908.8" type="qcurve" smooth="yes"/>
      <point x="453.41140625" y="908.8"/>
      <point x="416.4" y="812.9" type="qcurve" smooth="yes"/>
      <point x="397.8" y="764.2250000000001"/>
      <point x="379.3" y="627.3750000000001"/>
      <point x="379.3" y="535.2" type="qcurve" smooth="yes"/>
      <point x="379.3" y="0" type="line"/>
    </contour>
    <contour>
      <point x="518.3" y="0" type="move" name="bottom"/>
    </contour>
    <contour>
      <point x="518.3" y="557" type="move" name="center"/>
    </contour>
    <contour>
      <point x="518.3" y="1514.4" type="move" name="top"/>
    </contour>
  </outline>
</glyph>
<glyph name="k" format="1">
  <advance width="965"/>
  <unicode hex="006B"/>
  <outline>
    <contour>
      <point x="112.8" y="0" type="line"/>
      <point x="112.8" y="1556" type="line"/>
      <point x="379.3" y="1556" type="line"/>
      <point x="379.3" y="822.6" type="line" smooth="yes"/>
      <point x="379.3" y="766.875"/>
      <point x="369.775" y="655.7249999999999"/>
      <point x="366.7" y="600" type="qcurve"/>
      <point x="375.0" y="600.0" type="line"/>
      <point x="391.57500000000005" y="633.5250000000001"/>
      <point x="423.69999999999993" y="700.325"/>
      <point x="442.3" y="733.1" type="qcurve" smooth="yes"/>
      <point x="662" y="1114.4" type="line"/>
      <point x="943.5" y="1114.4" type="line"/>
      <point x="662.7" y="656.6" type="line"/>
      <point x="962.7" y="0" type="line"/>
      <point x="684.2" y="0" type="line"/>
      <point x="483.2" y="470.6" type="line"/>
      <point x="379.3" y="377" type="line"/>
      <point x="379.3" y="0" type="line"/>
    </contour>
    <contour>
      <point x="483.4" y="0" type="move" name="bottom"/>
    </contour>
    <contour>
      <point x="483.4" y="1114.4" type="move" name="top"/>
    </contour>
  </outline>
</glyph>
<glyph name="l" format="1">
  <advance width="489"/>
  <unicode hex="006C"/>
  <outline>
    <contour>
      <point x="379.3" y="1556" type="line"/>
      <point x="379.3" y="0" type="line"/>
      <point x="112.8" y="0" type="line"/>
      <point x="112.8" y="1556" type="line"/>
    </contour>
    <contour>
      <point x="205.5" y="0" type="move" name="bottom"/>
    </contour>
    <contour>
      <point x="245.5" y="557" type="move" name="center"/>
    </contour>
    <contour>
      <point x="245.5" y="1556" type="move" name="top"/>
    </contour>
    <contour>
      <point x="468.6" y="1556" type="move" name="topright"/>
    </contour>
  </outline>
</glyph>
<glyph name="m" format="1">
  <advance width="1589"/>
  <unicode hex="006D"/>
  <outline>
    <contour>
      <point x="112.8" y="0" type="line"/>
      <point x="112.8" y="1114.4" type="line"/>
      <point x="323.7" y="1114.4" type="line"/>
      <point x="356.2" y="971.1" type="line"/>
      <point x="372.9" y="971.1" type="line"/>
      <point x="413.025" y="1054.725"/>
      <point x="549.8499999999999" y="1135.4"/>
      <point x="635.2" y="1135.4" type="qcurve" smooth="yes"/>
      <point x="732.025" y="1135.4"/>
      <point x="869.7750000000001" y="1038.55"/>
      <point x="903" y="941.8" type="qcurve"/>
      <point x="913.1" y="941.8" type="line"/>
      <point x="958.9250000000002" y="1043.6499999999999"/>
      <point x="1095.5749999999998" y="1135.4"/>
      <point x="1190.0" y="1135.4" type="qcurve" smooth="yes"/>
      <point x="1333.4750000000001" y="1135.4"/>
      <point x="1486.5" y="928.1250000000001"/>
      <point x="1486.5" y="727.2" type="qcurve" smooth="yes"/>
      <point x="1486.5" y="0" type="line"/>
      <point x="1218.9" y="0" type="line"/>
      <point x="1218.9" y="664.1" type="line" smooth="yes"/>
      <point x="1218.9" y="909.1"/>
      <point x="1094.6" y="909.1" type="qcurve" smooth="yes"/>
      <point x="1057.7" y="909.1"/>
      <point x="992.85" y="869.575"/>
      <point x="972.3" y="821.8" type="qcurve" smooth="yes"/>
      <point x="933.8" y="734.1313253012048"/>
      <point x="933.8" y="540.5" type="qcurve" smooth="yes"/>
      <point x="933.8" y="0" type="line"/>
      <point x="665.5" y="0" type="line"/>
      <point x="665.5" y="664.1" type="line" smooth="yes"/>
      <point x="665.5" y="909.1"/>
      <point x="539.8" y="909.1" type="qcurve" smooth="yes"/>
      <point x="502.6" y="909.1"/>
      <point x="439.57500000000005" y="868.95"/>
      <point x="418.5" y="822.3" type="qcurve" smooth="yes"/>
      <point x="379.3" y="736.1187265917604"/>
      <point x="379.3" y="534.4" type="qcurve" smooth="yes"/>
      <point x="379.3" y="0" type="line"/>
    </contour>
    <contour>
      <point x="794.8" y="0" type="move" name="bottom"/>
    </contour>
    <contour>
      <point x="794.8" y="1114.4" type="move" name="top"/>
    </contour>
  </outline>
</glyph>
<glyph name="o" format="1">
  <advance width="1012"/>
  <unicode hex="006F"/>
  <outline>
    <contour>
      <point x="508.1" y="-20.0" type="qcurve" smooth="yes"/>
      <point x="363.25" y="-20.0"/>
      <point x="170.19166666666666" y="137.6833333333333"/>
      <point x="73.7" y="401.1"/>
      <point x="73.7" y="559.7" type="qcurve" smooth="yes"/>
      <point x="73.7" y="740.0500000000001"/>
      <point x="178.18333333333334" y="997.8416666666666"/>
      <point x="372.20000000000005" y="1135.4"/>
      <point x="506.5" y="1135.4" type="qcurve" smooth="yes"/>
      <point x="639.55" y="1135.4"/>
      <point x="832.7749999999999" y="994.1333333333333"/>
      <point x="937.2999999999997" y="734.2"/>
      <point x="937.3" y="556.2" type="qcurve"/>
      <point x="937.2999999999997" y="375.45000000000005"/>
      <point x="832.1166666666666" y="117.47499999999998"/>
      <point x="639.4" y="-20.0"/>
    </contour>
    <contour>
      <point x="505.9" y="206.5" type="qcurve" smooth="yes"/>
      <point x="590.7603945371776" y="206.5"/>
      <point x="630.1" y="304.7" type="qcurve" smooth="yes"/>
      <point x="648.1" y="349.25"/>
      <point x="666.1" y="478.175"/>
      <point x="666.1" y="563.9" type="qcurve" smooth="yes"/>
      <point x="666.1" y="632.2250000000001"/>
      <point x="649.425" y="771.8500000000001"/>
      <point x="627.3" y="820.9" type="qcurve" smooth="yes"/>
      <point x="588.9323688969259" y="906.8"/>
      <point x="506.6" y="906.8" type="qcurve" smooth="yes"/>
      <point x="465.87500000000006" y="906.8"/>
      <point x="403.65000000000003" y="865.5"/>
      <point x="384.0" y="820.5" type="qcurve" smooth="yes"/>
      <point x="366.22499999999997" y="780.375"/>
      <point x="346.3" y="651.625"/>
      <point x="346.3" y="561.1" type="qcurve" smooth="yes"/>
      <point x="346.3" y="469.45"/>
      <point x="366.7" y="336.24999999999994"/>
      <point x="384.1" y="295.9" type="qcurve" smooth="yes"/>
      <point x="422.4142857142857" y="206.5"/>
    </contour>
    <contour>
      <point x="505.5" y="0" type="move" name="bottom"/>
    </contour>
    <contour>
      <point x="505.5" y="557" type="move" name="center"/>
    </contour>
    <contour>
      <point x="910.6" y="10" type="move" name="ogonek"/>
    </contour>
    <contour>
      <point x="505.5" y="1114.4" type="move" name="top"/>
    </contour>
    <contour>
      <point x="992.4" y="1114.4" type="move" name="topright"/>
    </contour>
  </outline>
</glyph>
<glyph name="q" format="1">
  <advance width="1016"/>
  <unicode hex="0071"/>
  <outline>
    <contour>
      <point x="639" y="-492" type="line"/>
      <point x="639.0" y="-23.0" type="line" smooth="yes"/>
      <point x="639.0" y="-5.0"/>
      <point x="644.725" y="78.775"/>
      <point x="650.8" y="144.7" type="qcurve"/>
      <point x="641.1" y="144.7" type="line"/>
      <point x="601.5" y="63.849999999999994"/>
      <point x="487.65" y="-20.0"/>
      <point x="407.4" y="-20.0" type="qcurve" smooth="yes"/>
      <point x="249.82500000000005" y="-20.0"/>
      <point x="73.7" y="283.70000000000005"/>
      <point x="73.7" y="558.5" type="qcurve" smooth="yes"/>
      <point x="73.7" y="738.45"/>
      <point x="151.3083333333333" y="996.9083333333333"/>
      <point x="298.55" y="1135.4"/>
      <point x="403.0" y="1135.4" type="qcurve" smooth="yes"/>
      <point x="551.7538738738738" y="1135.4"/>
      <point x="637.1" y="971.5" type="qcurve"/>
      <point x="650.7" y="971.5" type="line"/>
      <point x="680.4" y="1114.4" type="line"/>
      <point x="904.8" y="1114.4" type="line"/>
      <point x="904.8" y="-492" type="line"/>
    </contour>
    <contour>
      <point x="491.4" y="202.5" type="qcurve" smooth="yes"/>
      <point x="529.5" y="202.5"/>
      <point x="583.525" y="240.72500000000002"/>
      <point x="600.4" y="276.2" type="qcurve" smooth="yes"/>
      <point x="636.2" y="350.4120171673819"/>
      <point x="636.2" y="515.8" type="qcurve" smooth="yes"/>
      <point x="636.2" y="552.9" type="line" smooth="yes"/>
      <point x="636.2" y="740.4211009174313"/>
      <point x="602.4" y="821.2" type="qcurve" smooth="yes"/>
      <point x="567.9914742451155" y="904.7"/>
      <point x="490.4" y="904.7" type="qcurve" smooth="yes"/>
      <point x="416.45000000000005" y="904.7"/>
      <point x="347.7" y="725.95"/>
      <point x="347.7" y="548.8" type="qcurve" smooth="yes"/>
      <point x="347.7" y="456.0"/>
      <point x="369.9666666666667" y="298.3166666666666"/>
      <point x="431.9" y="202.5"/>
    </contour>
    <contour>
      <point x="508.6" y="0" type="move" name="bottom"/>
    </contour>
    <contour>
      <point x="508.6" y="1114.4" type="move" name="top"/>
    </contour>
  </outline>
</glyph>
<glyph name="r" format="1">
  <advance width="690"/>
  <unicode hex="0072"/>
  <outline>
    <contour>
      <point x="112.8" y="0" type="line"/>
      <point x="112.8" y="1114.4" type="line"/>
      <point x="332.2" y="1114.4" type="line"/>
      <point x="362.5" y="939.8" type="line"/>
      <point x="370.9" y="939.8" type="line"/>
      <point x="413.35" y="1040.3"/>
      <point x="516.3749999999999" y="1135.4"/>
      <point x="585.3" y="1135.4" type="qcurve" smooth="yes"/>
      <point x="613.425" y="1135.4"/>
      <point x="660.9999999999999" y="1127.9750000000004"/>
      <point x="683.8" y="1120.7" type="qcurve"/>
      <point x="653.1" y="861.9" type="line"/>
      <point x="638.7749999999999" y="866.775"/>
      <point x="602.75" y="872.0"/>
      <point x="575.6" y="872.0" type="qcurve" smooth="yes"/>
      <point x="513.5" y="872.0"/>
      <point x="423.325" y="799.5"/>
      <point x="402.1" y="735.0" type="qcurve" smooth="yes"/>
      <point x="391.225" y="701.5500000000001"/>
      <point x="379.3" y="620.525"/>
      <point x="379.3" y="572.9" type="qcurve" smooth="yes"/>
      <point x="379.3" y="0" type="line"/>
    </contour>
    <contour>
      <point x="345.1" y="0" type="move" name="bottom"/>
    </contour>
    <contour>
      <point x="345.1" y="1114.4" type="move" name="top"/>
    </contour>
  </outline>
</glyph>
<glyph name="v" format="1">
  <advance width="913"/>
  <unicode hex="0076"/>
  <outline>
    <contour>
      <point x="291.2" y="0" type="line"/>
      <point x="-0.5" y="1114.4" type="line"/>
      <point x="275.4" y="1114.4" type="line"/>
      <point x="418.5" y="468.9" type="line" smooth="yes"/>
      <point x="425.20000000000005" y="438.89999999999986"/>
      <point x="440.20833333333326" y="337.24999999999994"/>
      <point x="452.45000000000005" y="238.39999999999998"/>
      <point x="455" y="212.6" type="qcurve"/>
      <point x="458.8" y="212.6" type="line"/>
      <point x="459.4" y="229.39999999999998"/>
      <point x="467.99166666666656" y="312.29999999999995"/>
      <point x="479.74999999999994" y="400.20000000000005"/>
      <point x="485.1" y="424.5" type="qcurve" smooth="yes"/>
      <point x="638.7" y="1114.4" type="line"/>
      <point x="914.6" y="1114.4" type="line"/>
      <point x="620.5" y="0" type="line"/>
    </contour>
    <contour>
      <point x="457.2" y="0" type="move" name="bottom"/>
    </contour>
    <contour>
      <point x="457.2" y="1114.4" type="move" name="top"/>
    </contour>
  </outline>
</glyph>
<glyph name="w" format="1">
  <advance width="1479"/>
  <unicode hex="0077"/>
  <outline>
    <contour>
      <point x="241.7" y="0" type="line"/>
      <point x="20" y="1114.7" type="line"/>
      <point x="286.9" y="1114.7" type="line"/>
      <point x="389.3" y="500.2" type="line" smooth="yes"/>
      <point x="396.8" y="448.67500000000007"/>
      <point x="415.3" y="299.17500000000007"/>
      <point x="421.9" y="200.7" type="qcurve"/>
      <point x="427.9" y="200.7" type="line"/>
      <point x="429.85" y="240.3"/>
      <point x="440.48333333333335" y="361.28333333333336"/>
      <point x="453.45" y="474.40000000000003"/>
      <point x="458.9" y="502.2" type="qcurve" smooth="yes"/>
      <point x="568.7" y="1114.7" type="line"/>
      <point x="911.2" y="1114.7" type="line"/>
      <point x="1020.6" y="500.2" type="line" smooth="yes"/>
      <point x="1027.35" y="460.525"/>
      <point x="1046.65" y="301.2"/>
      <point x="1053.1" y="200.7" type="qcurve"/>
      <point x="1056.7" y="200.7" type="line"/>
      <point x="1064.3500000000004" y="290.17500000000007"/>
      <point x="1082.475" y="440.62499999999994"/>
      <point x="1092.3" y="500.4" type="qcurve" smooth="yes"/>
      <point x="1197.6" y="1114.7" type="line"/>
      <point x="1458.2" y="1114.7" type="line"/>
      <point x="1235.2" y="0" type="line"/>
      <point x="889.4" y="0" type="line"/>
      <point x="777.9" y="646.8" type="line" smooth="yes"/>
      <point x="767.4750000000001" y="714.675"/>
      <point x="747.925" y="851.575"/>
      <point x="738.7" y="920.2" type="qcurve"/>
      <point x="735.3" y="920.2" type="line"/>
      <point x="726.75" y="841.0500000000001"/>
      <point x="716.0749999999998" y="751.6583333333333"/>
      <point x="706.7" y="689.7"/>
      <point x="700.1" y="651.7" type="qcurve" smooth="yes"/>
      <point x="584.9" y="0" type="line"/>
    </contour>
    <contour>
      <point x="739.5" y="0" type="move" name="bottom"/>
    </contour>
    <contour>
      <point x="739.5" y="1114.7" type="move" name="top"/>
    </contour>
  </outline>
</glyph>
<glyph name="y" format="1">
  <advance width="913"/>
  <unicode hex="0079"/>
  <outline>
    <contour>
      <point x="179.7" y="-492.0" type="qcurve" smooth="yes"/>
      <point x="106.31818181818183" y="-492.0"/>
      <point x="42.8" y="-475" type="qcurve"/>
      <point x="42.8" y="-252.5" type="line"/>
      <point x="64.625" y="-258.20000000000005"/>
      <point x="114.55000000000001" y="-263.7"/>
      <point x="132.1" y="-263.7" type="qcurve" smooth="yes"/>
      <point x="207.17499999999995" y="-263.7"/>
      <point x="285.775" y="-172.75"/>
      <point x="312.1" y="-88.0" type="qcurve" smooth="yes"/>
      <point x="316.975" y="-70.67500000000001"/>
      <point x="324.7" y="-42.45"/>
      <point x="330.7" y="-18.3" type="qcurve"/>
      <point x="-0.5" y="1114.4" type="line"/>
      <point x="275.4" y="1114.4" type="line"/>
      <point x="431.0" y="485.0" type="line" smooth="yes"/>
      <point x="435.85" y="465.5"/>
      <point x="449.3666666666667" y="390.80000000000007"/>
      <point x="462.75" y="297.7"/>
      <point x="467.4" y="250.6" type="qcurve"/>
      <point x="473.3" y="250.6" type="line"/>
      <point x="475.625" y="272.04999999999995"/>
      <point x="481.0119791666667" y="318.6687500000001"/>
      <point x="487.3130208333333" y="366.13124999999997"/>
      <point x="494.6875" y="411.85"/>
      <point x="499" y="432.4" type="qcurve" smooth="yes"/>
      <point x="633.1" y="1114.4" type="line"/>
      <point x="912.5" y="1114.4" type="line"/>
      <point x="595.5" y="-80.4" type="line" smooth="yes"/>
      <point x="556.9" y="-223.69999999999996"/>
      <point x="447.0583333333333" y="-405.6166666666667"/>
      <point x="289.65" y="-492.0"/>
    </contour>
    <contour>
      <point x="746.6" y="0" type="move" name="bottom"/>
    </contour>
    <contour>
      <point x="457.2" y="1114.4" type="move" name="top"/>
    </contour>
  </outline>
</glyph>
<glyph name="z" format="1">
  <advance width="731"/>
  <unicode hex="007A"/>
  <outline>
    <contour>
      <point x="690" y="214.9" type="line"/>
      <point x="690" y="0" type="line"/>
      <point x="40.8" y="0" type="line"/>
      <point x="40.8" y="170.5" type="line"/>
      <point x="383.9" y="899.5" type="line"/>
      <point x="62.5" y="899.5" type="line"/>
      <point x="62.5" y="1114.4" type="line"/>
      <point x="675.7" y="1114.4" type="line"/>
      <point x="675.7" y="926.1" type="line"/>
      <point x="344.1" y="214.9" type="line"/>
    </contour>
    <contour>
      <point x="366.2" y="0" type="move" name="bottom"/>
    </contour>
    <contour>
      <point x="366.2" y="1114.4" type="move" name="top"/>
    </contour>
  </outline>
</glyph>
<glyph name="braceleft" format="1">
  <advance width="737"/>
  <unicode hex="007B"/>
  <note>
braceleft
</note>
  <outline>
    <contour>
      <point x="703" y="-324" type="line"/>
      <point x="550.0" y="-323.25"/>
      <point x="366.0" y="-270.5"/>
      <point x="324.0" y="-209.0" type="qcurve" smooth="yes"/>
      <point x="282.0" y="-149.0"/>
      <point x="282" y="-41" type="qcurve" smooth="yes"/>
      <point x="282.0" y="276.0" type="line" smooth="yes"/>
      <point x="282.0" y="323.25"/>
      <point x="250.75" y="391.0"/>
      <point x="220.0" y="412.0" type="qcurve"/>
      <point x="190.0" y="435.25"/>
      <point x="89.5" y="457.0"/>
      <point x="25" y="457" type="qcurve"/>
      <point x="25.0" y="680.0" type="line"/>
      <point x="100.0" y="680.0"/>
      <point x="215.0" y="710.75"/>
      <point x="248.0" y="749.0" type="qcurve" smooth="yes"/>
      <point x="282.0" y="787.6363636363636"/>
      <point x="282" y="852" type="qcurve" smooth="yes"/>
      <point x="282.0" y="1180.0" type="line" smooth="yes"/>
      <point x="282.0" y="1285.0"/>
      <point x="364.75" y="1408.25"/>
      <point x="457.0" y="1436.0" type="qcurve" smooth="yes"/>
      <point x="502.0" y="1448.75"/>
      <point x="625.75" y="1461.25"/>
      <point x="703" y="1462" type="qcurve"/>
      <point x="703.0" y="1251.0" type="line"/>
      <point x="635.4827586206897" y="1247.9310344827586"/>
      <point x="601.0" y="1235.0" type="qcurve" smooth="yes"/>
      <point x="561.25" y="1219.25"/>
      <point x="528.0" y="1156.25"/>
      <point x="528" y="1106" type="qcurve" smooth="yes"/>
      <point x="528.0" y="802.0" type="line" smooth="yes"/>
      <point x="528.0" y="705.25"/>
      <point x="409.75" y="591.5"/>
      <point x="298" y="575" type="qcurve"/>
      <point x="298.0" y="563.0" type="line"/>
      <point x="412.75" y="545.75"/>
      <point x="528.0" y="438.75"/>
      <point x="528" y="348" type="qcurve" smooth="yes"/>
      <point x="528.0" y="33.0" type="line" smooth="yes"/>
      <point x="528.0" y="-12.0"/>
      <point x="555.25" y="-72.5"/>
      <point x="586.0" y="-89.0" type="qcurve" smooth="yes"/>
      <point x="622.0997229916898" y="-110.05817174515235"/>
      <point x="703" y="-113" type="qcurve"/>
    </contour>
  </outline>
</glyph>
<glyph name="bar" format="1">
  <advance width="1038"/>
  <unicode hex="007C"/>
  <note>
bar
</note>
  <outline>
    <contour>
      <point x="415.9" y="-471" type="line"/>
      <point x="415.9" y="1551.1" type="line"/>
      <point x="622.9" y="1551.1" type="line"/>
      <point x="622.9" y="-471" type="line"/>
    </contour>
  </outline>
</glyph>
<glyph name="braceright" format="1">
  <advance width="737"/>
  <unicode hex="007D"/>
  <note>
braceright
</note>
  <outline>
    <contour>
      <point x="33.3" y="-324" type="qcurve"/>
      <point x="33.3" y="-113.1" type="line"/>
      <point x="139.26756262767447" y="-109.65856359531234"/>
      <point x="176.3" y="-71.9" type="qcurve" smooth="yes"/>
      <point x="209.2" y="-39.71212121212122"/>
      <point x="209.2" y="33.3" type="qcurve" smooth="yes"/>
      <point x="209.2" y="344.8" type="line" smooth="yes"/>
      <point x="209.2" y="435.625"/>
      <point x="327.775" y="545.8"/>
      <point x="441.7" y="562.9" type="qcurve"/>
      <point x="441.7" y="575.1" type="line"/>
      <point x="320.575" y="594.3000000000002"/>
      <point x="209.2" y="709.3749999999999"/>
      <point x="209.2" y="802.3" type="qcurve" smooth="yes"/>
      <point x="209.2" y="1105.7" type="line" smooth="yes"/>
      <point x="209.2" y="1154.2250000000004"/>
      <point x="180.55" y="1215.75"/>
      <point x="144.4" y="1231.8" type="qcurve" smooth="yes"/>
      <point x="106.67661996668929" y="1248.5333281081612"/>
      <point x="33.3" y="1251.1" type="qcurve"/>
      <point x="33.3" y="1462.0" type="line"/>
      <point x="141.97500000000002" y="1461.5500000000002"/>
      <point x="295.67500000000007" y="1437.1000000000004"/>
      <point x="345.7" y="1409.2" type="qcurve" smooth="yes"/>
      <point x="404.42500000000007" y="1376.575"/>
      <point x="457.0" y="1264.025"/>
      <point x="457" y="1180.1" type="qcurve" smooth="yes"/>
      <point x="457.0" y="851.9" type="line" smooth="yes"/>
      <point x="457.0" y="835.3249999999998"/>
      <point x="461.85" y="787.5"/>
      <point x="472.8" y="768.6" type="qcurve" smooth="yes"/>
      <point x="501.375" y="717.975"/>
      <point x="632.725" y="680.3"/>
      <point x="712.3" y="680.3" type="qcurve"/>
      <point x="712.3" y="457.3" type="line"/>
      <point x="632.2" y="457.3"/>
      <point x="523.6750000000001" y="425.57500000000005"/>
      <point x="494.5" y="390.4" type="qcurve" smooth="yes"/>
      <point x="457.0" y="345.9268595041322"/>
      <point x="457" y="275.6" type="qcurve" smooth="yes"/>
      <point x="457.0" y="-41.1" type="line" smooth="yes"/>
      <point x="457.0" y="-116.32499999999999"/>
      <point x="415.075" y="-222.2"/>
      <point x="369.7" y="-256.1" type="qcurve" smooth="yes"/>
      <point x="320.275" y="-291.95"/>
      <point x="155.10000000000002" y="-323.54999999999995"/>
    </contour>
  </outline>
</glyph>
<glyph name="asciitilde" format="1">
  <advance width="918"/>
  <unicode hex="007E"/>
  <note>
asciitilde
</note>
  <outline>
    <contour>
      <point x="73.7" y="556.4" type="qcurve"/>
      <point x="73.7" y="758.3" type="line"/>
      <point x="123.79999999999998" y="813.1249999999999"/>
      <point x="223.725" y="860.8"/>
      <point x="287.4" y="860.8" type="qcurve" smooth="yes"/>
      <point x="313.4" y="860.7999999999997"/>
      <point x="359.1333333333333" y="852.9749999999999"/>
      <point x="426.4" y="827.2500000000001"/>
      <point x="484.7" y="800.4" type="qcurve" smooth="yes"/>
      <point x="534.6999999999999" y="777.3499999999999"/>
      <point x="587.9750000000001" y="755.7416666666667"/>
      <point x="630.3500000000001" y="749.5"/>
      <point x="664.0" y="749.5" type="qcurve" smooth="yes"/>
      <point x="701.7249999999999" y="749.5"/>
      <point x="797.1" y="809.4250000000001"/>
      <point x="843.3" y="862" type="qcurve"/>
      <point x="843.3" y="660.4" type="line"/>
      <point x="806.55" y="612.8500000000001"/>
      <point x="703.075" y="559.2"/>
      <point x="638.8" y="559.2" type="qcurve" smooth="yes"/>
      <point x="588.475" y="559.2"/>
      <point x="493.85" y="586.775"/>
      <point x="430.1" y="618.2" type="qcurve" smooth="yes"/>
      <point x="377.15" y="644.3750000000001"/>
      <point x="308.725" y="669.7"/>
      <point x="268.6" y="669.7" type="qcurve" smooth="yes"/>
      <point x="177.2722222222222" y="669.7"/>
    </contour>
  </outline>
</glyph>
<glyph name="exclamdown" format="1">
  <advance width="555"/>
  <unicode hex="00A1"/>
  <note>
exclamdown
</note>
  <outline>
    <contour>
      <point x="112.3" y="-368.6" type="line"/>
      <point x="164.1" y="621.7" type="line"/>
      <point x="385" y="621.7" type="line"/>
      <point x="435.4" y="-368.6" type="line"/>
    </contour>
    <contour>
      <point x="274.7" y="791.4" type="qcurve" smooth="yes"/>
      <point x="196.325" y="791.4"/>
      <point x="111.3" y="874.9"/>
      <point x="111.3" y="954.4" type="qcurve" smooth="yes"/>
      <point x="111.3" y="1032.3249999999998"/>
      <point x="198.425" y="1118.5"/>
      <point x="274.7" y="1118.5" type="qcurve" smooth="yes"/>
      <point x="355.775" y="1118.5"/>
      <point x="442.3" y="1031.3500000000001"/>
      <point x="442.3" y="954.4" type="qcurve" smooth="yes"/>
      <point x="442.3" y="875.1999999999998"/>
      <point x="355.775" y="791.4"/>
    </contour>
  </outline>
</glyph>
<glyph name="sterling" format="1">
  <advance width="948"/>
  <unicode hex="00A3"/>
  <note>
sterling
</note>
  <outline>
    <contour>
      <point x="76" y="0" type="line"/>
      <point x="76.0" y="229.0" type="line"/>
      <point x="133.75" y="259.0"/>
      <point x="200.25" y="326.5"/>
      <point x="216.0" y="370.0" type="qcurve" smooth="yes"/>
      <point x="225.0" y="396.25"/>
      <point x="233.0" y="457.25"/>
      <point x="233" y="494" type="qcurve" smooth="yes"/>
      <point x="233" y="651" type="line"/>
      <point x="79" y="651" type="line"/>
      <point x="79" y="854" type="line"/>
      <point x="233" y="854" type="line"/>
      <point x="233.0" y="1072.0" type="line" smooth="yes"/>
      <point x="233.0" y="1270.75"/>
      <point x="422.0" y="1483.0"/>
      <point x="599.0" y="1483.0" type="qcurve" smooth="yes"/>
      <point x="757.75" y="1483.0"/>
      <point x="882" y="1412" type="qcurve"/>
      <point x="798.0" y="1200.0" type="line"/>
      <point x="752.25" y="1226.25"/>
      <point x="660.75" y="1253.0"/>
      <point x="615.0" y="1253.0" type="qcurve" smooth="yes"/>
      <point x="558.0" y="1253.0"/>
      <point x="501.0" y="1160.0"/>
      <point x="501" y="1067" type="qcurve" smooth="yes"/>
      <point x="501" y="854" type="line"/>
      <point x="742" y="854" type="line"/>
      <point x="742" y="651" type="line"/>
      <point x="501" y="651" type="line"/>
      <point x="501.0" y="518.0" type="line" smooth="yes"/>
      <point x="501.0" y="427.25"/>
      <point x="439.75" y="292.25"/>
      <point x="370" y="242" type="qcurve"/>
      <point x="904" y="242" type="line"/>
      <point x="904" y="0" type="line"/>
    </contour>
  </outline>
</glyph>
<glyph name="currency" format="1">
  <advance width="1112"/>
  <unicode hex="00A4"/>
  <note>
currency
</note>
  <outline>
    <contour>
      <point x="882.8" y="260" type="line"/>
      <point x="754.2" y="384.5" type="line"/>
      <point x="659.3953757225435" y="332.1"/>
      <point x="556.5" y="332.1" type="qcurve" smooth="yes"/>
      <point x="435.715909090909" y="332.1"/>
      <point x="352" y="385.1" type="qcurve"/>
      <point x="227.4" y="262" type="line"/>
      <point x="92" y="397.3" type="line"/>
      <point x="218.7" y="521.9" type="line"/>
      <point x="162.1" y="612.6679790026246"/>
      <point x="162.1" y="723.7" type="qcurve" smooth="yes"/>
      <point x="162.1" y="826.1527559055119"/>
      <point x="218.7" y="924.2" type="qcurve"/>
      <point x="90" y="1050.7" type="line"/>
      <point x="226.8" y="1188.2" type="line"/>
      <point x="354.1" y="1061.0" type="line"/>
      <point x="446.21382113821113" y="1116.0"/>
      <point x="555.8" y="1116.0" type="qcurve" smooth="yes"/>
      <point x="662.1644736842104" y="1116.0"/>
      <point x="754.2" y="1059.5" type="qcurve"/>
      <point x="882.9" y="1188.2" type="line"/>
      <point x="1022" y="1054.9" type="line"/>
      <point x="893.0" y="926.2" type="line"/>
      <point x="947.7" y="833.2398907103825"/>
      <point x="947.7" y="723.7" type="qcurve" smooth="yes"/>
      <point x="947.7" y="608.5754098360657"/>
      <point x="893" y="519.8" type="qcurve"/>
      <point x="1018.5" y="394.7" type="line"/>
    </contour>
    <contour>
      <point x="555.1" y="523.5" type="qcurve" smooth="yes"/>
      <point x="639.5500000000002" y="523.5"/>
      <point x="757.6" y="640.925"/>
      <point x="757.6" y="722.3" type="qcurve" smooth="yes"/>
      <point x="757.6" y="807.2"/>
      <point x="640.0" y="924.5"/>
      <point x="555.1" y="924.5" type="qcurve" smooth="yes"/>
      <point x="472.15" y="924.5"/>
      <point x="355.6" y="807.35"/>
      <point x="355.6" y="722.3" type="qcurve" smooth="yes"/>
      <point x="355.6" y="639.6500000000001"/>
      <point x="471.7" y="523.5"/>
    </contour>
  </outline>
</glyph>
<glyph name="section" format="1">
  <advance width="872"/>
  <unicode hex="00A7"/>
  <note>
section
</note>
  <outline>
    <contour>
      <point x="378.4" y="-35.0" type="qcurve" smooth="yes"/>
      <point x="276.85" y="-35.0"/>
      <point x="126.55000000000001" y="0.07499999999999929"/>
      <point x="82" y="23.1" type="qcurve"/>
      <point x="82.0" y="215.5" type="line"/>
      <point x="133.0" y="190.95"/>
      <point x="231.83333333333337" y="158.74166666666667"/>
      <point x="329.4" y="142.9"/>
      <point x="378.5" y="142.9" type="qcurve" smooth="yes"/>
      <point x="451.17499999999995" y="142.9"/>
      <point x="537.5" y="196.84999999999997"/>
      <point x="537.5" y="254.9" type="qcurve" smooth="yes"/>
      <point x="537.5" y="284.45000000000005"/>
      <point x="505.17500000000007" y="334.825"/>
      <point x="463.1" y="362.2" type="qcurve" smooth="yes"/>
      <point x="439.4" y="377.80000000000007"/>
      <point x="390.90000000000003" y="407.99999999999994"/>
      <point x="364.5" y="423.9" type="qcurve" smooth="yes"/>
      <point x="319.72499999999997" y="451.05"/>
      <point x="248.95000000000002" y="500.225"/>
      <point x="221.5" y="523.7" type="qcurve" smooth="yes"/>
      <point x="185.72500000000002" y="552.275"/>
      <point x="136.47500000000002" y="610.625"/>
      <point x="121.7" y="643.1" type="qcurve" smooth="yes"/>
      <point x="93.9" y="703.3068571428571"/>
      <point x="93.9" y="774.7" type="qcurve" smooth="yes"/>
      <point x="93.9" y="856.2249999999999"/>
      <point x="164.425" y="982.7750000000001"/>
      <point x="222.7" y="1022.0" type="qcurve"/>
      <point x="163.675" y="1062.0500000000002"/>
      <point x="99.9" y="1194.575"/>
      <point x="99.9" y="1270.1" type="qcurve" smooth="yes"/>
      <point x="99.9" y="1402.2499999999998"/>
      <point x="284.35" y="1558.8"/>
      <point x="447.7" y="1558.8" type="qcurve" smooth="yes"/>
      <point x="542.65" y="1558.8"/>
      <point x="704.5000000000001" y="1516.9999999999998"/>
      <point x="771.7" y="1489.1" type="qcurve"/>
      <point x="706.8" y="1305.2" type="line"/>
      <point x="679.95" y="1318.5500000000002"/>
      <point x="593.8583333333333" y="1351.825"/>
      <point x="495.4" y="1376.2"/>
      <point x="450.0" y="1376.2" type="qcurve" smooth="yes"/>
      <point x="386.84999999999997" y="1376.2"/>
      <point x="330.1" y="1320.5"/>
      <point x="330.1" y="1280.0" type="qcurve" smooth="yes"/>
      <point x="330.1" y="1249.0499999999997"/>
      <point x="357.7333333333333" y="1201.7249999999997"/>
      <point x="417.1" y="1156.5"/>
      <point x="464.7" y="1128.7" type="qcurve" smooth="yes"/>
      <point x="497.4" y="1109.7999999999997"/>
      <point x="538.9499999999999" y="1084.7250000000001"/>
      <point x="549.0" y="1077.0" type="qcurve"/>
      <point x="585.0374999999999" y="1056.2624999999998"/>
      <point x="664.6651041666668" y="1001.3458333333333"/>
      <point x="734.2098958333335" y="924.9041666666667"/>
      <point x="777.8" y="819.6625"/>
      <point x="777.8" y="748.6" type="qcurve" smooth="yes"/>
      <point x="777.8" y="668.95"/>
      <point x="715.3750000000001" y="538.1999999999999"/>
      <point x="653.2" y="492.3" type="qcurve"/>
      <point x="710.05" y="449.4000000000001"/>
      <point x="768.0" y="355.125"/>
      <point x="768.0" y="274.5" type="qcurve" smooth="yes"/>
      <point x="768.0" y="131.54999999999998"/>
      <point x="580.9" y="-35.0"/>
    </contour>
    <contour>
      <point x="514.1" y="579.7" type="qcurve"/>
      <point x="536.225" y="610.675"/>
      <point x="557.1" y="683.525"/>
      <point x="557.1" y="713.9" type="qcurve" smooth="yes"/>
      <point x="557.1" y="753.65"/>
      <point x="519.75" y="830.5749999999998"/>
      <point x="477.0" y="867.4" type="qcurve" smooth="yes"/>
      <point x="457.72499999999997" y="883.9750000000001"/>
      <point x="403.05000000000007" y="919.4250000000002"/>
      <point x="373.2" y="933.6" type="qcurve"/>
      <point x="345.375" y="917.5500000000002"/>
      <point x="307.0" y="845.075"/>
      <point x="307.0" y="795.8" type="qcurve" smooth="yes"/>
      <point x="307.0" y="745.175"/>
      <point x="369.12500000000006" y="668.55"/>
      <point x="452.6" y="615.9" type="qcurve" smooth="yes"/>
      <point x="476.67499999999995" y="599.925"/>
      <point x="497.45" y="588.025"/>
    </contour>
  </outline>
</glyph>
<glyph name="copyright" format="1">
  <advance width="1688"/>
  <unicode hex="00A9"/>
  <note>
copyright
</note>
  <outline>
    <contour>
      <point x="882.5" y="264.3" type="qcurve" smooth="yes"/>
      <point x="680.0" y="264.3"/>
      <point x="456.8" y="510.92499999999995"/>
      <point x="456.8" y="734.8" type="qcurve" smooth="yes"/>
      <point x="456.8" y="952.0"/>
      <point x="676.8749999999999" y="1196.0"/>
      <point x="871.8" y="1196.0" type="qcurve" smooth="yes"/>
      <point x="942.075" y="1196.0"/>
      <point x="1087.5" y="1160.975"/>
      <point x="1168.8" y="1121.6" type="qcurve"/>
      <point x="1098.2" y="960.9" type="line"/>
      <point x="1044.2" y="989.175"/>
      <point x="936.8000000000002" y="1017.8"/>
      <point x="892.1" y="1017.8" type="qcurve" smooth="yes"/>
      <point x="786.575" y="1017.8"/>
      <point x="673.8" y="870.35"/>
      <point x="673.8" y="725.3" type="qcurve" smooth="yes"/>
      <point x="673.8" y="585.4999999999999"/>
      <point x="776.875" y="442.5"/>
      <point x="891.1" y="442.5" type="qcurve" smooth="yes"/>
      <point x="943.075" y="442.5"/>
      <point x="1079.0" y="474.775"/>
      <point x="1125.5" y="500.2" type="qcurve"/>
      <point x="1125.5" y="318.4" type="line"/>
      <point x="1011.6366391184571" y="264.3"/>
    </contour>
    <contour>
      <point x="846.4" y="-20.0" type="qcurve" smooth="yes"/>
      <point x="637.8249999999998" y="-20.0"/>
      <point x="289.2" y="184.64999999999998"/>
      <point x="189.6" y="360.0" type="qcurve" smooth="yes"/>
      <point x="142.425" y="443.09999999999997"/>
      <point x="91.6" y="629.0249999999999"/>
      <point x="91.6" y="729.6" type="qcurve" smooth="yes"/>
      <point x="91.6" y="930.8999999999999"/>
      <point x="291.85" y="1280.75"/>
      <point x="466.6" y="1382.0" type="qcurve" smooth="yes"/>
      <point x="555.3999999999999" y="1433.3000000000002"/>
      <point x="744.4499999999999" y="1483.0"/>
      <point x="841.5" y="1483.0" type="qcurve" smooth="yes"/>
      <point x="1036.5" y="1483.0"/>
      <point x="1386.7" y="1290.625"/>
      <point x="1491.1" y="1114.3" type="qcurve" smooth="yes"/>
      <point x="1543.975" y="1024.4500000000003"/>
      <point x="1594.9" y="831.3750000000001"/>
      <point x="1594.9" y="731.7" type="qcurve" smooth="yes"/>
      <point x="1594.9" y="529.7249999999999"/>
      <point x="1397.5" y="184.39999999999998"/>
      <point x="1221.7" y="81.2" type="qcurve" smooth="yes"/>
      <point x="1133.4249999999997" y="29.450000000000003"/>
      <point x="945.4" y="-20.0"/>
    </contour>
    <contour>
      <point x="843.6" y="115.4" type="qcurve" smooth="yes"/>
      <point x="1011.8999999999999" y="115.4"/>
      <point x="1297.225" y="280.77500000000003"/>
      <point x="1378.6" y="422.0" type="qcurve" smooth="yes"/>
      <point x="1419.7" y="493.54999999999995"/>
      <point x="1459.9" y="649.975"/>
      <point x="1459.9" y="730.3" type="qcurve" smooth="yes"/>
      <point x="1459.9" y="897.9999999999999"/>
      <point x="1295.2" y="1181.375"/>
      <point x="1152.7" y="1264.7" type="qcurve" smooth="yes"/>
      <point x="1009.8046345811051" y="1347.6"/>
      <point x="845.0" y="1347.6" type="qcurve" smooth="yes"/>
      <point x="680.8249999999999" y="1347.6"/>
      <point x="395.2249999999999" y="1185.0499999999997"/>
      <point x="310.7" y="1039.7" type="qcurve" smooth="yes"/>
      <point x="227.3" y="896.1985765124555"/>
      <point x="227.3" y="733.1" type="qcurve" smooth="yes"/>
      <point x="227.3" y="567.95"/>
      <point x="392.15000000000003" y="279.125"/>
      <point x="536.0" y="196.7" type="qcurve" smooth="yes"/>
      <point x="603.875" y="157.7"/>
      <point x="759.075" y="115.4"/>
    </contour>
  </outline>
</glyph>
<glyph name="ordfeminine" format="1">
  <advance width="682"/>
  <unicode hex="00AA"/>
  <note>
ordfeminine
</note>
  <outline>
    <contour>
      <point x="247.9" y="758.1" type="qcurve" smooth="yes"/>
      <point x="165.09999999999997" y="758.1"/>
      <point x="57.0" y="862.5000000000001"/>
      <point x="57.0" y="973.2" type="qcurve" smooth="yes"/>
      <point x="57.0" y="1082.325"/>
      <point x="185.45" y="1192.4500000000003"/>
      <point x="335.9" y="1199.8" type="qcurve" smooth="yes"/>
      <point x="418.1" y="1204.3" type="line"/>
      <point x="418.1" y="1211.9" type="line" smooth="yes"/>
      <point x="418.1" y="1331.3"/>
      <point x="315.5" y="1331.3" type="qcurve" smooth="yes"/>
      <point x="245.60569948186503" y="1331.3"/>
      <point x="152.1" y="1274.1" type="qcurve"/>
      <point x="95.4" y="1401.1" type="line"/>
      <point x="224.2288201160542" y="1479.0"/>
      <point x="349.7" y="1479.0" type="qcurve" smooth="yes"/>
      <point x="468.575" y="1479.0"/>
      <point x="586.2" y="1341.575"/>
      <point x="586.2" y="1216.7" type="qcurve" smooth="yes"/>
      <point x="586.2" y="770.1" type="line"/>
      <point x="469" y="770.1" type="line"/>
      <point x="442.1" y="874.4" type="line"/>
      <point x="441.1" y="874.4" type="line"/>
      <point x="373.4006675567423" y="758.1"/>
    </contour>
    <contour>
      <point x="296.4" y="900.6" type="qcurve" smooth="yes"/>
      <point x="350.025" y="900.6"/>
      <point x="418.1" y="980.7249999999999"/>
      <point x="418.1" y="1052.2" type="qcurve" smooth="yes"/>
      <point x="418.1" y="1091.6" type="line"/>
      <point x="345.6" y="1084.6" type="line" smooth="yes"/>
      <point x="229.1" y="1072.4886138613863"/>
      <point x="229.1" y="976.5" type="qcurve" smooth="yes"/>
      <point x="229.1" y="900.6"/>
    </contour>
  </outline>
</glyph>
<glyph name="registered" format="1">
  <advance width="1688"/>
  <unicode hex="00AE"/>
  <note>
registered
</note>
  <outline>
    <contour>
      <point x="846.4" y="-20.0" type="qcurve" smooth="yes"/>
      <point x="637.8249999999998" y="-20.0"/>
      <point x="289.2" y="184.64999999999998"/>
      <point x="189.6" y="360.0" type="qcurve" smooth="yes"/>
      <point x="142.425" y="443.09999999999997"/>
      <point x="91.6" y="629.0249999999999"/>
      <point x="91.6" y="729.6" type="qcurve" smooth="yes"/>
      <point x="91.6" y="930.8999999999999"/>
      <point x="291.85" y="1280.75"/>
      <point x="466.6" y="1382.0" type="qcurve" smooth="yes"/>
      <point x="555.3999999999999" y="1433.3000000000002"/>
      <point x="744.4499999999999" y="1483.0"/>
      <point x="841.5" y="1483.0" type="qcurve" smooth="yes"/>
      <point x="1036.5" y="1483.0"/>
      <point x="1386.7" y="1290.625"/>
      <point x="1491.1" y="1114.3" type="qcurve" smooth="yes"/>
      <point x="1543.975" y="1024.4500000000003"/>
      <point x="1594.9" y="831.3750000000001"/>
      <point x="1594.9" y="731.7" type="qcurve" smooth="yes"/>
      <point x="1594.9" y="529.7249999999999"/>
      <point x="1397.5" y="184.39999999999998"/>
      <point x="1221.7" y="81.2" type="qcurve" smooth="yes"/>
      <point x="1133.4249999999997" y="29.450000000000003"/>
      <point x="945.4" y="-20.0"/>
    </contour>
    <contour>
      <point x="843.6" y="115.4" type="qcurve" smooth="yes"/>
      <point x="1011.8999999999999" y="115.4"/>
      <point x="1297.225" y="280.77500000000003"/>
      <point x="1378.6" y="422.0" type="qcurve" smooth="yes"/>
      <point x="1419.7" y="493.54999999999995"/>
      <point x="1459.9" y="649.975"/>
      <point x="1459.9" y="730.3" type="qcurve" smooth="yes"/>
      <point x="1459.9" y="897.9999999999999"/>
      <point x="1295.2" y="1181.375"/>
      <point x="1152.7" y="1264.7" type="qcurve" smooth="yes"/>
      <point x="1009.8046345811051" y="1347.6"/>
      <point x="845.0" y="1347.6" type="qcurve" smooth="yes"/>
      <point x="680.8249999999999" y="1347.6"/>
      <point x="395.2249999999999" y="1185.0499999999997"/>
      <point x="310.7" y="1039.7" type="qcurve" smooth="yes"/>
      <point x="227.3" y="896.1985765124555"/>
      <point x="227.3" y="733.1" type="qcurve" smooth="yes"/>
      <point x="227.3" y="567.95"/>
      <point x="392.15000000000003" y="279.125"/>
      <point x="536.0" y="196.7" type="qcurve" smooth="yes"/>
      <point x="603.875" y="157.7"/>
      <point x="759.075" y="115.4"/>
    </contour>
    <contour>
      <point x="542.9" y="273.5" type="line"/>
      <point x="542.9" y="1185.7" type="line"/>
      <point x="800.8" y="1185.7" type="line" smooth="yes"/>
      <point x="978.175" y="1185.7"/>
      <point x="1146.6" y="1051.9"/>
      <point x="1146.6" y="912.4" type="qcurve" smooth="yes"/>
      <point x="1146.6" y="819.925"/>
      <point x="1073.9750000000001" y="706.3999999999999"/>
      <point x="998.9" y="673.1" type="qcurve"/>
      <point x="1236.8" y="273.5" type="line"/>
      <point x="998.9" y="273.5" type="line"/>
      <point x="815.1" y="616" type="line"/>
      <point x="758.7" y="616" type="line"/>
      <point x="758.7" y="273.5" type="line"/>
    </contour>
    <contour>
      <point x="758.7" y="775.8" type="line"/>
      <point x="797.2" y="775.8" type="line" smooth="yes"/>
      <point x="867.4749999999999" y="775.8"/>
      <point x="929.9" y="834.4250000000002"/>
      <point x="929.9" y="901.1" type="qcurve" smooth="yes"/>
      <point x="929.9" y="972.125"/>
      <point x="865.0999999999999" y="1023.4"/>
      <point x="795.2" y="1023.4" type="qcurve" smooth="yes"/>
      <point x="758.7" y="1023.4" type="line"/>
    </contour>
  </outline>
</glyph>
<glyph name="degree" format="1">
  <advance width="831"/>
  <unicode hex="00B0"/>
  <note>
degree
</note>
  <outline>
    <contour>
      <point x="415.6" y="805.2" type="qcurve" smooth="yes"/>
      <point x="320.0000000000001" y="805.2000000000003"/>
      <point x="166.13333333333333" y="895.5333333333333"/>
      <point x="76.0" y="1048.6"/>
      <point x="76.0" y="1142.7" type="qcurve" smooth="yes"/>
      <point x="76.0" y="1235.2499999999998"/>
      <point x="167.05" y="1389.975"/>
      <point x="321.0999999999999" y="1483.0"/>
      <point x="415.6" y="1483.0" type="qcurve" smooth="yes"/>
      <point x="508.0" y="1483.0"/>
      <point x="663.0999999999999" y="1390.85"/>
      <point x="756.6" y="1236.3000000000002"/>
      <point x="756.6" y="1142.7" type="qcurve" smooth="yes"/>
      <point x="756.6" y="1048.75"/>
      <point x="664.85" y="895.6583333333333"/>
      <point x="510.10000000000014" y="805.2000000000003"/>
    </contour>
    <contour>
      <point x="415.6" y="981.0" type="qcurve" smooth="yes"/>
      <point x="481.37500000000006" y="981.0"/>
      <point x="578.4" y="1075.95"/>
      <point x="578.4" y="1142.7" type="qcurve" smooth="yes"/>
      <point x="578.4" y="1210.7999999999997"/>
      <point x="482.275" y="1306.5"/>
      <point x="415.6" y="1306.5" type="qcurve" smooth="yes"/>
      <point x="349.225" y="1306.5"/>
      <point x="252.1" y="1209.375"/>
      <point x="252.1" y="1142.7" type="qcurve" smooth="yes"/>
      <point x="252.1" y="1076.1000000000004"/>
      <point x="350.12500000000006" y="981.0"/>
    </contour>
  </outline>
</glyph>
<glyph name="paragraph" format="1">
  <advance width="1083"/>
  <unicode hex="00B6"/>
  <note>
paragraph
</note>
  <outline>
    <contour>
      <point x="478.8" y="-260" type="line"/>
      <point x="478.8" y="559.0" type="line"/>
      <point x="434.1" y="541.0"/>
      <point x="373.4" y="541.0" type="qcurve" smooth="yes"/>
      <point x="284.26249999999993" y="541.0"/>
      <point x="164.55781249999998" y="617.1453125000002"/>
      <point x="93.76718749999999" y="753.5296875"/>
      <point x="63.2" y="935.8375000000001"/>
      <point x="63.2" y="1042.0" type="qcurve" smooth="yes"/>
      <point x="63.2" y="1299.1000000000001"/>
      <point x="224.02499999999998" y="1556.0"/>
      <point x="399.3" y="1556" type="qcurve" smooth="yes"/>
      <point x="947.9" y="1556" type="line"/>
      <point x="947.9" y="-260" type="line"/>
      <point x="795.1" y="-260" type="line"/>
      <point x="795.1" y="1364.1" type="line"/>
      <point x="632.3" y="1364.1" type="line"/>
      <point x="632.3" y="-260" type="line"/>
    </contour>
  </outline>
</glyph>
<glyph name="periodcentered" format="1">
  <advance width="553"/>
  <unicode hex="00B7"/>
  <note>
periodcentered
</note>
  <outline>
    <contour>
      <point x="276.1" y="558.7" type="qcurve" smooth="yes"/>
      <point x="195.10000000000002" y="558.7"/>
      <point x="110.6" y="645.7"/>
      <point x="110.6" y="723.1" type="qcurve" smooth="yes"/>
      <point x="110.6" y="801.0249999999999"/>
      <point x="194.575" y="886.5"/>
      <point x="276.1" y="886.5" type="qcurve" smooth="yes"/>
      <point x="442.3" y="886.5"/>
      <point x="442.3" y="723.1" type="qcurve" smooth="yes"/>
      <point x="442.3" y="645.1"/>
      <point x="355.075" y="558.7"/>
    </contour>
  </outline>
</glyph>
<glyph name="onesuperior" format="1">
  <advance width="688"/>
  <unicode hex="00B9"/>
  <note>
onesuperior
</note>
  <outline>
    <contour>
      <point x="304" y="586" type="line"/>
      <point x="304.0" y="1047.0" type="line" smooth="yes"/>
      <point x="304.0" y="1082.0"/>
      <point x="306.33333333333337" y="1161.4166666666665"/>
      <point x="310.0" y="1232.5"/>
      <point x="312.0" y="1255.0" type="qcurve"/>
      <point x="298.5" y="1242.25"/>
      <point x="275.25" y="1219.75"/>
      <point x="264.0" y="1210.0" type="qcurve" smooth="yes"/>
      <point x="247.5" y="1194.25"/>
      <point x="198.0" y="1151.0"/>
      <point x="159" y="1118" type="qcurve"/>
      <point x="66" y="1235" type="line"/>
      <point x="340" y="1462" type="line"/>
      <point x="501" y="1462" type="line"/>
      <point x="501" y="586" type="line"/>
    </contour>
  </outline>
</glyph>
<glyph name="guillemetright" format="1">
  <advance width="1141"/>
  <unicode hex="00BB"/>
  <note>
guillemotright
</note>
  <outline>
    <contour>
      <point x="273" y="97" type="line"/>
      <point x="74" y="209" type="line"/>
      <point x="294" y="557" type="line"/>
      <point x="74" y="905" type="line"/>
      <point x="273" y="1016" type="line"/>
      <point x="581" y="570" type="line"/>
      <point x="581" y="543" type="line"/>
    </contour>
    <contour>
      <point x="553" y="97" type="line"/>
      <point x="355" y="209" type="line"/>
      <point x="573" y="557" type="line"/>
      <point x="355" y="905" type="line"/>
      <point x="553" y="1016" type="line"/>
      <point x="860" y="570" type="line"/>
      <point x="860" y="543" type="line"/>
    </contour>
  </outline>
</glyph>
<glyph name="Eth" format="1">
  <advance width="1143"/>
  <unicode hex="00D0"/>
  <note>
Eth
</note>
  <outline>
    <contour>
      <point x="130" y="0" type="line"/>
      <point x="130" y="604" type="line"/>
      <point x="0" y="604" type="line"/>
      <point x="0" y="842" type="line"/>
      <point x="130" y="842" type="line"/>
      <point x="130" y="1462" type="line"/>
      <point x="522.0" y="1462.0" type="line" smooth="yes"/>
      <point x="691.5" y="1462.0"/>
      <point x="932.25" y="1291.8333333333333"/>
      <point x="1060.0" y="971.0"/>
      <point x="1060.0" y="745.0" type="qcurve" smooth="yes"/>
      <point x="1060.0" y="382.75"/>
      <point x="765.5" y="0.0"/>
      <point x="488" y="0" type="qcurve" smooth="yes"/>
    </contour>
    <contour>
      <point x="402" y="238" type="line"/>
      <point x="490.0" y="238.0" type="line" smooth="yes"/>
      <point x="639.25" y="238.0"/>
      <point x="781.0" y="487.25"/>
      <point x="781.0" y="737.0" type="qcurve" smooth="yes"/>
      <point x="781.0" y="982.25"/>
      <point x="646.0" y="1227.0"/>
      <point x="511" y="1227" type="qcurve" smooth="yes"/>
      <point x="402" y="1227" type="line"/>
      <point x="402" y="842" type="line"/>
      <point x="585" y="842" type="line"/>
      <point x="585" y="604" type="line"/>
      <point x="402" y="604" type="line"/>
    </contour>
  </outline>
</glyph>
<glyph name="multiply" format="1">
  <advance width="918"/>
  <unicode hex="00D7"/>
  <note>
multiply
</note>
  <outline>
    <contour>
      <point x="497" y="275" type="line"/>
      <point x="352" y="495" type="line"/>
      <point x="313" y="381" type="line"/>
      <point x="92" y="563" type="line"/>
      <point x="268" y="827" type="line"/>
      <point x="196" y="984" type="line"/>
      <point x="417" y="1166" type="line"/>
      <point x="562" y="954" type="line"/>
      <point x="600" y="1060" type="line"/>
      <point x="820" y="878" type="line"/>
      <point x="646" y="619" type="line"/>
      <point x="718" y="459" type="line"/>
    </contour>
  </outline>
</glyph>
<glyph name="Oslash" format="1">
  <advance width="1219"/>
  <unicode hex="00D8"/>
  <note>
Oslash
</note>
  <outline>
    <contour>
      <point x="299.1" y="-102.4" type="line"/>
      <point x="133.1" y="-24.8" type="line"/>
      <point x="229.0" y="161.8" type="line"/>
      <point x="84.4" y="354.10309278350513"/>
      <point x="84.4" y="735.0" type="qcurve" smooth="yes"/>
      <point x="84.4" y="1097.775"/>
      <point x="356.70000000000005" y="1485.1"/>
      <point x="612.0" y="1485.1" type="qcurve" smooth="yes"/>
      <point x="748.048888888889" y="1485.1"/>
      <point x="863.8" y="1417.1" type="qcurve"/>
      <point x="936" y="1559.5" type="line"/>
      <point x="1102" y="1482.8" type="line"/>
      <point x="1001.4" y="1285.8" type="line"/>
      <point x="1134.6" y="1092.94693877551"/>
      <point x="1134.6" y="733.0" type="qcurve" smooth="yes"/>
      <point x="1134.6" y="370.0"/>
      <point x="862.7500000000001" y="-20.0"/>
      <point x="609.7" y="-20.0" type="qcurve" smooth="yes"/>
      <point x="473.5889460154242" y="-20.0"/>
      <point x="369.3" y="37.3" type="qcurve"/>
    </contour>
    <contour>
      <point x="383.3" y="467.3" type="qcurve"/>
      <point x="753.9" y="1195.7" type="line"/>
      <point x="703.4689759036146" y="1244.8"/>
      <point x="612.0" y="1244.8" type="qcurve" smooth="yes"/>
      <point x="488.55000000000007" y="1244.8"/>
      <point x="361.4" y="984.6999999999999"/>
      <point x="361.4" y="733.0" type="qcurve" smooth="yes"/>
      <point x="361.4" y="576.1958620689657"/>
    </contour>
    <contour>
      <point x="609.7" y="221.0" type="qcurve" smooth="yes"/>
      <point x="856.9" y="221.0"/>
      <point x="856.9" y="733.0" type="qcurve" smooth="yes"/>
      <point x="856.9" y="886.4364705882351"/>
      <point x="844.3" y="969.3" type="qcurve"/>
      <point x="480.9" y="260.0" type="line"/>
      <point x="529.2359073359073" y="221.0"/>
    </contour>
    <contour>
      <point x="610" y="0" type="move" name="bottom"/>
    </contour>
    <contour>
      <point x="610" y="1462" type="move" name="top"/>
    </contour>
  </outline>
</glyph>
<glyph name="Thorn" format="1">
  <advance width="981"/>
  <unicode hex="00DE"/>
  <note>
Thorn
</note>
  <outline>
    <contour>
      <point x="128.5" y="0" type="line"/>
      <point x="128.5" y="1462" type="line"/>
      <point x="400.8" y="1462" type="line"/>
      <point x="400.8" y="1229.1" type="line"/>
      <point x="498.6" y="1229.1" type="line" smooth="yes"/>
      <point x="712.35" y="1229.1"/>
      <point x="926.0" y="1003.45"/>
      <point x="926.0" y="777.7" type="qcurve" smooth="yes"/>
      <point x="926.0" y="544.3"/>
      <point x="691.8000000000002" y="295.5"/>
      <point x="468.6" y="295.5" type="qcurve" smooth="yes"/>
      <point x="400.8" y="295.5" type="line"/>
      <point x="400.8" y="0" type="line"/>
    </contour>
    <contour>
      <point x="400.8" y="529.5" type="line"/>
      <point x="453.3" y="529.5" type="line" smooth="yes"/>
      <point x="552.675" y="529.5"/>
      <point x="651.0" y="641.625"/>
      <point x="651.0" y="767.1" type="qcurve" smooth="yes"/>
      <point x="651.0" y="881.5500000000002"/>
      <point x="560.1500000000001" y="995.2"/>
      <point x="468.5" y="995.2" type="qcurve" smooth="yes"/>
      <point x="400.8" y="995.2" type="line"/>
    </contour>
    <contour>
      <point x="490.7" y="0" type="move" name="bottom"/>
    </contour>
    <contour>
      <point x="490.7" y="1462" type="move" name="top"/>
    </contour>
  </outline>
</glyph>
<glyph name="germandbls" format="1">
  <advance width="1108"/>
  <unicode hex="00DF"/>
  <note>
germandbls
</note>
  <outline>
    <contour>
      <point x="681.8" y="-20.0" type="qcurve" smooth="yes"/>
      <point x="611.675" y="-20.0"/>
      <point x="496.67500000000007" y="6.75"/>
      <point x="450.7" y="33" type="qcurve"/>
      <point x="450.7" y="257.6" type="line"/>
      <point x="503.80000000000007" y="222.35000000000002"/>
      <point x="607.025" y="188.3"/>
      <point x="659.9" y="188.3" type="qcurve" smooth="yes"/>
      <point x="725.3" y="188.3"/>
      <point x="793.6" y="251.55"/>
      <point x="793.6" y="312.9" type="qcurve" smooth="yes"/>
      <point x="793.6" y="346.15"/>
      <point x="773.5499999999998" y="405.125"/>
      <point x="712.9000000000001" y="474.4000000000001"/>
      <point x="652.0" y="523.1" type="qcurve" smooth="yes"/>
      <point x="591.0" y="570.1000000000001"/>
      <point x="517.7166666666667" y="656.4083333333332"/>
      <point x="485.10000000000014" y="747.3500000000001"/>
      <point x="485.1" y="801.3" type="qcurve" smooth="yes"/>
      <point x="485.1" y="855.3749999999999"/>
      <point x="532.0250000000001" y="962.2"/>
      <point x="588.8" y="1017.1" type="qcurve" smooth="yes"/>
      <point x="648.8749999999999" y="1073.35"/>
      <point x="692.5" y="1158.4"/>
      <point x="692.5" y="1202.2" type="qcurve" smooth="yes"/>
      <point x="692.5" y="1269.1000000000004"/>
      <point x="615.4250000000001" y="1346.1"/>
      <point x="540.5" y="1346.1" type="qcurve" smooth="yes"/>
      <point x="460.32500000000005" y="1346.1"/>
      <point x="379.3" y="1243.725"/>
      <point x="379.3" y="1143.3" type="qcurve" smooth="yes"/>
      <point x="379.3" y="0" type="line"/>
      <point x="112.8" y="0" type="line"/>
      <point x="112.8" y="1150.8" type="line" smooth="yes"/>
      <point x="112.8" y="1352.475"/>
      <point x="337.67499999999995" y="1567.0"/>
      <point x="541.3" y="1567.0" type="qcurve" smooth="yes"/>
      <point x="673.75" y="1567.0"/>
      <point x="862.7750000000001" y="1490.533333333333"/>
      <point x="963.5" y="1347.1999999999998"/>
      <point x="963.5" y="1246.9" type="qcurve" smooth="yes"/>
      <point x="963.5" y="1171.975"/>
      <point x="935.825" y="1076.225"/>
      <point x="908.3" y="1039.4" type="qcurve"/>
      <point x="893.5250000000001" y="1015.55"/>
      <point x="858.3000000000002" y="978.9"/>
      <point x="836.1" y="958.2" type="qcurve" smooth="yes"/>
      <point x="781.95" y="910.65"/>
      <point x="743.0" y="855.325"/>
      <point x="743.0" y="822.1" type="qcurve" smooth="yes"/>
      <point x="743.0" y="793.75"/>
      <point x="779.95" y="743.975"/>
      <point x="832.3" y="701.6" type="qcurve"/>
      <point x="843.925" y="694.475"/>
      <point x="881.9749999999999" y="666.85"/>
      <point x="903.2" y="652.6" type="qcurve" smooth="yes"/>
      <point x="961.925" y="616.975"/>
      <point x="1027.5749999999998" y="534.9750000000001"/>
      <point x="1044.0" y="488.4" type="qcurve" smooth="yes"/>
      <point x="1056.3000000000002" y="452.925"/>
      <point x="1064.9" y="375.625"/>
      <point x="1064.9" y="332.2" type="qcurve" smooth="yes"/>
      <point x="1064.9" y="170.425"/>
      <point x="865.0250000000001" y="-20.0"/>
    </contour>
    <contour>
      <point x="554.1" y="0" type="move" name="bottom"/>
    </contour>
    <contour>
      <point x="554.1" y="1114.4" type="move" name="top"/>
    </contour>
  </outline>
</glyph>
<glyph name="ae" format="1">
  <advance width="1446"/>
  <unicode hex="00E6"/>
  <note>
ae
</note>
  <outline>
    <contour>
      <point x="369.7" y="-20.0" type="qcurve" smooth="yes"/>
      <point x="216.7" y="-20.0"/>
      <point x="54.9" y="157.47500000000002"/>
      <point x="54.9" y="326.0" type="qcurve" smooth="yes"/>
      <point x="54.9" y="500.67499999999995"/>
      <point x="244.57500000000005" y="675.2249999999999"/>
      <point x="440.4" y="684" type="qcurve" smooth="yes"/>
      <point x="587.5" y="690.7" type="line"/>
      <point x="587.5" y="768.1" type="line" smooth="yes"/>
      <point x="587.5" y="926.1"/>
      <point x="453.6" y="926.1" type="qcurve" smooth="yes"/>
      <point x="352.91954022988506" y="926.1"/>
      <point x="223.7" y="848.3" type="qcurve"/>
      <point x="130.9" y="1031.1" type="line"/>
      <point x="298.7130737134909" y="1137.5"/>
      <point x="491.2" y="1137.5" type="qcurve" smooth="yes"/>
      <point x="655.3368932038836" y="1137.5"/>
      <point x="750.3" y="1043.9" type="qcurve"/>
      <point x="849.9804635761592" y="1135.4"/>
      <point x="990.5" y="1135.4" type="qcurve" smooth="yes"/>
      <point x="1175.0" y="1135.4"/>
      <point x="1382.1" y="867.0250000000001"/>
      <point x="1382.1" y="631" type="qcurve" smooth="yes"/>
      <point x="1382.1" y="489.1" type="line"/>
      <point x="847.8" y="489.1" type="line"/>
      <point x="851.2499999999999" y="346.15"/>
      <point x="960.825" y="195.5"/>
      <point x="1074.3" y="195.5" type="qcurve" smooth="yes"/>
      <point x="1206.1959692898272" y="195.5"/>
      <point x="1335.2" y="275.8" type="qcurve"/>
      <point x="1335.2" y="56.9" type="line"/>
      <point x="1204.5896887159533" y="-19.999999999999996"/>
      <point x="1031.0" y="-20.0" type="qcurve" smooth="yes"/>
      <point x="797.1904522613066" y="-20.0"/>
      <point x="683.3" y="159.4" type="qcurve"/>
      <point x="625.9999999999999" y="65.57499999999999"/>
      <point x="476.05000000000007" y="-20.0"/>
    </contour>
    <contour>
      <point x="427.8" y="188.4" type="qcurve" smooth="yes"/>
      <point x="500.4000000000001" y="188.4"/>
      <point x="587.5" y="319.125"/>
      <point x="587.5" y="427.8" type="qcurve" smooth="yes"/>
      <point x="587.5" y="521.9" type="line"/>
      <point x="506.0" y="518.0" type="line" smooth="yes"/>
      <point x="413.90000000000003" y="513.3499999999999"/>
      <point x="329.9" y="416.2750000000001"/>
      <point x="329.9" y="326.8" type="qcurve" smooth="yes"/>
      <point x="329.9" y="188.4"/>
    </contour>
    <contour>
      <point x="853.3" y="682.2" type="qcurve"/>
      <point x="1124.3" y="682.2" type="line"/>
      <point x="1121.1499999999996" y="808.2"/>
      <point x="1050.175" y="929.8"/>
      <point x="991.3" y="929.8" type="qcurve" smooth="yes"/>
      <point x="866.7116666666667" y="929.8"/>
    </contour>
    <contour>
      <point x="722.4" y="0" type="move" name="bottom"/>
    </contour>
    <contour>
      <point x="722.4" y="1114.4" type="move" name="top"/>
    </contour>
  </outline>
</glyph>
<glyph name="eth" format="1">
  <advance width="1012"/>
  <unicode hex="00F0"/>
  <note>
eth
</note>
  <outline>
    <contour>
      <point x="501.7" y="-20.0" type="qcurve" smooth="yes"/>
      <point x="369.94999999999993" y="-20.0"/>
      <point x="177.90833333333333" y="102.375"/>
      <point x="73.7" y="328.04999999999995"/>
      <point x="73.7" y="483.0" type="qcurve" smooth="yes"/>
      <point x="73.7" y="643.05"/>
      <point x="164.325" y="870.425"/>
      <point x="336.65" y="991.1"/>
      <point x="459.2" y="991.1" type="qcurve" smooth="yes"/>
      <point x="519.95" y="991.1"/>
      <point x="621.9749999999999" y="932.2250000000001"/>
      <point x="664.5" y="874.4" type="qcurve"/>
      <point x="676.0" y="877.2" type="line"/>
      <point x="628.358861881217" y="1052.6732602760144"/>
      <point x="494" y="1194" type="qcurve"/>
      <point x="273.8" y="1049.3" type="line"/>
      <point x="178.1" y="1193.7" type="line"/>
      <point x="371.0" y="1317.1" type="line"/>
      <point x="345.95000000000005" y="1335.4"/>
      <point x="269.5" y="1383.4"/>
      <point x="217" y="1413.1" type="qcurve"/>
      <point x="310.9" y="1570.7" type="line"/>
      <point x="458.23758865248215" y="1494.6595744680853"/>
      <point x="545" y="1426.5" type="qcurve"/>
      <point x="752.6" y="1567.3" type="line"/>
      <point x="845.5" y="1423.2" type="line"/>
      <point x="675.7" y="1312.5" type="line"/>
      <point x="810.6250000000001" y="1171.8000000000002"/>
      <point x="937.7" y="803.1500000000001"/>
      <point x="937.7" y="569.3" type="qcurve" smooth="yes"/>
      <point x="937.7000000000003" y="385.69999999999993"/>
      <point x="835.0333333333334" y="121.64999999999999"/>
      <point x="640.1" y="-20.0"/>
    </contour>
    <contour>
      <point x="507.7" y="207.4" type="qcurve" smooth="yes"/>
      <point x="593.2" y="207.4"/>
      <point x="666.0" y="368.49999999999994"/>
      <point x="666.0" y="529.9" type="qcurve" smooth="yes"/>
      <point x="666.0" y="645.775"/>
      <point x="581.0999999999999" y="780.7"/>
      <point x="509.7" y="780.7" type="qcurve" smooth="yes"/>
      <point x="422.625" y="780.7"/>
      <point x="346.1" y="632.275"/>
      <point x="346.1" y="483.4" type="qcurve" smooth="yes"/>
      <point x="346.1" y="350.425"/>
      <point x="429.25" y="207.4"/>
    </contour>
  </outline>
</glyph>
<glyph name="divide" format="1">
  <advance width="918"/>
  <unicode hex="00F7"/>
  <note>
divide
</note>
  <outline>
    <contour>
      <point x="105.9" y="617.6" type="line"/>
      <point x="105.9" y="825.6" type="line"/>
      <point x="811.1" y="825.6" type="line"/>
      <point x="811.1" y="617.6" type="line"/>
    </contour>
    <contour>
      <point x="456.9" y="227.5" type="qcurve" smooth="yes"/>
      <point x="402.675" y="227.5"/>
      <point x="331.3" y="295.59999999999997"/>
      <point x="331.3" y="373.0" type="qcurve" smooth="yes"/>
      <point x="331.3" y="517.5"/>
      <point x="456.9" y="517.5" type="qcurve" smooth="yes"/>
      <point x="517.725" y="517.5"/>
      <point x="579.4" y="443.04999999999995"/>
      <point x="579.4" y="373.0" type="qcurve" smooth="yes"/>
      <point x="579.4" y="304.97499999999997"/>
      <point x="514.35" y="227.5"/>
    </contour>
    <contour>
      <point x="456.9" y="926.5" type="qcurve" smooth="yes"/>
      <point x="402.675" y="926.5"/>
      <point x="331.3" y="993.5999999999999"/>
      <point x="331.3" y="1071.0" type="qcurve" smooth="yes"/>
      <point x="331.3" y="1216.5"/>
      <point x="456.9" y="1216.5" type="qcurve" smooth="yes"/>
      <point x="517.725" y="1216.5"/>
      <point x="579.4" y="1142.1000000000001"/>
      <point x="579.4" y="1071.0" type="qcurve" smooth="yes"/>
      <point x="579.4" y="1004.0249999999999"/>
      <point x="514.35" y="926.5"/>
    </contour>
  </outline>
</glyph>
<glyph name="oslash" format="1">
  <advance width="1012"/>
  <unicode hex="00F8"/>
  <note>
oslash
</note>
  <outline>
    <contour>
      <point x="281.6" y="-96.1" type="line"/>
      <point x="119.1" y="-20.1" type="line"/>
      <point x="197.5" y="131.3" type="line"/>
      <point x="142.14999999999998" y="200.89999999999998"/>
      <point x="73.7" y="414.225"/>
      <point x="73.7" y="560.4" type="qcurve" smooth="yes"/>
      <point x="73.7" y="740.75"/>
      <point x="177.89166666666665" y="998.1916666666666"/>
      <point x="371.85" y="1135.4"/>
      <point x="506.5" y="1135.4" type="qcurve" smooth="yes"/>
      <point x="557.6500000000001" y="1135.4"/>
      <point x="646.4250000000002" y="1112.7999999999997"/>
      <point x="684.6" y="1094.2" type="qcurve"/>
      <point x="735.7" y="1190" type="line"/>
      <point x="894.7" y="1116.1" type="line"/>
      <point x="822.8" y="975.0" type="line"/>
      <point x="937.3" y="827.5942782834852"/>
      <point x="937.3" y="561.1" type="qcurve" smooth="yes"/>
      <point x="937.3" y="284.2"/>
      <point x="705.4" y="-20.0"/>
      <point x="503.2" y="-20.0" type="qcurve" smooth="yes"/>
      <point x="410.0028806584362" y="-20.0"/>
      <point x="338.1" y="16.1" type="qcurve"/>
    </contour>
    <contour>
      <point x="505.9" y="206.5" type="qcurve" smooth="yes"/>
      <point x="589.6000000000001" y="206.5"/>
      <point x="676.6" y="376.9"/>
      <point x="676.6" y="561.1" type="qcurve" smooth="yes"/>
      <point x="676.6" y="593.35"/>
      <point x="671.7249999999999" y="645.825"/>
      <point x="667" y="666.6" type="qcurve"/>
      <point x="441.9" y="226.6" type="line"/>
      <point x="454.8" y="216.475"/>
      <point x="487.15" y="206.5"/>
    </contour>
    <contour>
      <point x="349.3" y="433.3" type="qcurve"/>
      <point x="578.7" y="881.0" type="line"/>
      <point x="563.55" y="893.8249999999999"/>
      <point x="527.3500000000001" y="906.8"/>
      <point x="505.9" y="906.8" type="qcurve" smooth="yes"/>
      <point x="437.35" y="906.7999999999997"/>
      <point x="364.7749999999999" y="816.7666666666665"/>
      <point x="337.9" y="660.1999999999999"/>
      <point x="337.9" y="560.4" type="qcurve" smooth="yes"/>
      <point x="337.9" y="521.625"/>
      <point x="343.675" y="458.57499999999993"/>
    </contour>
    <contour>
      <point x="505.5" y="1114.4" type="move" name="top"/>
    </contour>
  </outline>
</glyph>
<glyph name="thorn" format="1">
  <advance width="1016"/>
  <unicode hex="00FE"/>
  <note>
thorn
</note>
  <outline>
    <contour>
      <point x="112.8" y="-492" type="line"/>
      <point x="112.8" y="1556" type="line"/>
      <point x="379.3" y="1556" type="line"/>
      <point x="379.3" y="1192.4" type="line" smooth="yes"/>
      <point x="379.3" y="1156.55"/>
      <point x="371.20000000000005" y="1037.8249999999998"/>
      <point x="365.5" y="968.9" type="qcurve"/>
      <point x="379.3" y="968.9" type="line"/>
      <point x="425.6500000000001" y="1058.3"/>
      <point x="538.5250000000001" y="1135.4"/>
      <point x="617.5" y="1135.4" type="qcurve" smooth="yes"/>
      <point x="771.25" y="1135.4"/>
      <point x="941.8" y="833.2"/>
      <point x="941.8" y="554.8" type="qcurve"/>
      <point x="941.7999999999997" y="377.44999999999993"/>
      <point x="861.6583333333333" y="119.60833333333332"/>
      <point x="712.1500000000001" y="-20.0"/>
      <point x="608.1" y="-20.0" type="qcurve" smooth="yes"/>
      <point x="538.2749999999999" y="-20.0"/>
      <point x="426.175" y="45.45000000000002"/>
      <point x="379.3" y="126.9" type="qcurve"/>
      <point x="365.3" y="126.9" type="line"/>
      <point x="371.80000000000007" y="72.95"/>
      <point x="378.31666666666655" y="12.625"/>
      <point x="380.5" y="-21.799999999999997"/>
      <point x="380.5" y="-36.9" type="qcurve" smooth="yes"/>
      <point x="380.5" y="-492" type="line"/>
    </contour>
    <contour>
      <point x="521.0" y="183.6" type="qcurve" smooth="yes"/>
      <point x="564.3499999999999" y="183.6"/>
      <point x="631.2749999999999" y="255.2"/>
      <point x="669.3" y="420.79999999999995"/>
      <point x="669.3" y="561.8" type="qcurve" smooth="yes"/>
      <point x="669.3" y="646.55"/>
      <point x="648.6166666666666" y="805.9749999999999"/>
      <point x="588.6000000000001" y="908.9"/>
      <point x="529.6" y="908.9" type="qcurve" smooth="yes"/>
      <point x="464.5" y="908.9"/>
      <point x="400.2" y="825.8249999999998"/>
      <point x="379.3" y="684.05"/>
      <point x="379.3" y="596" type="qcurve" smooth="yes"/>
      <point x="379.3" y="540.5" type="line" smooth="yes"/>
      <point x="379.3" y="433.5"/>
      <point x="401.1499999999999" y="272.8833333333333"/>
      <point x="462.20000000000005" y="183.6"/>
    </contour>
    <contour>
      <point x="508.6" y="0" type="move" name="bottom"/>
    </contour>
    <contour>
      <point x="508.6" y="1114.4" type="move" name="top"/>
    </contour>
  </outline>
</glyph>
<glyph name="dcroat" format="1">
  <advance width="1016"/>
  <unicode hex="0111"/>
  <note>
dcroat
</note>
  <outline>
    <contour>
      <point x="407.9" y="-20.0" type="qcurve" smooth="yes"/>
      <point x="252.8" y="-20.0"/>
      <point x="73.7" y="267.325"/>
      <point x="73.7" y="532.6" type="qcurve" smooth="yes"/>
      <point x="73.7" y="789.7"/>
      <point x="247.52500000000003" y="1085.0"/>
      <point x="406.0" y="1085.0" type="qcurve" smooth="yes"/>
      <point x="478.75" y="1085.0"/>
      <point x="590.75" y="1007.4750000000001"/>
      <point x="635" y="922.2" type="qcurve"/>
      <point x="650.7" y="922.2" type="line"/>
      <point x="645.7500000000001" y="984.45"/>
      <point x="639.2249999999999" y="1103.1750000000002"/>
      <point x="639" y="1137.6" type="qcurve" smooth="yes"/>
      <point x="639" y="1203.8" type="line"/>
      <point x="399.4" y="1203.8" type="line"/>
      <point x="399.4" y="1391.5" type="line"/>
      <point x="639" y="1391.5" type="line"/>
      <point x="639" y="1556" type="line"/>
      <point x="904.8" y="1556" type="line"/>
      <point x="904.8" y="1391.5" type="line"/>
      <point x="1028.4" y="1391.5" type="line"/>
      <point x="1028.4" y="1203.8" type="line"/>
      <point x="904.8" y="1203.8" type="line"/>
      <point x="904.8" y="0" type="line"/>
      <point x="707.1" y="0" type="line"/>
      <point x="664.6" y="144.9" type="line"/>
      <point x="653.1" y="144.9" type="line"/>
      <point x="609.75" y="61.05"/>
      <point x="485.82500000000005" y="-20.0"/>
    </contour>
    <contour>
      <point x="494.4" y="205.1" type="qcurve" smooth="yes"/>
      <point x="574.5749999999998" y="205.1"/>
      <point x="636.2" y="365.55"/>
      <point x="636.2" y="519.9" type="qcurve" smooth="yes"/>
      <point x="636.2" y="549.4" type="line" smooth="yes"/>
      <point x="636.2" y="632.3999999999999"/>
      <point x="617.6666666666667" y="772.0666666666666"/>
      <point x="556.2" y="856.4"/>
      <point x="491.8" y="856.4" type="qcurve" smooth="yes"/>
      <point x="417.32499999999993" y="856.4"/>
      <point x="346.3" y="689.2"/>
      <point x="346.3" y="527.8" type="qcurve" smooth="yes"/>
      <point x="346.3" y="442.0"/>
      <point x="368.3083333333333" y="294.94999999999993"/>
      <point x="431.95" y="205.1"/>
    </contour>
  </outline>
</glyph>
<glyph name="hbar" format="1">
  <advance width="1038"/>
  <unicode hex="0127"/>
  <note>
hbar
</note>
  <outline>
    <contour>
      <point x="112" y="0" type="line"/>
      <point x="112" y="1204" type="line"/>
      <point x="-12" y="1204" type="line"/>
      <point x="-12" y="1391" type="line"/>
      <point x="112" y="1391" type="line"/>
      <point x="112" y="1556" type="line"/>
      <point x="378" y="1556" type="line"/>
      <point x="378" y="1391" type="line"/>
      <point x="624" y="1391" type="line"/>
      <point x="624" y="1204" type="line"/>
      <point x="378" y="1204" type="line"/>
      <point x="378.0" y="1010.0" type="line" smooth="yes"/>
      <point x="378.0" y="995.0"/>
      <point x="374.91666666666663" y="964.5"/>
      <point x="369.5" y="934.0"/>
      <point x="366" y="919" type="qcurve"/>
      <point x="380.0" y="919.0" type="line"/>
      <point x="420.5" y="1004.5"/>
      <point x="547.25" y="1085.0"/>
      <point x="635.0" y="1085.0" type="qcurve" smooth="yes"/>
      <point x="779.0" y="1085.0"/>
      <point x="935.0" y="884.25"/>
      <point x="935" y="696" type="qcurve" smooth="yes"/>
      <point x="935" y="0" type="line"/>
      <point x="667" y="0" type="line"/>
      <point x="667.0" y="627.0" type="line" smooth="yes"/>
      <point x="667.0" y="742.5"/>
      <point x="606.75" y="858.0"/>
      <point x="540.0" y="858.0" type="qcurve" smooth="yes"/>
      <point x="458.5" y="858.0"/>
      <point x="418.0" y="774.0" type="qcurve" smooth="yes"/>
      <point x="396.25" y="727.5"/>
      <point x="378.0" y="593.75"/>
      <point x="378" y="506" type="qcurve" smooth="yes"/>
      <point x="378" y="0" type="line"/>
    </contour>
  </outline>
</glyph>
<glyph name="kgreenlandic" format="1">
  <advance width="965"/>
  <unicode hex="0138"/>
  <note>
kgreenlandic
</note>
  <outline>
    <contour>
      <point x="112.8" y="0" type="line"/>
      <point x="112.8" y="1114.4" type="line"/>
      <point x="379.3" y="1114.4" type="line"/>
      <point x="379.3" y="827.5" type="line" smooth="yes"/>
      <point x="379.3" y="767.9499999999999"/>
      <point x="372.025" y="649.925"/>
      <point x="366.7" y="590.9" type="qcurve"/>
      <point x="366.6" y="590.2" type="line"/>
      <point x="394.42499999999995" y="648.175"/>
      <point x="430.55" y="715.8499999999999"/>
      <point x="454.4" y="757.7" type="qcurve" smooth="yes"/>
      <point x="662" y="1114.4" type="line"/>
      <point x="943.5" y="1114.4" type="line"/>
      <point x="662.7" y="659.4" type="line"/>
      <point x="962.7" y="0" type="line"/>
      <point x="684.2" y="0" type="line"/>
      <point x="483.2" y="470.6" type="line"/>
      <point x="379.3" y="377" type="line"/>
      <point x="379.3" y="0" type="line"/>
    </contour>
    <contour>
      <point x="483.4" y="0" type="move" name="bottom"/>
    </contour>
    <contour>
      <point x="483.4" y="1114.4" type="move" name="top"/>
    </contour>
  </outline>
</glyph>
<glyph name="Ldot" format="1">
  <advance width="823"/>
  <unicode hex="013F"/>
  <note>
Ldot
</note>
  <outline>
    <contour>
      <point x="778.5" y="0" type="line"/>
      <point x="128.5" y="0" type="line"/>
      <point x="128.5" y="1462" type="line"/>
      <point x="400.8" y="1462" type="line"/>
      <point x="400.8" y="238.2" type="line"/>
      <point x="778.5" y="238.2" type="line"/>
    </contour>
    <contour>
      <point x="516.8" y="747.6" type="qcurve" smooth="yes"/>
      <point x="516.8" y="818.325"/>
      <point x="593.1" y="890.2"/>
      <point x="669.6" y="890.2" type="qcurve" smooth="yes"/>
      <point x="745.95" y="890.2"/>
      <point x="823.1" y="818.325"/>
      <point x="823.1" y="747.6" type="qcurve" smooth="yes"/>
      <point x="823.1" y="675.975"/>
      <point x="742.8000000000002" y="603.9"/>
      <point x="669.6" y="603.9" type="qcurve" smooth="yes"/>
      <point x="595.2" y="603.9"/>
      <point x="516.8" y="675.975"/>
    </contour>
  </outline>
</glyph>
<glyph name="ldot" format="1">
  <advance width="793"/>
  <unicode hex="0140"/>
  <note>
ldot
</note>
  <outline>
    <contour>
      <point x="379.3" y="1556" type="line"/>
      <point x="379.3" y="0" type="line"/>
      <point x="112.8" y="0" type="line"/>
      <point x="112.8" y="1556" type="line"/>
    </contour>
    <contour>
      <point x="486.6" y="693.6" type="qcurve" smooth="yes"/>
      <point x="486.6" y="764.325"/>
      <point x="563.2499999999999" y="836.2"/>
      <point x="640.8" y="836.2" type="qcurve" smooth="yes"/>
      <point x="717.1500000000001" y="836.2"/>
      <point x="794.3" y="764.325"/>
      <point x="794.3" y="693.6" type="qcurve" smooth="yes"/>
      <point x="794.3" y="621.45"/>
      <point x="713.9999999999999" y="549.9"/>
      <point x="640.8" y="549.9" type="qcurve" smooth="yes"/>
      <point x="565.8749999999999" y="549.9"/>
      <point x="486.6" y="621.45"/>
    </contour>
  </outline>
</glyph>
<glyph name="Eng" format="1">
  <advance width="1282"/>
  <unicode hex="014A"/>
  <note>
Eng
</note>
  <outline>
    <contour>
      <point x="767.8" y="-422.2" type="qcurve" smooth="yes"/>
      <point x="659.1823529411765" y="-422.2"/>
      <point x="598.3" y="-397.2" type="qcurve"/>
      <point x="598.3" y="-160.3" type="line"/>
      <point x="633.55" y="-170.05"/>
      <point x="698.5" y="-180.3"/>
      <point x="729.4" y="-180.3" type="qcurve" smooth="yes"/>
      <point x="810.3249999999998" y="-180.3"/>
      <point x="893.3249999999998" y="-74.05"/>
      <point x="900.9" y="21.2" type="qcurve"/>
      <point x="906.6" y="-12" type="line"/>
      <point x="373.1" y="1066.7" type="line"/>
      <point x="358.1" y="1066.7" type="line"/>
      <point x="369.35" y="919.175"/>
      <point x="380.6" y="710.725"/>
      <point x="380.6" y="649.3" type="qcurve" smooth="yes"/>
      <point x="380.6" y="0" type="line"/>
      <point x="128.5" y="0" type="line"/>
      <point x="128.5" y="1462" type="line"/>
      <point x="450.8" y="1462" type="line"/>
      <point x="909.5" y="541.4" type="line"/>
      <point x="921.8" y="541.4" type="line"/>
      <point x="911.7499999999999" y="661.775"/>
      <point x="902.6" y="861.7749999999999"/>
      <point x="902.6" y="942.1" type="qcurve" smooth="yes"/>
      <point x="902.6" y="1462" type="line"/>
      <point x="1153.3" y="1462" type="line"/>
      <point x="1153.3" y="44.9" type="line" smooth="yes"/>
      <point x="1153.3" y="-173.57500000000002"/>
      <point x="948.475" y="-422.2"/>
    </contour>
  </outline>
</glyph>
<glyph name="eng" format="1">
  <advance width="1038"/>
  <unicode hex="014B"/>
  <note>
eng
</note>
  <outline>
    <contour>
      <point x="626.5" y="-492.0" type="qcurve" smooth="yes"/>
      <point x="589.4499999999999" y="-492.0"/>
      <point x="514.475" y="-479.575"/>
      <point x="487.1" y="-466.6" type="qcurve"/>
      <point x="487.1" y="-245.7" type="line"/>
      <point x="508.55000000000007" y="-253.95"/>
      <point x="554.5250000000001" y="-264.5"/>
      <point x="573.5" y="-264.5" type="qcurve" smooth="yes"/>
      <point x="667.9" y="-264.5"/>
      <point x="667.9" y="-93.9" type="qcurve" smooth="yes"/>
      <point x="667.9" y="664.7" type="line" smooth="yes"/>
      <point x="667.9" y="787.2500000000001"/>
      <point x="609.6249999999999" y="909.1"/>
      <point x="542.8" y="909.1" type="qcurve" smooth="yes"/>
      <point x="500.35" y="909.1"/>
      <point x="437.9000000000001" y="864.3249999999999"/>
      <point x="419.3" y="824.5" type="qcurve" smooth="yes"/>
      <point x="399.35" y="782.4250000000001"/>
      <point x="379.3" y="639.925"/>
      <point x="379.3" y="534.4" type="qcurve" smooth="yes"/>
      <point x="379.3" y="0" type="line"/>
      <point x="112.8" y="0" type="line"/>
      <point x="112.8" y="1114.4" type="line"/>
      <point x="323.7" y="1114.4" type="line"/>
      <point x="356.2" y="971.1" type="line"/>
      <point x="373.0" y="971.1" type="line"/>
      <point x="410.20000000000005" y="1051.35"/>
      <point x="546.375" y="1135.4"/>
      <point x="634.5" y="1135.4" type="qcurve" smooth="yes"/>
      <point x="782.0999999999999" y="1135.4"/>
      <point x="936.2" y="931.425"/>
      <point x="936.2" y="727.2" type="qcurve" smooth="yes"/>
      <point x="936.2" y="-129.6" type="line" smooth="yes"/>
      <point x="936.2" y="-302.4"/>
      <point x="776.7249999999999" y="-492.0"/>
    </contour>
  </outline>
</glyph>
<glyph name="OE" format="1">
  <advance width="1446"/>
  <unicode hex="0152"/>
  <note>
OE
</note>
  <outline>
    <contour>
      <point x="618.2" y="-20.0" type="qcurve" smooth="yes"/>
      <point x="354.20000000000005" y="-20.0"/>
      <point x="84.4" y="369.92499999999995"/>
      <point x="84.4" y="737.8" type="qcurve" smooth="yes"/>
      <point x="84.4" y="1098.3999999999999"/>
      <point x="355.82500000000005" y="1485.5"/>
      <point x="619.9" y="1485.5" type="qcurve" smooth="yes"/>
      <point x="693.5818219349505" y="1484.6611177768318"/>
      <point x="770.6" y="1462" type="qcurve"/>
      <point x="1359.7" y="1462" type="line"/>
      <point x="1359.7" y="1226.6" type="line"/>
      <point x="977.1" y="1226.6" type="line"/>
      <point x="977.1" y="878.8" type="line"/>
      <point x="1331.2" y="878.8" type="line"/>
      <point x="1331.2" y="642.7" type="line"/>
      <point x="977.1" y="642.7" type="line"/>
      <point x="977.1" y="238.2" type="line"/>
      <point x="1359.7" y="238.2" type="line"/>
      <point x="1359.7" y="0" type="line"/>
      <point x="760.7" y="0.0" type="line"/>
      <point x="686.5140195410135" y="-19.163501801538608"/>
    </contour>
    <contour>
      <point x="613.7" y="221.0" type="qcurve" smooth="yes"/>
      <point x="661.9923076923077" y="221.0"/>
      <point x="704.8" y="235.7" type="qcurve"/>
      <point x="704.8" y="1231.2" type="line"/>
      <point x="658.907692307692" y="1244.5"/>
      <point x="615.8" y="1244.5" type="qcurve" smooth="yes"/>
      <point x="362.0" y="1243.59946777055"/>
      <point x="362.0" y="733.0" type="qcurve" smooth="yes"/>
      <point x="362.0" y="481.07499999999993"/>
      <point x="488.3" y="221.45000000000002"/>
    </contour>
    <contour>
      <point x="723.4" y="0" type="move" name="bottom"/>
    </contour>
    <contour>
      <point x="723.4" y="1462" type="move" name="top"/>
    </contour>
  </outline>
</glyph>
<glyph name="oe" format="1">
  <advance width="1532"/>
  <unicode hex="0153"/>
  <note>
oe
</note>
  <outline>
    <contour>
      <point x="507.4" y="-20.0" type="qcurve" smooth="yes"/>
      <point x="362.54999999999995" y="-20.0"/>
      <point x="169.84166666666664" y="137.84999999999997"/>
      <point x="73.7" y="402.70000000000005"/>
      <point x="73.7" y="563.2" type="qcurve" smooth="yes"/>
      <point x="73.7" y="830.575"/>
      <point x="305.75" y="1135.4"/>
      <point x="507.2" y="1135.4" type="qcurve" smooth="yes"/>
      <point x="677.9319502074688" y="1135.4"/>
      <point x="797.2" y="994.5" type="qcurve"/>
      <point x="904.1262648008611" y="1135.4"/>
      <point x="1080.7" y="1135.4" type="qcurve" smooth="yes"/>
      <point x="1261.375" y="1135.4"/>
      <point x="1467.6" y="867.625"/>
      <point x="1467.6" y="631" type="qcurve" smooth="yes"/>
      <point x="1467.6" y="489.1" type="line"/>
      <point x="936.1" y="489.1" type="line"/>
      <point x="943.7866529774128" y="195.5"/>
      <point x="1159.5" y="195.5" type="qcurve" smooth="yes"/>
      <point x="1218.375" y="195.5"/>
      <point x="1355.0" y="235.225"/>
      <point x="1422.8" y="275.8" type="qcurve"/>
      <point x="1422.8" y="56.9" type="line"/>
      <point x="1292.2415821501013" y="-20.000000000000007"/>
      <point x="1119.8" y="-20.0" type="qcurve" smooth="yes"/>
      <point x="920.2762589928059" y="-20.0"/>
      <point x="803.0" y="121.4" type="qcurve"/>
      <point x="688.0844444444446" y="-20.0"/>
    </contour>
    <contour>
      <point x="505.9" y="207.4" type="qcurve" smooth="yes"/>
      <point x="584.2438077634012" y="207.4"/>
      <point x="622.3" y="287.2" type="qcurve" smooth="yes"/>
      <point x="647.35" y="337.9"/>
      <point x="666.2" y="483.37500000000006"/>
      <point x="666.2" y="558.6" type="qcurve" smooth="yes"/>
      <point x="666.2" y="643.8000000000002"/>
      <point x="648.8499999999999" y="776.4749999999999"/>
      <point x="627.7" y="820.5" type="qcurve" smooth="yes"/>
      <point x="587.2008532423209" y="906.8"/>
      <point x="505.9" y="906.8" type="qcurve" smooth="yes"/>
      <point x="422.64744525547445" y="906.8"/>
      <point x="384.4" y="820.9" type="qcurve" smooth="yes"/>
      <point x="346.3" y="740.581081081081"/>
      <point x="346.3" y="557.6" type="qcurve" smooth="yes"/>
      <point x="346.3" y="381.131923076923"/>
      <point x="384.4" y="295.7" type="qcurve" smooth="yes"/>
      <point x="423.86284246575343" y="207.4"/>
    </contour>
    <contour>
      <point x="940.2" y="682.2" type="qcurve"/>
      <point x="1209.5" y="682.2" type="line"/>
      <point x="1207.3999999999999" y="810.825"/>
      <point x="1135.15" y="929.8"/>
      <point x="1078.9" y="929.8" type="qcurve" smooth="yes"/>
      <point x="951.4338442673206" y="929.8"/>
    </contour>
    <contour>
      <point x="766.4" y="0" type="move" name="bottom"/>
    </contour>
    <contour>
      <point x="766.4" y="1114.4" type="move" name="top"/>
    </contour>
  </outline>
</glyph>
<glyph name="tbar" format="1">
  <advance width="664"/>
  <unicode hex="0167"/>
  <note>
tbar
</note>
  <outline>
    <contour>
      <point x="426.6" y="-20.0" type="qcurve" smooth="yes"/>
      <point x="141.0" y="-20.0"/>
      <point x="141" y="326.2" type="qcurve" smooth="yes"/>
      <point x="141" y="512.3" type="line"/>
      <point x="32.5" y="512.3" type="line"/>
      <point x="32.5" y="699.9" type="line"/>
      <point x="141" y="699.9" type="line"/>
      <point x="141" y="903" type="line"/>
      <point x="32.5" y="903" type="line"/>
      <point x="32.5" y="1022" type="line"/>
      <point x="171.9" y="1117.9" type="line"/>
      <point x="240" y="1354.2" type="line"/>
      <point x="410.3" y="1354.2" type="line"/>
      <point x="410.3" y="1114.4" type="line"/>
      <point x="611.7" y="1114.4" type="line"/>
      <point x="611.7" y="903" type="line"/>
      <point x="410.3" y="903" type="line"/>
      <point x="410.3" y="699.9" type="line"/>
      <point x="592.1" y="699.9" type="line"/>
      <point x="592.1" y="512.3" type="line"/>
      <point x="410.3" y="512.3" type="line"/>
      <point x="410.3" y="316.8" type="line" smooth="yes"/>
      <point x="410.3" y="204.5"/>
      <point x="500.1" y="204.5" type="qcurve" smooth="yes"/>
      <point x="555.85" y="204.5"/>
      <point x="620.8" y="233.3" type="qcurve"/>
      <point x="620.8" y="25.2" type="line"/>
      <point x="555.5785234899329" y="-20.0"/>
    </contour>
  </outline>
</glyph>
<glyph name="longs" format="1">
  <advance width="563"/>
  <unicode hex="017F"/>
  <note>
longs
</note>
  <outline>
    <contour>
      <point x="112.8" y="0" type="line"/>
      <point x="112.8" y="1200.4" type="line" smooth="yes"/>
      <point x="112.8" y="1322.75"/>
      <point x="182.15" y="1485.6583333333333"/>
      <point x="326.29999999999995" y="1567.0"/>
      <point x="438.5" y="1567.0" type="qcurve" smooth="yes"/>
      <point x="545.4922297297295" y="1567.0"/>
      <point x="639" y="1521.7" type="qcurve"/>
      <point x="568.9" y="1318.9" type="line"/>
      <point x="550.6499999999999" y="1328.8"/>
      <point x="515.9166666666666" y="1344.1999999999998"/>
      <point x="477.85000000000014" y="1353.0"/>
      <point x="454.6" y="1353.0" type="qcurve" smooth="yes"/>
      <point x="433.00000000000006" y="1353.0"/>
      <point x="402.77500000000003" y="1329.1"/>
      <point x="395.5" y="1303.3" type="qcurve"/>
      <point x="387.92499999999995" y="1284.25"/>
      <point x="379.3" y="1236.35"/>
      <point x="379.3" y="1198.4" type="qcurve" smooth="yes"/>
      <point x="379.3" y="0" type="line"/>
    </contour>
    <contour>
      <point x="281.8" y="0" type="move" name="bottom"/>
    </contour>
    <contour>
      <point x="281.8" y="1114.4" type="move" name="top"/>
    </contour>
  </outline>
</glyph>
<glyph name="Ohorn" format="1">
  <advance width="1311"/>
  <unicode hex="01A0"/>
  <note>
Ohorn
</note>
  <outline>
    <contour>
      <point x="609.7" y="-20.0" type="qcurve" smooth="yes"/>
      <point x="440.20000000000005" y="-20.0"/>
      <point x="205.79999999999993" y="153.91666666666666"/>
      <point x="84.4" y="490.7"/>
      <point x="84.4" y="735.0" type="qcurve" smooth="yes"/>
      <point x="84.4" y="976.8499999999999"/>
      <point x="206.36666666666667" y="1311.5916666666667"/>
      <point x="441.79999999999995" y="1485.0999999999995"/>
      <point x="612.0" y="1485.1" type="qcurve" smooth="yes"/>
      <point x="857.2028391167194" y="1485.1"/>
      <point x="997.3" y="1294.7" type="qcurve"/>
      <point x="1031.125" y="1327.25"/>
      <point x="1066.75" y="1457.5249999999999"/>
      <point x="1069" y="1556" type="qcurve"/>
      <point x="1350.3" y="1556" type="line"/>
      <point x="1364.5" y="1534.9" type="line"/>
      <point x="1329.25" y="1367.1250000000002"/>
      <point x="1191.9249999999997" y="1170.0499999999997"/>
      <point x="1080.7" y="1122.2" type="qcurve"/>
      <point x="1134.6" y="951.1711538461536"/>
      <point x="1134.6" y="733.0" type="qcurve" smooth="yes"/>
      <point x="1134.6" y="490.99999999999994"/>
      <point x="1012.7333333333333" y="154.83333333333331"/>
      <point x="778.3999999999999" y="-20.0"/>
    </contour>
    <contour>
      <point x="609.7" y="221.0" type="qcurve" smooth="yes"/>
      <point x="732.8499999999999" y="221.0"/>
      <point x="856.9" y="477.25"/>
      <point x="856.9" y="733.0" type="qcurve" smooth="yes"/>
      <point x="856.9" y="988.9749999999999"/>
      <point x="734.625" y="1244.8"/>
      <point x="612.0" y="1244.8" type="qcurve" smooth="yes"/>
      <point x="488.55000000000007" y="1244.8"/>
      <point x="361.4" y="984.6999999999999"/>
      <point x="361.4" y="733.0" type="qcurve" smooth="yes"/>
      <point x="361.4" y="482.875"/>
      <point x="487.82500000000005" y="221.0"/>
    </contour>
    <contour>
      <point x="607.4" y="0" type="move" name="bottom"/>
    </contour>
    <contour>
      <point x="612.3" y="1462" type="move" name="top"/>
    </contour>
  </outline>
</glyph>
<glyph name="ohorn" format="1">
  <advance width="1120"/>
  <unicode hex="01A1"/>
  <note>
ohorn
</note>
  <outline>
    <contour>
      <point x="507.4" y="-20.0" type="qcurve" smooth="yes"/>
      <point x="361.8499999999999" y="-20.0"/>
      <point x="169.25833333333333" y="138.89999999999998"/>
      <point x="73.7" y="403.4"/>
      <point x="73.7" y="561.8" type="qcurve" smooth="yes"/>
      <point x="73.7" y="741.1000000000001"/>
      <point x="177.89166666666665" y="998.0166666666665"/>
      <point x="371.85" y="1135.4"/>
      <point x="506.5" y="1135.4" type="qcurve" smooth="yes"/>
      <point x="591.5500000000001" y="1135.4"/>
      <point x="732.0" y="1075.4750000000001"/>
      <point x="788.4" y="1017.5" type="qcurve"/>
      <point x="836.4750000000001" y="1049.5249999999999"/>
      <point x="886.05" y="1181.0749999999998"/>
      <point x="888.3" y="1281.5" type="qcurve"/>
      <point x="1168.9" y="1281.5" type="line"/>
      <point x="1183.8" y="1260.4" type="line"/>
      <point x="1147.125" y="1086.025"/>
      <point x="1006.225" y="905.4000000000001"/>
      <point x="886.3" y="859.8" type="qcurve"/>
      <point x="937.3" y="733.35"/>
      <point x="937.3" y="557.6" type="qcurve"/>
      <point x="937.2999999999997" y="375.80000000000007"/>
      <point x="832.6416666666667" y="117.29999999999998"/>
      <point x="639.75" y="-20.0"/>
    </contour>
    <contour>
      <point x="504.5" y="207.4" type="qcurve" smooth="yes"/>
      <point x="584.6309523809524" y="207.4"/>
      <point x="626.0" y="294.9" type="qcurve" smooth="yes"/>
      <point x="646.9250000000001" y="337.87499999999994"/>
      <point x="666.1" y="470.34999999999997"/>
      <point x="666.1" y="559.0" type="qcurve" smooth="yes"/>
      <point x="666.1" y="738.4461847389557"/>
      <point x="628.2" y="821.4" type="qcurve" smooth="yes"/>
      <point x="589.6620938628159" y="906.8"/>
      <point x="505.9" y="906.8" type="qcurve" smooth="yes"/>
      <point x="422.921243523316" y="906.8"/>
      <point x="384.6" y="820.8" type="qcurve" smooth="yes"/>
      <point x="364.42499999999995" y="775.2"/>
      <point x="346.3" y="644.8000000000002"/>
      <point x="346.3" y="561.1" type="qcurve" smooth="yes"/>
      <point x="346.3" y="469.9"/>
      <point x="366.15" y="336.325"/>
      <point x="383.7" y="296.2" type="qcurve" smooth="yes"/>
      <point x="403.275" y="250.22500000000002"/>
      <point x="465.27500000000003" y="207.4"/>
    </contour>
    <contour>
      <point x="503.9" y="0" type="move" name="bottom"/>
    </contour>
    <contour>
      <point x="507.9" y="1114.4" type="move" name="top"/>
    </contour>
  </outline>
</glyph>
<glyph name="Uhorn" format="1">
  <advance width="1382"/>
  <unicode hex="01AF"/>
  <note>
Uhorn
</note>
  <outline>
    <contour>
      <point x="568.8" y="-20.0" type="qcurve" smooth="yes"/>
      <point x="350.85" y="-20.0"/>
      <point x="123.2" y="253.25"/>
      <point x="123.2" y="519.8" type="qcurve" smooth="yes"/>
      <point x="123.2" y="1462" type="line"/>
      <point x="393" y="1462" type="line"/>
      <point x="393.0" y="500.1" type="line" smooth="yes"/>
      <point x="393.0" y="361.275"/>
      <point x="484.925" y="221.0"/>
      <point x="574.4" y="221.0" type="qcurve" smooth="yes"/>
      <point x="668.375" y="221.0"/>
      <point x="757.6" y="366.725"/>
      <point x="757.6" y="496.4" type="qcurve" smooth="yes"/>
      <point x="757.6" y="1462" type="line"/>
      <point x="1027.8" y="1462" type="line"/>
      <point x="1027.8" y="1270.4" type="line"/>
      <point x="1102.9500000000003" y="1290.1250000000002"/>
      <point x="1177.3249999999998" y="1433.1499999999999"/>
      <point x="1178" y="1556" type="qcurve"/>
      <point x="1460" y="1556" type="line"/>
      <point x="1475.3" y="1534.9" type="line"/>
      <point x="1452.425" y="1421.1999999999998"/>
      <point x="1380.0749999999998" y="1263.15"/>
      <point x="1321.5" y="1211.4" type="qcurve" smooth="yes"/>
      <point x="1269.75" y="1165.9499999999998"/>
      <point x="1125.5249999999996" y="1112.3250000000003"/>
      <point x="1027.8" y="1098.3" type="qcurve"/>
      <point x="1027.8" y="516.3" type="line" smooth="yes"/>
      <point x="1027.8" y="342.19999999999993"/>
      <point x="922.0083333333333" y="103.06666666666666"/>
      <point x="717.25" y="-20.0"/>
    </contour>
    <contour>
      <point x="567.8" y="0" type="move" name="bottom"/>
    </contour>
    <contour>
      <point x="577.9" y="1462" type="move" name="top"/>
    </contour>
  </outline>
</glyph>
<glyph name="uhorn" format="1">
  <advance width="1311"/>
  <unicode hex="01B0"/>
  <note>
uhorn
</note>
  <outline>
    <contour>
      <point x="398.0" y="-20.0" type="qcurve" smooth="yes"/>
      <point x="255.5" y="-20.0"/>
      <point x="102.0" y="183.75"/>
      <point x="102" y="387" type="qcurve" smooth="yes"/>
      <point x="102" y="1114" type="line"/>
      <point x="370" y="1114" type="line"/>
      <point x="370.0" y="451.0" type="line" smooth="yes"/>
      <point x="370.0" y="327.25"/>
      <point x="428.25" y="204.0"/>
      <point x="495.0" y="204.0" type="qcurve" smooth="yes"/>
      <point x="565.5" y="204.0"/>
      <point x="635.7499999999999" y="311.16666666666663"/>
      <point x="659.0" y="483.00000000000006"/>
      <point x="659" y="580" type="qcurve" smooth="yes"/>
      <point x="659" y="1114" type="line"/>
      <point x="926" y="1114" type="line"/>
      <point x="926.0" y="995.0" type="line"/>
      <point x="996.187274909964" y="1014.8355342136855"/>
      <point x="1032.0" y="1079.0" type="qcurve" smooth="yes"/>
      <point x="1074.4677152317881" y="1150.7557947019868"/>
      <point x="1076" y="1281" type="qcurve"/>
      <point x="1359" y="1281" type="line"/>
      <point x="1373.0" y="1260.0" type="line"/>
      <point x="1344.5" y="1119.75"/>
      <point x="1237.0" y="939.0"/>
      <point x="1147.0" y="894.0" type="qcurve"/>
      <point x="1099.0" y="863.25"/>
      <point x="982.25" y="830.5"/>
      <point x="926" y="823" type="qcurve"/>
      <point x="926" y="0" type="line"/>
      <point x="714" y="0" type="line"/>
      <point x="682" y="143" type="line"/>
      <point x="667.0" y="143.0" type="line"/>
      <point x="631.0" y="70.25"/>
      <point x="497.75" y="-20.0"/>
    </contour>
    <contour>
      <point x="563" y="0" type="move" name="bottom"/>
    </contour>
    <contour>
      <point x="513" y="1114" type="move" name="top"/>
    </contour>
  </outline>
</glyph>
<glyph name="jdotless" format="1">
  <advance width="500"/>
  <unicode hex="0237"/>
  <note>
uni0237
</note>
  <outline>
    <contour>
      <point x="80.5" y="-492.0" type="qcurve" smooth="yes"/>
      <point x="-4.535838150288914" y="-492.0"/>
      <point x="-59.3" y="-466.6" type="qcurve"/>
      <point x="-59.3" y="-245.7" type="line"/>
      <point x="-8.684615384615306" y="-264.5"/>
      <point x="26.8" y="-264.5" type="qcurve" smooth="yes"/>
      <point x="72.0820895522388" y="-264.5"/>
      <point x="95.9" y="-224.1" type="qcurve" smooth="yes"/>
      <point x="121.2" y="-182.03139534883718"/>
      <point x="121.2" y="-93.9" type="qcurve" smooth="yes"/>
      <point x="121.2" y="1114.4" type="line"/>
      <point x="387" y="1114.4" type="line"/>
      <point x="387.0" y="-129.6" type="line" smooth="yes"/>
      <point x="387.0" y="-303.525"/>
      <point x="226.375" y="-492.0"/>
    </contour>
    <contour>
      <point x="249.7" y="0" type="move" name="bottom"/>
    </contour>
    <contour>
      <point x="249.7" y="1114.4" type="move" name="top"/>
    </contour>
  </outline>
</glyph>
<glyph name="apostrophemod" format="1">
  <advance width="420"/>
  <unicode hex="02BC"/>
  <note>
afii57929
</note>
  <outline>
    <contour>
      <point x="20" y="961" type="line"/>
      <point x="41.5" y="1047.5"/>
      <point x="78.0" y="1216.5"/>
      <point x="108.5" y="1381.5"/>
      <point x="121" y="1462" type="qcurve"/>
      <point x="386" y="1462" type="line"/>
      <point x="400.0" y="1440.0" type="line"/>
      <point x="374.5" y="1341.0"/>
      <point x="286.25" y="1100.5"/>
      <point x="224" y="961" type="qcurve"/>
    </contour>
  </outline>
</glyph>
<glyph name="lowringmod" format="1">
  <advance width="666"/>
  <unicode hex="02F3"/>
  <note>
uni02F3
</note>
  <outline>
    <contour>
      <point x="328.1" y="-592.1" type="qcurve" smooth="yes"/>
      <point x="217.775" y="-592.1"/>
      <point x="85.7" y="-465.79999999999995"/>
      <point x="85.7" y="-357.5" type="qcurve" smooth="yes"/>
      <point x="85.7" y="-250.70000000000002"/>
      <point x="218.0" y="-124.6"/>
      <point x="328.1" y="-124.6" type="qcurve" smooth="yes"/>
      <point x="437.15" y="-124.6"/>
      <point x="577.5" y="-253.1"/>
      <point x="577.5" y="-356.3" type="qcurve" smooth="yes"/>
      <point x="577.5" y="-463.4000000000001"/>
      <point x="438.79999999999995" y="-592.1"/>
    </contour>
    <contour>
      <point x="328.1" y="-457.0" type="qcurve" smooth="yes"/>
      <point x="371.075" y="-457.0"/>
      <point x="428.1" y="-405.5"/>
      <point x="428.1" y="-357.5" type="qcurve" smooth="yes"/>
      <point x="428.1" y="-312.27500000000003"/>
      <point x="370.54999999999995" y="-258.3"/>
      <point x="328.1" y="-258.3" type="qcurve" smooth="yes"/>
      <point x="284.075" y="-258.3"/>
      <point x="229.5" y="-312.27500000000003"/>
      <point x="229.5" y="-357.5" type="qcurve" smooth="yes"/>
      <point x="229.5" y="-407.59999999999997"/>
      <point x="278.6" y="-457.0"/>
    </contour>
    <contour>
      <point x="328.1" y="-0.4" type="move" name="_bottom"/>
    </contour>
  </outline>
</glyph>
<glyph name="gravecomb" format="1">
  <unicode hex="0300"/>
  <note>
gravecomb
</note>
  <outline>
    <contour>
      <point x="-702.5" y="1241" type="line"/>
      <point x="-739.0625" y="1270.7749999999999"/>
      <point x="-831.6687500000002" y="1355.5645833333335"/>
      <point x="-922.38125" y="1445.885416666667"/>
      <point x="-991.9625000000001" y="1523.9999999999998"/>
      <point x="-1005.5" y="1547.1" type="qcurve"/>
      <point x="-1005.5" y="1569" type="line"/>
      <point x="-686.6" y="1569.0" type="line"/>
      <point x="-668.95" y="1529.8000000000002"/>
      <point x="-607.3166666666666" y="1414.1916666666664"/>
      <point x="-540.55" y="1302.1499999999999"/>
      <point x="-515.2" y="1268.3" type="qcurve"/>
      <point x="-515.2" y="1241" type="line"/>
    </contour>
    <contour>
      <point x="-760" y="1114.4" type="move" name="_top"/>
    </contour>
    <contour>
      <point x="-760" y="1569" type="move" name="top"/>
    </contour>
  </outline>
</glyph>
<glyph name="acutecomb" format="1">
  <unicode hex="0301"/>
  <note>
acutecomb
</note>
  <outline>
    <contour>
      <point x="-789.7" y="1241" type="line"/>
      <point x="-789.7" y="1268.3" type="line"/>
      <point x="-761.5500000000001" y="1304.2"/>
      <point x="-692.9166666666665" y="1420.4833333333331"/>
      <point x="-633.1499999999999" y="1535.3000000000002"/>
      <point x="-618.3" y="1569" type="qcurve"/>
      <point x="-300.1" y="1569" type="line"/>
      <point x="-300.1" y="1547.1" type="line"/>
      <point x="-315.95000000000005" y="1518.8000000000002"/>
      <point x="-415.40000000000003" y="1410.3833333333332"/>
      <point x="-543.6500000000001" y="1288.9"/>
      <point x="-602.7" y="1241" type="qcurve"/>
    </contour>
    <contour>
      <point x="-620.2" y="1147.5" type="move" name="_top"/>
    </contour>
    <contour>
      <point x="-544.9" y="1569" type="move" name="top"/>
    </contour>
  </outline>
</glyph>
<glyph name="circumflexcomb" format="1">
  <advance width="1135"/>
  <unicode hex="0302"/>
  <note>
circumflex
</note>
  <outline>
    <contour>
      <point x="211" y="1241" type="line"/>
      <point x="211.0" y="1268.0" type="line"/>
      <point x="299.5" y="1381.25"/>
      <point x="407.5" y="1530.75"/>
      <point x="427" y="1569" type="qcurve"/>
      <point x="705.0" y="1569.0" type="line"/>
      <point x="751.6569767441861" y="1481.906976744186"/>
      <point x="921" y="1268" type="qcurve"/>
      <point x="921" y="1241" type="line"/>
      <point x="753.0" y="1241.0" type="line"/>
      <point x="703.5" y="1280.75"/>
      <point x="668.5" y="1311.5"/>
      <point x="649.0" y="1331.0" type="qcurve"/>
      <point x="640.75" y="1337.75"/>
      <point x="601.75" y="1379.25"/>
      <point x="565.0" y="1419.0" type="qcurve"/>
      <point x="536.5" y="1386.75"/>
      <point x="497.25" y="1346.25"/>
      <point x="480.0" y="1329.0" type="qcurve" smooth="yes"/>
      <point x="456.0" y="1305.75"/>
      <point x="400.5" y="1258.25"/>
      <point x="378" y="1241" type="qcurve"/>
    </contour>
    <contour>
      <point x="567" y="1114" type="move" name="_top"/>
    </contour>
    <contour>
      <point x="567" y="1569" type="move" name="top"/>
    </contour>
  </outline>
</glyph>
<glyph name="brevecomb" format="1">
  <advance width="1126"/>
  <unicode hex="0306"/>
  <note>
breve
</note>
  <outline>
    <contour>
      <point x="559.0" y="1240.0" type="qcurve" smooth="yes"/>
      <point x="412.0" y="1240.0"/>
      <point x="257.25" y="1411.75"/>
      <point x="252" y="1567" type="qcurve"/>
      <point x="412.0" y="1567.0" type="line"/>
      <point x="418.75" y="1495.75"/>
      <point x="477.75" y="1442.0"/>
      <point x="561.0" y="1442.0" type="qcurve" smooth="yes"/>
      <point x="638.25" y="1442.0"/>
      <point x="701.25" y="1498.75"/>
      <point x="711" y="1567" type="qcurve"/>
      <point x="872.0" y="1567.0" type="line"/>
      <point x="860.75" y="1411.0"/>
      <point x="697.75" y="1240.0"/>
    </contour>
    <contour>
      <point x="562" y="1114" type="move" name="_top"/>
    </contour>
    <contour>
      <point x="562" y="1567" type="move" name="top"/>
    </contour>
  </outline>
</glyph>
<glyph name="dotaccentcomb" format="1">
  <advance width="569"/>
  <unicode hex="0307"/>
  <note>
dotaccent
</note>
  <outline>
    <contour>
      <point x="285.0" y="1262.0" type="qcurve" smooth="yes"/>
      <point x="210.0" y="1262.0"/>
      <point x="131.0" y="1333.25"/>
      <point x="131.0" y="1406.0" type="qcurve" smooth="yes"/>
      <point x="131.0" y="1476.5"/>
      <point x="207.75" y="1548.0"/>
      <point x="285.0" y="1548.0" type="qcurve" smooth="yes"/>
      <point x="361.5" y="1548.0"/>
      <point x="438.0" y="1476.5"/>
      <point x="438.0" y="1406.0" type="qcurve" smooth="yes"/>
      <point x="438.0" y="1333.25"/>
      <point x="357.75" y="1262.0"/>
    </contour>
    <contour>
      <point x="285" y="1114" type="move" name="_top"/>
    </contour>
    <contour>
      <point x="285" y="1548" type="move" name="top"/>
    </contour>
  </outline>
</glyph>
<glyph name="dieresiscomb" format="1">
  <advance width="1130"/>
  <unicode hex="0308"/>
  <note>
dieresis
</note>
  <outline>
    <contour>
      <point x="764.0" y="1276.0" type="qcurve" smooth="yes"/>
      <point x="701.75" y="1276.0"/>
      <point x="631.0" y="1343.75"/>
      <point x="631.0" y="1403.0" type="qcurve" smooth="yes"/>
      <point x="631.0" y="1464.5"/>
      <point x="701.0" y="1532.0"/>
      <point x="764.0" y="1532.0" type="qcurve" smooth="yes"/>
      <point x="824.0" y="1532.0"/>
      <point x="896.0" y="1464.5"/>
      <point x="896.0" y="1403.0" type="qcurve" smooth="yes"/>
      <point x="896.0" y="1343.0"/>
      <point x="825.5" y="1276.0"/>
    </contour>
    <contour>
      <point x="364.0" y="1276.0" type="qcurve" smooth="yes"/>
      <point x="302.5" y="1276.0"/>
      <point x="233.0" y="1342.25"/>
      <point x="233.0" y="1403.0" type="qcurve" smooth="yes"/>
      <point x="233.0" y="1464.5"/>
      <point x="302.5" y="1532.0"/>
      <point x="364.0" y="1532.0" type="qcurve" smooth="yes"/>
      <point x="425.5" y="1532.0"/>
      <point x="498.0" y="1461.5"/>
      <point x="498.0" y="1403.0" type="qcurve" smooth="yes"/>
      <point x="498.0" y="1345.25"/>
      <point x="425.5" y="1276.0"/>
    </contour>
    <contour>
      <point x="564" y="1145" type="move" name="_top"/>
    </contour>
    <contour>
      <point x="564" y="1532" type="move" name="top"/>
    </contour>
  </outline>
</glyph>
<glyph name="hookabovecomb" format="1">
  <unicode hex="0309"/>
  <note>
hookabovecomb
</note>
  <outline>
    <contour>
      <point x="-774.5" y="1217.1" type="line"/>
      <point x="-795.2" y="1369.2" type="line"/>
      <point x="-720.275" y="1381.7999999999997"/>
      <point x="-658.8" y="1431.3999999999999"/>
      <point x="-658.8" y="1469.5" type="qcurve" smooth="yes"/>
      <point x="-658.8" y="1505.5749999999998"/>
      <point x="-709.3499999999999" y="1539.7"/>
      <point x="-748.2" y="1539.7" type="qcurve" smooth="yes"/>
      <point x="-808.0313868613139" y="1539.7"/>
      <point x="-879.1" y="1519.5" type="qcurve"/>
      <point x="-879.1" y="1674.9" type="line"/>
      <point x="-823.6202797202798" y="1696.0"/>
      <point x="-714.7" y="1696.0" type="qcurve" smooth="yes"/>
      <point x="-440.5" y="1696.0"/>
      <point x="-440.5" y="1486.8" type="qcurve" smooth="yes"/>
      <point x="-440.5" y="1335.4454545454546"/>
      <point x="-602.8" y="1296.1" type="qcurve"/>
      <point x="-612.8" y="1217.1" type="line"/>
    </contour>
    <contour>
      <point x="-660.3" y="1114.4" type="move" name="_top"/>
    </contour>
    <contour>
      <point x="-660.3" y="1696" type="move" name="top"/>
    </contour>
  </outline>
</glyph>
<glyph name="ringcomb" format="1">
  <advance width="1116"/>
  <unicode hex="030A"/>
  <note>
ring
</note>
  <outline>
    <contour>
      <point x="554.0" y="1239.0" type="qcurve" smooth="yes"/>
      <point x="443.75" y="1239.0"/>
      <point x="311.0" y="1365.0"/>
      <point x="311.0" y="1473.0" type="qcurve" smooth="yes"/>
      <point x="311.0" y="1581.0"/>
      <point x="444.5" y="1706.0"/>
      <point x="554.0" y="1706.0" type="qcurve" smooth="yes"/>
      <point x="664.25" y="1706.0"/>
      <point x="804.0" y="1577.75"/>
      <point x="804.0" y="1475.0" type="qcurve" smooth="yes"/>
      <point x="804.0" y="1367.75"/>
      <point x="665.75" y="1239.0"/>
    </contour>
    <contour>
      <point x="554.0" y="1372.0" type="qcurve" smooth="yes"/>
      <point x="596.75" y="1372.0"/>
      <point x="654.0" y="1425.75"/>
      <point x="654.0" y="1473.0" type="qcurve" smooth="yes"/>
      <point x="654.0" y="1519.5"/>
      <point x="597.5" y="1574.0"/>
      <point x="554.0" y="1574.0" type="qcurve" smooth="yes"/>
      <point x="512.0" y="1574.0"/>
      <point x="454.0" y="1519.5"/>
      <point x="454.0" y="1473.0" type="qcurve" smooth="yes"/>
      <point x="454.0" y="1426.5"/>
      <point x="503.75" y="1372.0"/>
    </contour>
    <contour>
      <point x="558" y="1114" type="move" name="_top"/>
    </contour>
    <contour>
      <point x="558" y="1706" type="move" name="top"/>
    </contour>
  </outline>
</glyph>
<glyph name="hungarumlautcomb" format="1">
  <advance width="1149"/>
  <unicode hex="030B"/>
  <note>
hungarumlaut
</note>
  <outline>
    <contour>
      <point x="542" y="1241" type="line"/>
      <point x="542.0" y="1268.0" type="line"/>
      <point x="573.0" y="1311.0"/>
      <point x="641.9166666666666" y="1426.0"/>
      <point x="700.5" y="1535.0"/>
      <point x="716" y="1569" type="qcurve"/>
      <point x="997" y="1569" type="line"/>
      <point x="997.0" y="1547.0" type="line"/>
      <point x="984.25" y="1526.0"/>
      <point x="918.640625" y="1452.671875"/>
      <point x="830.109375" y="1364.578125"/>
      <point x="734.125" y="1276.625"/>
      <point x="691" y="1241" type="qcurve"/>
    </contour>
    <contour>
      <point x="152" y="1241" type="line"/>
      <point x="152.0" y="1268.0" type="line"/>
      <point x="182.5" y="1311.0"/>
      <point x="251.0" y="1425.5833333333335"/>
      <point x="309.5" y="1534.5"/>
      <point x="325" y="1569" type="qcurve"/>
      <point x="606" y="1569" type="line"/>
      <point x="606.0" y="1547.0" type="line"/>
      <point x="589.5" y="1521.5"/>
      <point x="517.2916666666666" y="1440.75"/>
      <point x="426.7083333333333" y="1350.25"/>
      <point x="336.5" y="1268.0"/>
      <point x="302" y="1241" type="qcurve"/>
    </contour>
    <contour>
      <point x="575" y="1114" type="move" name="_top"/>
    </contour>
    <contour>
      <point x="575" y="1569" type="move" name="top"/>
    </contour>
  </outline>
</glyph>
<glyph name="caroncomb" format="1">
  <advance width="1135"/>
  <unicode hex="030C"/>
  <note>
caron
</note>
  <outline>
    <contour>
      <point x="429" y="1241" type="line"/>
      <point x="420.75" y="1256.0"/>
      <point x="393.5" y="1299.0"/>
      <point x="374.0" y="1326.0" type="qcurve" smooth="yes"/>
      <point x="344.75" y="1368.75"/>
      <point x="263.75" y="1476.75"/>
      <point x="212" y="1542" type="qcurve"/>
      <point x="212" y="1569" type="line"/>
      <point x="380.0" y="1569.0" type="line"/>
      <point x="412.5" y="1544.0"/>
      <point x="470.8333333333333" y="1496.25"/>
      <point x="532.5" y="1435.5"/>
      <point x="570.0" y="1391.0" type="qcurve"/>
      <point x="591.0" y="1415.5"/>
      <point x="652.9166666666665" y="1477.9166666666665"/>
      <point x="722.5" y="1542.0"/>
      <point x="755" y="1569" type="qcurve"/>
      <point x="923" y="1569" type="line"/>
      <point x="923.0" y="1542.0" type="line"/>
      <point x="872.75" y="1478.25"/>
      <point x="793.25" y="1371.0"/>
      <point x="764.0" y="1329.0" type="qcurve" smooth="yes"/>
      <point x="744.5" y="1302.0"/>
      <point x="715.75" y="1258.25"/>
      <point x="706" y="1241" type="qcurve"/>
    </contour>
    <contour>
      <point x="569" y="1114" type="move" name="_top"/>
    </contour>
    <contour>
      <point x="569" y="1569" type="move" name="top"/>
    </contour>
  </outline>
</glyph>
<glyph name="dblgravecomb" format="1">
  <unicode hex="030F"/>
  <note>
uni030F
</note>
  <outline>
    <contour>
      <point x="273" y="1241" type="line"/>
      <point x="221.5" y="1282.5"/>
      <point x="92.41666666666666" y="1402.7499999999998"/>
      <point x="-15.0" y="1516.0"/>
      <point x="-34" y="1547" type="qcurve"/>
      <point x="-34" y="1569" type="line"/>
      <point x="249.0" y="1569.0" type="line"/>
      <point x="282.75" y="1497.0"/>
      <point x="381.75" y="1324.25"/>
      <point x="423" y="1268" type="qcurve"/>
      <point x="423" y="1241" type="line"/>
    </contour>
    <contour>
      <point x="-118" y="1241" type="line"/>
      <point x="-155.125" y="1270.625"/>
      <point x="-247.99479166666666" y="1355.5"/>
      <point x="-338.7552083333333" y="1446.0"/>
      <point x="-408.75" y="1524.125"/>
      <point x="-423" y="1547" type="qcurve"/>
      <point x="-423" y="1569" type="line"/>
      <point x="-142.0" y="1569.0" type="line"/>
      <point x="-119.5" y="1518.5"/>
      <point x="-53.33333333333333" y="1398.9166666666665"/>
      <point x="11.5" y="1295.0"/>
      <point x="32" y="1268" type="qcurve"/>
      <point x="32" y="1241" type="line"/>
    </contour>
    <contour>
      <point x="0" y="1114" type="move" name="_top"/>
    </contour>
    <contour>
      <point x="0" y="1569" type="move" name="top"/>
    </contour>
  </outline>
</glyph>
<glyph name="commaturnedabovecomb" format="1">
  <advance width="600"/>
  <unicode hex="0312"/>
  <outline>
    <contour>
      <point x="136" y="1241" type="line"/>
      <point x="136.0" y="1262.0" type="line"/>
      <point x="168.25" y="1340.0"/>
      <point x="249.25" y="1493.25"/>
      <point x="301" y="1569" type="qcurve"/>
      <point x="465" y="1569" type="line"/>
      <point x="465.0" y="1542.0" type="line"/>
      <point x="445.5" y="1476.75"/>
      <point x="406.5" y="1299.5"/>
      <point x="399" y="1241" type="qcurve"/>
    </contour>
    <contour>
      <point x="301" y="1114" type="move" name="_top"/>
    </contour>
    <contour>
      <point x="301" y="1569" type="move" name="top"/>
    </contour>
  </outline>
</glyph>
<glyph name="dotbelowcomb" format="1">
  <unicode hex="0323"/>
  <note>
dotbelowcomb
</note>
  <outline>
    <contour>
      <point x="0.0" y="-416.0" type="qcurve" smooth="yes"/>
      <point x="-155.0" y="-416.0"/>
      <point x="-155.0" y="-275.0" type="qcurve" smooth="yes"/>
      <point x="-155.0" y="-203.0"/>
      <point x="-76.5" y="-131.0"/>
      <point x="0.0" y="-131.0" type="qcurve" smooth="yes"/>
      <point x="77.25" y="-131.0"/>
      <point x="155.0" y="-207.5"/>
      <point x="155.0" y="-275.0" type="qcurve" smooth="yes"/>
      <point x="155.0" y="-343.25"/>
      <point x="75.0" y="-416.0"/>
    </contour>
    <contour>
      <point x="-1" y="0" type="move" name="_bottom"/>
    </contour>
    <contour>
      <point x="-1" y="-416" type="move" name="bottom"/>
    </contour>
  </outline>
</glyph>
<glyph name="commaaccentcomb" format="1">
  <advance width="528"/>
  <unicode hex="0326"/>
  <outline>
    <contour>
      <point x="100" y="-453" type="line"/>
      <point x="100.0" y="-426.0" type="line"/>
      <point x="113.0" y="-384.0"/>
      <point x="140.08333333333331" y="-273.41666666666663"/>
      <point x="161.5" y="-164.5"/>
      <point x="166" y="-125" type="qcurve"/>
      <point x="429" y="-125" type="line"/>
      <point x="429.0" y="-145.0" type="line"/>
      <point x="392.25" y="-232.75"/>
      <point x="307.75" y="-387.0"/>
      <point x="262" y="-453" type="qcurve"/>
    </contour>
    <contour>
      <point x="264" y="0" type="move" name="_bottom"/>
    </contour>
    <contour>
      <point x="264" y="-453" type="move" name="bottom"/>
    </contour>
  </outline>
</glyph>
<glyph name="cedillacomb" format="1">
  <advance width="416"/>
  <unicode hex="0327"/>
  <note>
cedilla
</note>
  <outline>
    <contour>
      <point x="107.0" y="-492.0" type="qcurve" smooth="yes"/>
      <point x="30.733333333333334" y="-492.0"/>
      <point x="-25" y="-470" type="qcurve"/>
      <point x="-25.0" y="-317.0" type="line"/>
      <point x="38.36363636363636" y="-334.0"/>
      <point x="96.0" y="-334.0" type="qcurve" smooth="yes"/>
      <point x="184.0" y="-334.0"/>
      <point x="184.0" y="-268.0" type="qcurve" smooth="yes"/>
      <point x="184.0" y="-183.82692307692307"/>
      <point x="26" y="-158" type="qcurve"/>
      <point x="106" y="0" type="line"/>
      <point x="279" y="0" type="line"/>
      <point x="241.0" y="-77.0" type="line"/>
      <point x="309.25" y="-93.5"/>
      <point x="397.0" y="-184.25"/>
      <point x="397.0" y="-260.0" type="qcurve" smooth="yes"/>
      <point x="397.0" y="-367.25"/>
      <point x="255.5" y="-492.0"/>
    </contour>
    <contour>
      <point x="186" y="0" type="move" name="_bottom"/>
    </contour>
    <contour>
      <point x="186" y="-492" type="move" name="bottom"/>
    </contour>
  </outline>
</glyph>
